<svg width="64" height="64" viewBox="0 0 64 64" fill="none" xmlns="http://www.w3.org/2000/svg">
<path fill-rule="evenodd" clip-rule="evenodd" d="M32 56C45.2548 56 56 45.2548 56 32C56 27.1109 54.5381 22.5633 52.0276 18.7704L32.9467 39.9714C31.0996 42.0237 27.9915 42.3269 25.7825 40.6702L17.0667 34.1333C15.8885 33.2497 15.6497 31.5782 16.5333 30.4C17.417 29.2218 19.0885 28.983 20.2667 29.8667L28.9825 36.4035L48.5708 14.6388C44.2628 10.5258 38.4264 8 32 8C18.7452 8 8 18.7452 8 32C8 45.2548 18.7452 56 32 56Z" fill="white"/>
</svg>
