<svg width="183" height="32" viewBox="0 0 183 32" fill="none" xmlns="http://www.w3.org/2000/svg">
<path d="M25.0532 16H16.3824M16.3824 16C16.3824 17.8056 14.9186 19.2693 13.113 19.2693C11.3075 19.2693 9.84375 17.8056 9.84375 16C9.84375 14.1944 11.3075 12.7307 13.113 12.7307C14.9186 12.7307 16.3824 14.1944 16.3824 16Z" stroke="#EB7500" stroke-width="1.64066"/>
<path d="M30.4686 8.47452H38.3899C39.5435 8.47452 40.5433 8.5995 41.3892 8.84944C42.2352 9.09938 42.937 9.46148 43.4945 9.93573C44.0521 10.4036 44.4655 10.9772 44.7346 11.6565C45.0102 12.3358 45.148 13.1017 45.148 13.9541C45.148 14.7552 45.0134 15.4954 44.7443 16.1747C44.4751 16.8541 44.0617 17.4437 43.5041 17.9436C42.953 18.437 42.2544 18.8248 41.4085 19.1068C40.5625 19.3823 39.5627 19.5201 38.4091 19.5201L33.516 19.5105V23.5H30.4686V8.47452ZM38.4668 16.8765C39.0436 16.8765 39.5467 16.8092 39.9761 16.6746C40.4119 16.5336 40.774 16.3381 41.0624 16.0882C41.3572 15.8318 41.5751 15.5242 41.7161 15.1653C41.8635 14.8 41.9372 14.3963 41.9372 13.9541C41.9372 13.0632 41.6456 12.3711 41.0624 11.8776C40.4856 11.3777 39.6204 11.1278 38.4668 11.1278H33.516V16.8765H38.4668ZM48.4838 8.47452H56.1263C57.2799 8.47452 58.2797 8.59629 59.1256 8.83983C59.9716 9.07695 60.6734 9.42303 61.2309 9.87805C61.7885 10.3331 62.2019 10.8874 62.471 11.5411C62.7466 12.1948 62.8844 12.9351 62.8844 13.7618C62.8844 14.3194 62.8171 14.8513 62.6825 15.3576C62.548 15.8575 62.3397 16.3189 62.0577 16.7419C61.7821 17.1649 61.4328 17.543 61.0098 17.8763C60.5869 18.2031 60.0902 18.4755 59.5198 18.6934L62.7883 23.5H59.0584L56.2321 19.2317H56.1455L51.5312 19.2221V23.5H48.4838V8.47452ZM56.2032 16.5881C56.78 16.5881 57.2831 16.5208 57.7125 16.3862C58.1483 16.2516 58.5104 16.0626 58.7988 15.819C59.0936 15.5755 59.3115 15.2807 59.4525 14.9346C59.5999 14.5821 59.6736 14.1912 59.6736 13.7618C59.6736 12.9222 59.3852 12.275 58.8084 11.8199C58.2316 11.3585 57.3632 11.1278 56.2032 11.1278H51.5312V16.5881H56.2032ZM65.6146 15.944C65.6146 14.8096 65.8229 13.7714 66.2394 12.8293C66.656 11.8872 67.2392 11.0797 67.989 10.4068C68.7453 9.72745 69.6489 9.20192 70.7 8.83021C71.7574 8.4585 72.927 8.27265 74.2088 8.27265C75.4842 8.27265 76.6506 8.4585 77.708 8.83021C78.7655 9.20192 79.6691 9.72745 80.4189 10.4068C81.1752 11.0797 81.7616 11.8872 82.1782 12.8293C82.5947 13.7714 82.803 14.8096 82.803 15.944C82.803 17.0848 82.5947 18.1326 82.1782 19.0875C81.7616 20.036 81.1752 20.8532 80.4189 21.5389C79.6691 22.2246 78.7655 22.7598 77.708 23.1443C76.6506 23.5224 75.4842 23.7115 74.2088 23.7115C72.927 23.7115 71.7574 23.5224 70.7 23.1443C69.6489 22.7598 68.7453 22.2246 67.989 21.5389C67.2392 20.8532 66.656 20.036 66.2394 19.0875C65.8229 18.1326 65.6146 17.0848 65.6146 15.944ZM68.662 15.944C68.662 16.7195 68.7998 17.418 69.0753 18.0397C69.3573 18.6613 69.7451 19.1933 70.2385 19.6355C70.7384 20.0713 71.3248 20.4077 71.9978 20.6449C72.6771 20.882 73.4141 21.0006 74.2088 21.0006C75.0035 21.0006 75.7373 20.882 76.4102 20.6449C77.0896 20.4077 77.676 20.0713 78.1694 19.6355C78.6629 19.1933 79.0507 18.6613 79.3327 18.0397C79.6146 17.418 79.7556 16.7195 79.7556 15.944C79.7556 15.1685 79.6146 14.4732 79.3327 13.8579C79.0507 13.2427 78.6629 12.7236 78.1694 12.3006C77.676 11.8712 77.0896 11.5443 76.4102 11.32C75.7373 11.0957 75.0035 10.9836 74.2088 10.9836C73.4141 10.9836 72.6771 11.0957 71.9978 11.32C71.3248 11.5443 70.7384 11.8712 70.2385 12.3006C69.7451 12.7236 69.3573 13.2427 69.0753 13.8579C68.7998 14.4732 68.662 15.1685 68.662 15.944ZM90.4552 15.8671L84.6776 8.47452H88.4075L92.397 13.6464L96.4057 8.47452H100.078L94.1947 15.8383L100.28 23.5H96.5403L92.2624 18.0974L87.8884 23.5H84.2066L90.4552 15.8671ZM120.385 8.47452H133.18V11.147H123.432V14.1463H132.065V16.6554H123.432V20.8371H133.382V23.5H120.385V8.47452ZM137.467 19.0298C138.012 19.3375 138.563 19.6163 139.121 19.8662C139.685 20.1097 140.268 20.318 140.87 20.4911C141.473 20.6577 142.104 20.7859 142.764 20.8756C143.431 20.9653 144.139 21.0102 144.889 21.0102C145.792 21.0102 146.561 20.9525 147.196 20.8371C147.83 20.7154 148.346 20.5519 148.744 20.3469C149.147 20.1354 149.439 19.8854 149.618 19.597C149.804 19.3086 149.897 18.9946 149.897 18.6549C149.897 18.1102 149.67 17.6808 149.215 17.3668C148.76 17.0463 148.058 16.8861 147.109 16.8861C146.693 16.8861 146.254 16.9149 145.792 16.9726C145.331 17.0239 144.863 17.0816 144.389 17.1457C143.921 17.2097 143.456 17.2706 142.995 17.3283C142.54 17.3796 142.11 17.4052 141.707 17.4052C141.034 17.4052 140.387 17.3187 139.765 17.1457C139.15 16.9726 138.602 16.7131 138.121 16.367C137.647 16.0209 137.269 15.5883 136.987 15.0692C136.705 14.5501 136.564 13.9445 136.564 13.2523C136.564 12.8421 136.618 12.4352 136.727 12.0314C136.842 11.6277 137.022 11.2431 137.265 10.8778C137.515 10.5061 137.836 10.1632 138.227 9.84921C138.618 9.52877 139.089 9.25319 139.64 9.02248C140.197 8.79176 140.838 8.61231 141.563 8.48414C142.293 8.34955 143.123 8.28226 144.052 8.28226C144.725 8.28226 145.401 8.32071 146.081 8.39762C146.76 8.46811 147.42 8.57066 148.061 8.70524C148.708 8.83983 149.33 9.00325 149.926 9.19552C150.522 9.38137 151.076 9.58966 151.589 9.82038L150.253 12.2814C149.83 12.0955 149.375 11.9257 148.888 11.7719C148.401 11.6116 147.891 11.4739 147.359 11.3585C146.827 11.2431 146.276 11.1534 145.706 11.0893C145.142 11.0188 144.565 10.9836 143.975 10.9836C143.136 10.9836 142.444 11.0445 141.899 11.1662C141.361 11.288 140.931 11.445 140.611 11.6373C140.29 11.8231 140.066 12.0346 139.938 12.2717C139.816 12.5025 139.755 12.7332 139.755 12.9639C139.755 13.4125 139.957 13.781 140.361 14.0694C140.765 14.3514 141.38 14.4924 142.207 14.4924C142.54 14.4924 142.921 14.47 143.351 14.4251C143.786 14.3738 144.241 14.3194 144.716 14.2617C145.196 14.204 145.683 14.1527 146.177 14.1079C146.677 14.0566 147.161 14.031 147.628 14.031C148.513 14.031 149.295 14.1303 149.974 14.329C150.66 14.5277 151.233 14.8128 151.695 15.1846C152.156 15.5499 152.506 15.9953 152.743 16.5208C152.98 17.0399 153.098 17.6231 153.098 18.2704C153.098 19.1356 152.897 19.9079 152.493 20.5872C152.095 21.2601 151.525 21.8305 150.782 22.2983C150.045 22.7598 149.154 23.1123 148.109 23.3558C147.065 23.5929 145.901 23.7115 144.62 23.7115C143.774 23.7115 142.947 23.657 142.139 23.5481C141.332 23.4455 140.556 23.2981 139.813 23.1059C139.076 22.9072 138.371 22.6733 137.698 22.4041C137.032 22.1285 136.413 21.8273 135.843 21.5004L137.467 19.0298Z" fill="white"/>
<path d="M108.551 19.7797L101.985 8.47452H105.436L110.06 17.0207L114.626 8.47452H118.077L111.598 19.7605V23.5H108.551V19.7797Z" fill="#EB7500"/>
<path d="M157.616 16L166.287 16M166.287 16C166.287 14.1944 167.75 12.7307 169.556 12.7307C171.361 12.7307 172.825 14.1944 172.825 16C172.825 17.8056 171.361 19.2693 169.556 19.2693C167.75 19.2693 166.287 17.8056 166.287 16Z" stroke="#EB7500" stroke-width="1.64066"/>
</svg>
