<svg width="1440" height="1693" viewBox="0 0 1440 1693" fill="none" xmlns="http://www.w3.org/2000/svg">
<path d="M-556.502 1228.01L-1377 -185H-945.728L-367.896 883.165L202.728 -185H634L-175.686 1225.6V1693H-556.502V1228.01Z" fill="#232932"/>
<rect width="322.221" height="322.221" rx="19" transform="matrix(0.889982 -0.455997 0.889982 0.455996 972.916 550.485)" stroke="#797C81"/>
<path d="M520.239 425.074C510.9 420.289 510.9 412.531 520.239 407.746L877.144 224.88C886.483 220.095 901.625 220.095 910.964 224.88L1046.07 294.104C1055.41 298.889 1055.41 306.647 1046.07 311.432L689.165 494.298C679.826 499.083 664.684 499.083 655.345 494.298L520.239 425.074Z" stroke="#797C81"/>
<rect width="360.485" height="246.7" rx="19" transform="matrix(0.889982 -0.455997 0.889982 0.455996 297.661 829.885)" stroke="#797C81"/>
<g filter="url(#filter0_d_142_12306)">
<path d="M1099.72 486.432L997.172 433.889C992.257 431.37 992.257 427.287 997.172 424.769L1038.97 403.354C1043.88 400.836 1043.88 396.753 1038.97 394.234L961.714 354.653" stroke="#797C81"/>
</g>
<path d="M963.955 355.801C962.717 356.435 960.711 356.435 959.474 355.801C958.237 355.167 958.237 354.139 959.474 353.505C960.711 352.871 962.717 352.871 963.955 353.505C965.192 354.139 965.192 355.167 963.955 355.801Z" fill="#797C81"/>
<path d="M1101.07 487.121C1099.83 487.755 1097.82 487.755 1096.59 487.121C1095.35 486.487 1095.35 485.459 1096.59 484.825C1097.82 484.191 1099.83 484.191 1101.07 484.825C1102.3 485.459 1102.3 486.487 1101.07 487.121Z" fill="#797C81"/>
<path d="M1419.65 486.432L1581.84 403.33C1586.76 400.811 1594.73 400.811 1599.64 403.33L1641.44 424.744C1646.35 427.262 1654.32 427.262 1659.24 424.744L1782.6 361.54" stroke="#797C81"/>
<path d="M1418.31 487.121C1417.07 486.487 1417.07 485.459 1418.31 484.825C1419.54 484.191 1421.55 484.191 1422.79 484.825C1424.02 485.459 1424.02 486.487 1422.79 487.121C1421.55 487.755 1419.54 487.755 1418.31 487.121Z" fill="#797C81"/>
<g filter="url(#filter1_dd_142_12306)">
<path d="M1025.45 452.054C1022.79 450.691 1022.86 448.177 1020.39 446.724L1014.32 443.162L1015.21 442.706L1022.17 445.814C1025 447.081 1029.91 447.043 1032.57 448.406C1035.23 449.766 1035.18 452.277 1037.67 453.715L1045.47 458.21L1044.58 458.666L1035.81 454.668C1033.01 453.39 1028.11 453.414 1025.45 452.054Z" fill="url(#paint0_radial_142_12306)" shape-rendering="crispEdges"/>
</g>
<path d="M706.309 845.037L757.9 871.47C762.815 873.989 770.784 873.989 775.7 871.47L1188.44 659.995" stroke="#797C81"/>
<path d="M709.446 844.348C710.683 844.982 710.683 846.01 709.446 846.644C708.208 847.278 706.202 847.278 704.965 846.644C703.728 846.01 703.728 844.982 704.965 844.348C706.202 843.714 708.208 843.714 709.446 844.348Z" fill="#797C81"/>
<path d="M1189.79 659.306C1191.02 659.94 1191.02 660.968 1189.79 661.602C1188.55 662.236 1186.54 662.236 1185.31 661.602C1184.07 660.968 1184.07 659.94 1185.31 659.306C1186.54 658.672 1188.55 658.672 1189.79 659.306Z" fill="#797C81"/>
<g filter="url(#filter2_dd_142_12306)">
<path d="M970.562 767.953C973.222 766.59 978.128 766.629 980.963 765.361L987.916 762.253L988.806 762.709L982.74 766.272C980.267 767.725 980.342 770.238 977.682 771.601C975.026 772.962 970.126 772.937 967.319 774.216L958.547 778.213L957.657 777.757L965.459 773.263C967.954 771.825 967.906 769.314 970.562 767.953Z" fill="url(#paint1_radial_142_12306)" shape-rendering="crispEdges"/>
</g>
<g filter="url(#filter3_dd_142_12306)">
<path d="M447.205 749.587C449.865 748.224 454.772 748.262 457.607 746.995L464.56 743.887L465.45 744.343L459.384 747.906C456.911 749.358 456.985 751.872 454.325 753.235C451.669 754.596 446.769 754.571 443.963 755.85L435.19 759.847L434.3 759.391L442.102 754.896C444.598 753.458 444.55 750.948 447.205 749.587Z" fill="url(#paint2_radial_142_12306)" shape-rendering="crispEdges"/>
</g>
<g filter="url(#filter4_dd_142_12306)">
<path d="M430.848 901.802C428.188 900.439 428.263 897.925 425.79 896.473L419.724 892.91L420.614 892.454L427.567 895.562C430.402 896.829 435.308 896.791 437.968 898.154C440.624 899.515 440.576 902.025 443.071 903.463L450.873 907.958L449.983 908.414L441.211 904.417C438.404 903.138 433.504 903.163 430.848 901.802Z" fill="url(#paint3_radial_142_12306)"/>
</g>
<path d="M615.797 891.412L712.196 940.804C717.111 943.322 725.081 943.322 729.996 940.804L1233.25 682.953" stroke="#797C81"/>
<path d="M618.934 890.724C620.171 891.358 620.171 892.385 618.934 893.019C617.696 893.653 615.69 893.653 614.453 893.019C613.215 892.385 613.215 891.358 614.453 890.724C615.69 890.09 617.696 890.09 618.934 890.724Z" fill="#797C81"/>
<path d="M1234.59 682.264C1235.83 682.898 1235.83 683.926 1234.59 684.56C1233.36 685.194 1231.35 685.194 1230.11 684.56C1228.88 683.926 1228.88 682.898 1230.11 682.264C1231.35 681.63 1233.36 681.63 1234.59 682.264Z" fill="#797C81"/>
<g filter="url(#filter5_dd_142_12306)">
<path d="M809.253 896.519C811.913 895.155 816.819 895.194 819.654 893.927L826.608 890.819L827.498 891.275L821.432 894.837C818.958 896.29 819.033 898.803 816.373 900.166C813.717 901.527 808.817 901.502 806.011 902.781L797.238 906.778L796.348 906.322L804.15 901.828C806.646 900.39 806.597 897.879 809.253 896.519Z" fill="url(#paint4_radial_142_12306)"/>
</g>
<g filter="url(#filter6_dd_142_12306)">
<path d="M1098.71 748.209C1101.37 746.846 1106.28 746.885 1109.11 745.617L1116.07 742.509L1116.96 742.965L1110.89 746.528C1108.42 747.981 1108.49 750.494 1105.83 751.857C1103.18 753.218 1098.28 753.193 1095.47 754.472L1086.7 758.469L1085.81 758.013L1093.61 753.519C1096.1 752.081 1096.06 749.57 1098.71 748.209Z" fill="url(#paint5_radial_142_12306)"/>
</g>
<path d="M1052.23 510.768L907.883 436.811C902.968 434.293 902.968 430.21 907.883 427.691L949.678 406.277C954.593 403.759 954.593 399.675 949.678 397.157L914.218 378.988" stroke="#797C81"/>
<path d="M916.458 380.136C915.221 380.77 913.215 380.77 911.977 380.136C910.74 379.502 910.74 378.475 911.977 377.841C913.215 377.207 915.221 377.207 916.458 377.841C917.696 378.475 917.695 379.502 916.458 380.136Z" fill="#797C81"/>
<path d="M1053.57 511.456C1052.33 512.09 1050.33 512.09 1049.09 511.456C1047.85 510.822 1047.85 509.795 1049.09 509.161C1050.33 508.527 1052.33 508.527 1053.57 509.161C1054.81 509.795 1054.81 510.822 1053.57 511.456Z" fill="#797C81"/>
<path d="M1372.15 462.097L1598.51 346.122C1603.42 343.604 1611.39 343.604 1616.31 346.122L1658.1 367.536C1663.02 370.055 1670.98 370.055 1675.9 367.536L1735.1 337.205" stroke="#797C81"/>
<path d="M1370.81 462.785C1369.57 462.151 1369.57 461.124 1370.81 460.49C1372.05 459.856 1374.05 459.856 1375.29 460.49C1376.53 461.124 1376.53 462.151 1375.29 462.785C1374.05 463.419 1372.05 463.419 1370.81 462.785Z" fill="#797C81"/>
<g filter="url(#filter7_dd_142_12306)">
<path d="M943.899 458.941C941.239 457.578 941.313 455.064 938.84 453.612L932.774 450.049L933.664 449.593L940.617 452.701C943.452 453.968 948.358 453.93 951.019 455.293C953.674 456.654 953.626 459.164 956.122 460.602L963.923 465.097L963.033 465.553L954.261 461.556C951.455 460.277 946.554 460.302 943.899 458.941Z" fill="url(#paint6_radial_142_12306)" shape-rendering="crispEdges"/>
</g>
<rect width="360.485" height="246.7" rx="19" transform="matrix(0.889982 -0.455997 0.889982 0.455996 55.6611 117.883)" stroke="#797C81"/>
<path d="M464.309 133.035L515.9 159.469C520.815 161.987 528.784 161.987 533.7 159.469L946.442 -52.0065" stroke="#797C81"/>
<path d="M467.446 132.347C468.683 132.981 468.683 134.008 467.446 134.642C466.208 135.276 464.202 135.276 462.965 134.642C461.728 134.008 461.728 132.981 462.965 132.347C464.202 131.713 466.208 131.713 467.446 132.347Z" fill="#797C81"/>
<g filter="url(#filter8_dd_142_12306)">
<path d="M728.562 55.9517C731.222 54.5887 736.128 54.627 738.963 53.3598L745.916 50.2518L746.806 50.7077L740.74 54.2704C738.267 55.7229 738.342 58.2367 735.682 59.5997C733.026 60.9604 728.126 60.9355 725.319 62.2143L716.547 66.2116L715.657 65.7556L723.459 61.261C725.954 59.823 725.906 57.3124 728.562 55.9517Z" fill="url(#paint7_radial_142_12306)" shape-rendering="crispEdges"/>
</g>
<g filter="url(#filter9_dd_142_12306)">
<path d="M205.205 37.5853C207.865 36.2223 212.772 36.2605 215.607 34.9934L222.56 31.8853L223.45 32.3413L217.384 35.904C214.911 37.3565 214.985 39.8702 212.325 41.2332C209.669 42.5939 204.769 42.5691 201.963 43.8479L193.19 47.8452L192.3 47.3892L200.102 42.8945C202.598 41.4566 202.55 38.946 205.205 37.5853Z" fill="url(#paint8_radial_142_12306)" shape-rendering="crispEdges"/>
</g>
<g filter="url(#filter10_dd_142_12306)">
<path d="M188.848 189.8C186.188 188.437 186.263 185.924 183.79 184.471L177.724 180.908L178.614 180.452L185.567 183.56C188.402 184.828 193.308 184.789 195.968 186.152C198.624 187.513 198.576 190.024 201.071 191.462L208.873 195.956L207.983 196.412L199.211 192.415C196.404 191.136 191.504 191.161 188.848 189.8Z" fill="url(#paint9_radial_142_12306)" shape-rendering="crispEdges"/>
</g>
<path d="M373.797 179.411L470.196 228.802C475.111 231.321 483.081 231.321 487.996 228.802L991.25 -29.0485" stroke="#797C81"/>
<path d="M376.934 178.722C378.171 179.356 378.171 180.384 376.934 181.018C375.696 181.652 373.69 181.652 372.453 181.018C371.215 180.384 371.215 179.356 372.453 178.722C373.69 178.088 375.696 178.088 376.934 178.722Z" fill="#797C81"/>
<g filter="url(#filter11_dd_142_12306)">
<path d="M567.253 184.517C569.913 183.154 574.819 183.192 577.654 181.925L584.608 178.817L585.498 179.273L579.432 182.836C576.958 184.288 577.033 186.802 574.373 188.165C571.717 189.525 566.817 189.501 564.011 190.779L555.238 194.777L554.348 194.321L562.15 189.826C564.646 188.388 564.597 185.878 567.253 184.517Z" fill="url(#paint10_radial_142_12306)"/>
</g>
<g filter="url(#filter12_dd_142_12306)">
<path d="M856.712 36.2078C859.372 34.8447 864.278 34.883 867.113 33.6158L874.067 30.5078L874.957 30.9638L868.891 34.5265C866.417 35.979 866.492 38.4927 863.832 39.8557C861.176 41.2164 856.276 41.1916 853.47 42.4704L844.697 46.4677L843.807 46.0117L851.609 41.517C854.105 40.0791 854.056 37.5684 856.712 36.2078Z" fill="url(#paint11_radial_142_12306)" shape-rendering="crispEdges"/>
</g>
<rect width="1441" height="201" transform="translate(0 1021)" fill="#232932"/>
<defs>
<filter id="filter0_d_142_12306" x="957.27" y="354.425" width="146.898" height="140.235" filterUnits="userSpaceOnUse" color-interpolation-filters="sRGB">
<feFlood flood-opacity="0" result="BackgroundImageFix"/>
<feColorMatrix in="SourceAlpha" type="matrix" values="0 0 0 0 0 0 0 0 0 0 0 0 0 0 0 0 0 0 127 0" result="hardAlpha"/>
<feOffset dy="4"/>
<feGaussianBlur stdDeviation="2"/>
<feComposite in2="hardAlpha" operator="out"/>
<feColorMatrix type="matrix" values="0 0 0 0 0 0 0 0 0 0 0 0 0 0 0 0 0 0 0.25 0"/>
<feBlend mode="normal" in2="BackgroundImageFix" result="effect1_dropShadow_142_12306"/>
<feBlend mode="normal" in="SourceGraphic" in2="effect1_dropShadow_142_12306" result="shape"/>
</filter>
<filter id="filter1_dd_142_12306" x="1002.32" y="430.706" width="55.1494" height="39.9599" filterUnits="userSpaceOnUse" color-interpolation-filters="sRGB">
<feFlood flood-opacity="0" result="BackgroundImageFix"/>
<feColorMatrix in="SourceAlpha" type="matrix" values="0 0 0 0 0 0 0 0 0 0 0 0 0 0 0 0 0 0 127 0" result="hardAlpha"/>
<feOffset/>
<feGaussianBlur stdDeviation="6"/>
<feComposite in2="hardAlpha" operator="out"/>
<feColorMatrix type="matrix" values="0 0 0 0 1 0 0 0 0 0.63 0 0 0 0 0.075 0 0 0 1 0"/>
<feBlend mode="normal" in2="BackgroundImageFix" result="effect1_dropShadow_142_12306"/>
<feColorMatrix in="SourceAlpha" type="matrix" values="0 0 0 0 0 0 0 0 0 0 0 0 0 0 0 0 0 0 127 0" result="hardAlpha"/>
<feOffset/>
<feGaussianBlur stdDeviation="6"/>
<feComposite in2="hardAlpha" operator="out"/>
<feColorMatrix type="matrix" values="0 0 0 0 1 0 0 0 0 0.63 0 0 0 0 0.075 0 0 0 1 0"/>
<feBlend mode="normal" in2="effect1_dropShadow_142_12306" result="effect2_dropShadow_142_12306"/>
<feBlend mode="normal" in="SourceGraphic" in2="effect2_dropShadow_142_12306" result="shape"/>
</filter>
<filter id="filter2_dd_142_12306" x="945.657" y="750.253" width="55.1494" height="39.9599" filterUnits="userSpaceOnUse" color-interpolation-filters="sRGB">
<feFlood flood-opacity="0" result="BackgroundImageFix"/>
<feColorMatrix in="SourceAlpha" type="matrix" values="0 0 0 0 0 0 0 0 0 0 0 0 0 0 0 0 0 0 127 0" result="hardAlpha"/>
<feOffset/>
<feGaussianBlur stdDeviation="6"/>
<feComposite in2="hardAlpha" operator="out"/>
<feColorMatrix type="matrix" values="0 0 0 0 1 0 0 0 0 0.63 0 0 0 0 0.075 0 0 0 1 0"/>
<feBlend mode="normal" in2="BackgroundImageFix" result="effect1_dropShadow_142_12306"/>
<feColorMatrix in="SourceAlpha" type="matrix" values="0 0 0 0 0 0 0 0 0 0 0 0 0 0 0 0 0 0 127 0" result="hardAlpha"/>
<feOffset/>
<feGaussianBlur stdDeviation="6"/>
<feComposite in2="hardAlpha" operator="out"/>
<feColorMatrix type="matrix" values="0 0 0 0 1 0 0 0 0 0.63 0 0 0 0 0.075 0 0 0 1 0"/>
<feBlend mode="normal" in2="effect1_dropShadow_142_12306" result="effect2_dropShadow_142_12306"/>
<feBlend mode="normal" in="SourceGraphic" in2="effect2_dropShadow_142_12306" result="shape"/>
</filter>
<filter id="filter3_dd_142_12306" x="422.3" y="731.887" width="55.1494" height="39.9599" filterUnits="userSpaceOnUse" color-interpolation-filters="sRGB">
<feFlood flood-opacity="0" result="BackgroundImageFix"/>
<feColorMatrix in="SourceAlpha" type="matrix" values="0 0 0 0 0 0 0 0 0 0 0 0 0 0 0 0 0 0 127 0" result="hardAlpha"/>
<feOffset/>
<feGaussianBlur stdDeviation="6"/>
<feComposite in2="hardAlpha" operator="out"/>
<feColorMatrix type="matrix" values="0 0 0 0 1 0 0 0 0 0.63 0 0 0 0 0.075 0 0 0 1 0"/>
<feBlend mode="normal" in2="BackgroundImageFix" result="effect1_dropShadow_142_12306"/>
<feColorMatrix in="SourceAlpha" type="matrix" values="0 0 0 0 0 0 0 0 0 0 0 0 0 0 0 0 0 0 127 0" result="hardAlpha"/>
<feOffset/>
<feGaussianBlur stdDeviation="6"/>
<feComposite in2="hardAlpha" operator="out"/>
<feColorMatrix type="matrix" values="0 0 0 0 1 0 0 0 0 0.63 0 0 0 0 0.075 0 0 0 1 0"/>
<feBlend mode="normal" in2="effect1_dropShadow_142_12306" result="effect2_dropShadow_142_12306"/>
<feBlend mode="normal" in="SourceGraphic" in2="effect2_dropShadow_142_12306" result="shape"/>
</filter>
<filter id="filter4_dd_142_12306" x="407.724" y="880.454" width="55.1494" height="39.9598" filterUnits="userSpaceOnUse" color-interpolation-filters="sRGB">
<feFlood flood-opacity="0" result="BackgroundImageFix"/>
<feColorMatrix in="SourceAlpha" type="matrix" values="0 0 0 0 0 0 0 0 0 0 0 0 0 0 0 0 0 0 127 0" result="hardAlpha"/>
<feOffset/>
<feGaussianBlur stdDeviation="6"/>
<feComposite in2="hardAlpha" operator="out"/>
<feColorMatrix type="matrix" values="0 0 0 0 1 0 0 0 0 0.63 0 0 0 0 0.075 0 0 0 1 0"/>
<feBlend mode="normal" in2="BackgroundImageFix" result="effect1_dropShadow_142_12306"/>
<feColorMatrix in="SourceAlpha" type="matrix" values="0 0 0 0 0 0 0 0 0 0 0 0 0 0 0 0 0 0 127 0" result="hardAlpha"/>
<feOffset/>
<feGaussianBlur stdDeviation="6"/>
<feComposite in2="hardAlpha" operator="out"/>
<feColorMatrix type="matrix" values="0 0 0 0 1 0 0 0 0 0.63 0 0 0 0 0.075 0 0 0 1 0"/>
<feBlend mode="normal" in2="effect1_dropShadow_142_12306" result="effect2_dropShadow_142_12306"/>
<feBlend mode="normal" in="SourceGraphic" in2="effect2_dropShadow_142_12306" result="shape"/>
</filter>
<filter id="filter5_dd_142_12306" x="784.348" y="878.819" width="55.1494" height="39.9599" filterUnits="userSpaceOnUse" color-interpolation-filters="sRGB">
<feFlood flood-opacity="0" result="BackgroundImageFix"/>
<feColorMatrix in="SourceAlpha" type="matrix" values="0 0 0 0 0 0 0 0 0 0 0 0 0 0 0 0 0 0 127 0" result="hardAlpha"/>
<feOffset/>
<feGaussianBlur stdDeviation="6"/>
<feComposite in2="hardAlpha" operator="out"/>
<feColorMatrix type="matrix" values="0 0 0 0 1 0 0 0 0 0.63 0 0 0 0 0.075 0 0 0 1 0"/>
<feBlend mode="normal" in2="BackgroundImageFix" result="effect1_dropShadow_142_12306"/>
<feColorMatrix in="SourceAlpha" type="matrix" values="0 0 0 0 0 0 0 0 0 0 0 0 0 0 0 0 0 0 127 0" result="hardAlpha"/>
<feOffset/>
<feGaussianBlur stdDeviation="6"/>
<feComposite in2="hardAlpha" operator="out"/>
<feColorMatrix type="matrix" values="0 0 0 0 1 0 0 0 0 0.63 0 0 0 0 0.075 0 0 0 1 0"/>
<feBlend mode="normal" in2="effect1_dropShadow_142_12306" result="effect2_dropShadow_142_12306"/>
<feBlend mode="normal" in="SourceGraphic" in2="effect2_dropShadow_142_12306" result="shape"/>
</filter>
<filter id="filter6_dd_142_12306" x="1073.81" y="730.509" width="55.1494" height="39.9599" filterUnits="userSpaceOnUse" color-interpolation-filters="sRGB">
<feFlood flood-opacity="0" result="BackgroundImageFix"/>
<feColorMatrix in="SourceAlpha" type="matrix" values="0 0 0 0 0 0 0 0 0 0 0 0 0 0 0 0 0 0 127 0" result="hardAlpha"/>
<feOffset/>
<feGaussianBlur stdDeviation="6"/>
<feComposite in2="hardAlpha" operator="out"/>
<feColorMatrix type="matrix" values="0 0 0 0 1 0 0 0 0 0.63 0 0 0 0 0.075 0 0 0 1 0"/>
<feBlend mode="normal" in2="BackgroundImageFix" result="effect1_dropShadow_142_12306"/>
<feColorMatrix in="SourceAlpha" type="matrix" values="0 0 0 0 0 0 0 0 0 0 0 0 0 0 0 0 0 0 127 0" result="hardAlpha"/>
<feOffset/>
<feGaussianBlur stdDeviation="6"/>
<feComposite in2="hardAlpha" operator="out"/>
<feColorMatrix type="matrix" values="0 0 0 0 1 0 0 0 0 0.63 0 0 0 0 0.075 0 0 0 1 0"/>
<feBlend mode="normal" in2="effect1_dropShadow_142_12306" result="effect2_dropShadow_142_12306"/>
<feBlend mode="normal" in="SourceGraphic" in2="effect2_dropShadow_142_12306" result="shape"/>
</filter>
<filter id="filter7_dd_142_12306" x="920.774" y="437.593" width="55.1494" height="39.9599" filterUnits="userSpaceOnUse" color-interpolation-filters="sRGB">
<feFlood flood-opacity="0" result="BackgroundImageFix"/>
<feColorMatrix in="SourceAlpha" type="matrix" values="0 0 0 0 0 0 0 0 0 0 0 0 0 0 0 0 0 0 127 0" result="hardAlpha"/>
<feOffset/>
<feGaussianBlur stdDeviation="6"/>
<feComposite in2="hardAlpha" operator="out"/>
<feColorMatrix type="matrix" values="0 0 0 0 1 0 0 0 0 0.63 0 0 0 0 0.075 0 0 0 1 0"/>
<feBlend mode="normal" in2="BackgroundImageFix" result="effect1_dropShadow_142_12306"/>
<feColorMatrix in="SourceAlpha" type="matrix" values="0 0 0 0 0 0 0 0 0 0 0 0 0 0 0 0 0 0 127 0" result="hardAlpha"/>
<feOffset/>
<feGaussianBlur stdDeviation="6"/>
<feComposite in2="hardAlpha" operator="out"/>
<feColorMatrix type="matrix" values="0 0 0 0 1 0 0 0 0 0.63 0 0 0 0 0.075 0 0 0 1 0"/>
<feBlend mode="normal" in2="effect1_dropShadow_142_12306" result="effect2_dropShadow_142_12306"/>
<feBlend mode="normal" in="SourceGraphic" in2="effect2_dropShadow_142_12306" result="shape"/>
</filter>
<filter id="filter8_dd_142_12306" x="703.657" y="38.2518" width="55.1494" height="39.9599" filterUnits="userSpaceOnUse" color-interpolation-filters="sRGB">
<feFlood flood-opacity="0" result="BackgroundImageFix"/>
<feColorMatrix in="SourceAlpha" type="matrix" values="0 0 0 0 0 0 0 0 0 0 0 0 0 0 0 0 0 0 127 0" result="hardAlpha"/>
<feOffset/>
<feGaussianBlur stdDeviation="6"/>
<feComposite in2="hardAlpha" operator="out"/>
<feColorMatrix type="matrix" values="0 0 0 0 1 0 0 0 0 0.63 0 0 0 0 0.075 0 0 0 1 0"/>
<feBlend mode="normal" in2="BackgroundImageFix" result="effect1_dropShadow_142_12306"/>
<feColorMatrix in="SourceAlpha" type="matrix" values="0 0 0 0 0 0 0 0 0 0 0 0 0 0 0 0 0 0 127 0" result="hardAlpha"/>
<feOffset/>
<feGaussianBlur stdDeviation="6"/>
<feComposite in2="hardAlpha" operator="out"/>
<feColorMatrix type="matrix" values="0 0 0 0 1 0 0 0 0 0.63 0 0 0 0 0.075 0 0 0 1 0"/>
<feBlend mode="normal" in2="effect1_dropShadow_142_12306" result="effect2_dropShadow_142_12306"/>
<feBlend mode="normal" in="SourceGraphic" in2="effect2_dropShadow_142_12306" result="shape"/>
</filter>
<filter id="filter9_dd_142_12306" x="180.3" y="19.8853" width="55.1494" height="39.9599" filterUnits="userSpaceOnUse" color-interpolation-filters="sRGB">
<feFlood flood-opacity="0" result="BackgroundImageFix"/>
<feColorMatrix in="SourceAlpha" type="matrix" values="0 0 0 0 0 0 0 0 0 0 0 0 0 0 0 0 0 0 127 0" result="hardAlpha"/>
<feOffset/>
<feGaussianBlur stdDeviation="6"/>
<feComposite in2="hardAlpha" operator="out"/>
<feColorMatrix type="matrix" values="0 0 0 0 1 0 0 0 0 0.63 0 0 0 0 0.075 0 0 0 1 0"/>
<feBlend mode="normal" in2="BackgroundImageFix" result="effect1_dropShadow_142_12306"/>
<feColorMatrix in="SourceAlpha" type="matrix" values="0 0 0 0 0 0 0 0 0 0 0 0 0 0 0 0 0 0 127 0" result="hardAlpha"/>
<feOffset/>
<feGaussianBlur stdDeviation="6"/>
<feComposite in2="hardAlpha" operator="out"/>
<feColorMatrix type="matrix" values="0 0 0 0 1 0 0 0 0 0.63 0 0 0 0 0.075 0 0 0 1 0"/>
<feBlend mode="normal" in2="effect1_dropShadow_142_12306" result="effect2_dropShadow_142_12306"/>
<feBlend mode="normal" in="SourceGraphic" in2="effect2_dropShadow_142_12306" result="shape"/>
</filter>
<filter id="filter10_dd_142_12306" x="165.724" y="168.452" width="55.1494" height="39.9599" filterUnits="userSpaceOnUse" color-interpolation-filters="sRGB">
<feFlood flood-opacity="0" result="BackgroundImageFix"/>
<feColorMatrix in="SourceAlpha" type="matrix" values="0 0 0 0 0 0 0 0 0 0 0 0 0 0 0 0 0 0 127 0" result="hardAlpha"/>
<feOffset/>
<feGaussianBlur stdDeviation="6"/>
<feComposite in2="hardAlpha" operator="out"/>
<feColorMatrix type="matrix" values="0 0 0 0 1 0 0 0 0 0.63 0 0 0 0 0.075 0 0 0 1 0"/>
<feBlend mode="normal" in2="BackgroundImageFix" result="effect1_dropShadow_142_12306"/>
<feColorMatrix in="SourceAlpha" type="matrix" values="0 0 0 0 0 0 0 0 0 0 0 0 0 0 0 0 0 0 127 0" result="hardAlpha"/>
<feOffset/>
<feGaussianBlur stdDeviation="6"/>
<feComposite in2="hardAlpha" operator="out"/>
<feColorMatrix type="matrix" values="0 0 0 0 1 0 0 0 0 0.63 0 0 0 0 0.075 0 0 0 1 0"/>
<feBlend mode="normal" in2="effect1_dropShadow_142_12306" result="effect2_dropShadow_142_12306"/>
<feBlend mode="normal" in="SourceGraphic" in2="effect2_dropShadow_142_12306" result="shape"/>
</filter>
<filter id="filter11_dd_142_12306" x="542.348" y="166.817" width="55.1494" height="39.9599" filterUnits="userSpaceOnUse" color-interpolation-filters="sRGB">
<feFlood flood-opacity="0" result="BackgroundImageFix"/>
<feColorMatrix in="SourceAlpha" type="matrix" values="0 0 0 0 0 0 0 0 0 0 0 0 0 0 0 0 0 0 127 0" result="hardAlpha"/>
<feOffset/>
<feGaussianBlur stdDeviation="6"/>
<feComposite in2="hardAlpha" operator="out"/>
<feColorMatrix type="matrix" values="0 0 0 0 1 0 0 0 0 0.63 0 0 0 0 0.075 0 0 0 1 0"/>
<feBlend mode="normal" in2="BackgroundImageFix" result="effect1_dropShadow_142_12306"/>
<feColorMatrix in="SourceAlpha" type="matrix" values="0 0 0 0 0 0 0 0 0 0 0 0 0 0 0 0 0 0 127 0" result="hardAlpha"/>
<feOffset/>
<feGaussianBlur stdDeviation="6"/>
<feComposite in2="hardAlpha" operator="out"/>
<feColorMatrix type="matrix" values="0 0 0 0 1 0 0 0 0 0.63 0 0 0 0 0.075 0 0 0 1 0"/>
<feBlend mode="normal" in2="effect1_dropShadow_142_12306" result="effect2_dropShadow_142_12306"/>
<feBlend mode="normal" in="SourceGraphic" in2="effect2_dropShadow_142_12306" result="shape"/>
</filter>
<filter id="filter12_dd_142_12306" x="831.807" y="18.5078" width="55.1494" height="39.9599" filterUnits="userSpaceOnUse" color-interpolation-filters="sRGB">
<feFlood flood-opacity="0" result="BackgroundImageFix"/>
<feColorMatrix in="SourceAlpha" type="matrix" values="0 0 0 0 0 0 0 0 0 0 0 0 0 0 0 0 0 0 127 0" result="hardAlpha"/>
<feOffset/>
<feGaussianBlur stdDeviation="6"/>
<feComposite in2="hardAlpha" operator="out"/>
<feColorMatrix type="matrix" values="0 0 0 0 1 0 0 0 0 0.63 0 0 0 0 0.075 0 0 0 1 0"/>
<feBlend mode="normal" in2="BackgroundImageFix" result="effect1_dropShadow_142_12306"/>
<feColorMatrix in="SourceAlpha" type="matrix" values="0 0 0 0 0 0 0 0 0 0 0 0 0 0 0 0 0 0 127 0" result="hardAlpha"/>
<feOffset/>
<feGaussianBlur stdDeviation="6"/>
<feComposite in2="hardAlpha" operator="out"/>
<feColorMatrix type="matrix" values="0 0 0 0 1 0 0 0 0 0.63 0 0 0 0 0.075 0 0 0 1 0"/>
<feBlend mode="normal" in2="effect1_dropShadow_142_12306" result="effect2_dropShadow_142_12306"/>
<feBlend mode="normal" in="SourceGraphic" in2="effect2_dropShadow_142_12306" result="shape"/>
</filter>
<radialGradient id="paint0_radial_142_12306" cx="0" cy="0" r="1" gradientUnits="userSpaceOnUse" gradientTransform="translate(1029.01 450.23) rotate(-152.871) scale(15.5 8.5024)">
<stop stop-color="#FFB546"/>
<stop offset="0.291667" stop-color="#FFA113"/>
<stop offset="1" stop-color="#E99B25" stop-opacity="0"/>
</radialGradient>
<radialGradient id="paint1_radial_142_12306" cx="0" cy="0" r="1" gradientUnits="userSpaceOnUse" gradientTransform="translate(974.122 769.777) rotate(-27.1291) scale(15.5 8.5024)">
<stop stop-color="#FFB546"/>
<stop offset="0.291667" stop-color="#FFA113"/>
<stop offset="1" stop-color="#E99B25" stop-opacity="0"/>
</radialGradient>
<radialGradient id="paint2_radial_142_12306" cx="0" cy="0" r="1" gradientUnits="userSpaceOnUse" gradientTransform="translate(450.765 751.411) rotate(-27.1291) scale(15.5 8.5024)">
<stop stop-color="#FFB546"/>
<stop offset="0.291667" stop-color="#FFA113"/>
<stop offset="1" stop-color="#E99B25" stop-opacity="0"/>
</radialGradient>
<radialGradient id="paint3_radial_142_12306" cx="0" cy="0" r="1" gradientUnits="userSpaceOnUse" gradientTransform="translate(434.408 899.978) rotate(-152.871) scale(15.5 8.5024)">
<stop stop-color="#FFB546"/>
<stop offset="0.291667" stop-color="#FFA113"/>
<stop offset="1" stop-color="#797C81"/>
</radialGradient>
<radialGradient id="paint4_radial_142_12306" cx="0" cy="0" r="1" gradientUnits="userSpaceOnUse" gradientTransform="translate(812.813 898.342) rotate(-27.1291) scale(15.5 8.5024)">
<stop stop-color="#FFB546"/>
<stop offset="0.291667" stop-color="#FFA113"/>
<stop offset="1" stop-color="#797C81"/>
</radialGradient>
<radialGradient id="paint5_radial_142_12306" cx="0" cy="0" r="1" gradientUnits="userSpaceOnUse" gradientTransform="translate(1102.27 750.033) rotate(-27.1291) scale(15.5 8.5024)">
<stop stop-color="#FFB546"/>
<stop offset="0.291667" stop-color="#FFA113"/>
<stop offset="1" stop-color="#797C81"/>
</radialGradient>
<radialGradient id="paint6_radial_142_12306" cx="0" cy="0" r="1" gradientUnits="userSpaceOnUse" gradientTransform="translate(947.459 457.117) rotate(-152.871) scale(15.5 8.5024)">
<stop stop-color="#FFB546"/>
<stop offset="0.291667" stop-color="#FFA113"/>
<stop offset="1" stop-color="#E99B25" stop-opacity="0"/>
</radialGradient>
<radialGradient id="paint7_radial_142_12306" cx="0" cy="0" r="1" gradientUnits="userSpaceOnUse" gradientTransform="translate(732.122 57.7757) rotate(-27.1291) scale(15.5 8.5024)">
<stop stop-color="#FFB546"/>
<stop offset="0.291667" stop-color="#FFA113"/>
<stop offset="1" stop-color="#E99B25" stop-opacity="0"/>
</radialGradient>
<radialGradient id="paint8_radial_142_12306" cx="0" cy="0" r="1" gradientUnits="userSpaceOnUse" gradientTransform="translate(208.765 39.4093) rotate(-27.1291) scale(15.5 8.5024)">
<stop stop-color="#FFB546"/>
<stop offset="0.291667" stop-color="#FFA113"/>
<stop offset="1" stop-color="#FFA113" stop-opacity="0"/>
</radialGradient>
<radialGradient id="paint9_radial_142_12306" cx="0" cy="0" r="1" gradientUnits="userSpaceOnUse" gradientTransform="translate(192.408 187.976) rotate(-152.871) scale(15.5 8.5024)">
<stop stop-color="#FFB546"/>
<stop offset="0.291667" stop-color="#FFA113"/>
<stop offset="1" stop-color="#E99B25" stop-opacity="0"/>
</radialGradient>
<radialGradient id="paint10_radial_142_12306" cx="0" cy="0" r="1" gradientUnits="userSpaceOnUse" gradientTransform="translate(570.813 186.341) rotate(-27.1291) scale(15.5 8.5024)">
<stop stop-color="#FFB546"/>
<stop offset="0.291667" stop-color="#FFA113"/>
<stop offset="1" stop-color="#797C81"/>
</radialGradient>
<radialGradient id="paint11_radial_142_12306" cx="0" cy="0" r="1" gradientUnits="userSpaceOnUse" gradientTransform="translate(860.272 38.0318) rotate(-27.1291) scale(15.5 8.5024)">
<stop stop-color="#FFB546"/>
<stop offset="0.291667" stop-color="#FFA113"/>
<stop offset="1" stop-color="#E99B25" stop-opacity="0"/>
</radialGradient>
</defs>
</svg>
