<svg width="243" height="22" viewBox="0 0 243 22" fill="none" xmlns="http://www.w3.org/2000/svg">
<g filter="url(#filter0_d_142_12346)">
<path d="M5.56675 9.56753C4.48841 9.80681 3.80821 10.8749 4.04749 11.9533C4.28676 13.0316 5.3549 13.7118 6.43325 13.4726L5.56675 9.56753ZM236.597 10.479C237.679 10.7017 238.736 10.0052 238.959 8.92329C239.182 7.8414 238.485 6.78383 237.403 6.56114L236.597 10.479ZM6.43325 13.4726C31.7647 7.8517 77.4197 4.64776 122.806 4.08845C168.2 3.52904 212.988 5.61952 236.597 10.479L237.403 6.56114C213.336 1.6072 168.17 -0.470894 122.757 0.0887544C77.3351 0.648502 31.3283 3.85126 5.56675 9.56753L6.43325 13.4726Z" fill="#FFA113"/>
</g>
<defs>
<filter id="filter0_d_142_12346" x="-0.000488281" y="-3.05176e-05" width="243.001" height="21.5205" filterUnits="userSpaceOnUse" color-interpolation-filters="sRGB">
<feFlood flood-opacity="0" result="BackgroundImageFix"/>
<feColorMatrix in="SourceAlpha" type="matrix" values="0 0 0 0 0 0 0 0 0 0 0 0 0 0 0 0 0 0 127 0" result="hardAlpha"/>
<feOffset dy="4"/>
<feGaussianBlur stdDeviation="2"/>
<feComposite in2="hardAlpha" operator="out"/>
<feColorMatrix type="matrix" values="0 0 0 0 0 0 0 0 0 0 0 0 0 0 0 0 0 0 0.25 0"/>
<feBlend mode="normal" in2="BackgroundImageFix" result="effect1_dropShadow_142_12346"/>
<feBlend mode="normal" in="SourceGraphic" in2="effect1_dropShadow_142_12346" result="shape"/>
</filter>
</defs>
</svg>
