<svg width="2500" height="1309" viewBox="0 0 1440 1309" fill="none" xmlns="http://www.w3.org/2000/svg">
<rect width="320" height="320" rx="19" transform="matrix(0.889982 -0.455997 0.889982 0.455996 1208.02 566.804)" stroke="#797C81"/>
<path d="M758.582 442.317C749.244 437.532 749.244 429.774 758.583 424.989L1112.8 243.502C1122.13 238.717 1137.28 238.717 1146.61 243.502L1280.56 312.13C1289.9 316.914 1289.9 324.672 1280.56 329.457L926.344 510.944C917.005 515.729 901.864 515.729 892.525 510.944L758.582 442.317Z" stroke="#797C81"/>
<path d="M1333.96 503.192L1232.17 451.042C1227.26 448.524 1227.26 444.44 1232.17 441.922L1273.56 420.718C1278.47 418.2 1278.47 414.117 1273.56 411.598L1196.9 372.321" stroke="#797C81"/>
<path d="M1199.12 373.461C1197.89 374.091 1195.9 374.091 1194.67 373.461C1193.44 372.831 1193.44 371.811 1194.67 371.181C1195.9 370.551 1197.89 370.551 1199.12 371.181C1200.35 371.811 1200.35 372.831 1199.12 373.461Z" fill="#797C81"/>
<path d="M1335.29 503.876C1334.06 504.506 1332.07 504.506 1330.84 503.876C1329.61 503.246 1329.61 502.226 1330.84 501.596C1332.07 500.966 1334.06 500.966 1335.29 501.596C1336.52 502.226 1336.52 503.246 1335.29 503.876Z" fill="#797C81"/>
<g filter="url(#filter0_dd_150_24654)">
<path d="M1268.1 465.8C1270.76 467.163 1270.68 469.677 1273.16 471.13L1279.22 474.692L1278.33 475.148L1271.38 472.04C1268.54 470.773 1263.64 470.811 1260.98 469.448C1258.32 468.088 1258.37 465.577 1255.87 464.139L1248.07 459.645L1248.96 459.189L1257.74 463.186C1260.54 464.465 1265.44 464.44 1268.1 465.8Z" fill="url(#paint0_radial_150_24654)" shape-rendering="crispEdges"/>
</g>
<path d="M1286.79 527.36L1143.5 453.945C1138.58 451.426 1138.58 447.343 1143.5 444.825L1184.88 423.621C1189.8 421.102 1189.8 417.019 1184.88 414.501L1149.73 396.489" stroke="#797C81"/>
<path d="M1151.95 397.629C1150.73 398.259 1148.73 398.259 1147.5 397.629C1146.28 396.999 1146.28 395.979 1147.5 395.349C1148.73 394.719 1150.73 394.719 1151.95 395.349C1153.18 395.979 1153.18 396.999 1151.95 397.629Z" fill="#797C81"/>
<path d="M1288.12 528.044C1286.89 528.674 1284.9 528.674 1283.67 528.044C1282.44 527.414 1282.44 526.394 1283.67 525.764C1284.9 525.134 1286.89 525.134 1288.12 525.764C1289.35 526.394 1289.35 527.414 1288.12 528.044Z" fill="#797C81"/>
<g filter="url(#filter1_dd_150_24654)">
<path d="M1220.93 489.968C1223.59 491.331 1223.51 493.845 1225.99 495.297L1232.05 498.86L1231.16 499.316L1224.21 496.208C1221.37 494.941 1216.47 494.979 1213.81 493.616C1211.15 492.255 1211.2 489.745 1208.71 488.307L1200.9 483.812L1201.79 483.356L1210.57 487.354C1213.37 488.632 1218.27 488.608 1220.93 489.968Z" fill="url(#paint1_radial_150_24654)" shape-rendering="crispEdges"/>
</g>
<path d="M1389.13 658.687L911.659 903.329C906.744 905.848 906.744 909.931 911.659 912.449L992.202 953.717" stroke="#797C81"/>
<path d="M1390.47 660.283C1389.24 660.913 1387.25 660.913 1386.02 660.283C1384.79 659.653 1384.79 658.633 1386.02 658.003C1387.25 657.373 1389.24 657.373 1390.47 658.003C1391.7 658.633 1391.7 659.653 1390.47 660.283Z" fill="#797C81"/>
<path d="M993.537 954.401C992.309 955.03 990.316 955.03 989.088 954.401C987.859 953.771 987.859 952.75 989.088 952.121C990.316 951.491 992.309 951.491 993.537 952.121C994.766 952.75 994.766 953.771 993.537 954.401Z" fill="#797C81"/>
<g filter="url(#filter2_dd_150_24654)">
<path d="M951.264 929.093C953.924 930.456 953.849 932.97 956.323 934.422L962.389 937.985L961.499 938.441L954.545 935.333C951.71 934.066 946.804 934.104 944.144 932.741C941.488 931.38 941.537 928.87 939.041 927.432L931.239 922.937L932.129 922.481L940.902 926.478C943.708 927.757 948.608 927.732 951.264 929.093Z" fill="url(#paint2_radial_150_24654)" shape-rendering="crispEdges"/>
</g>
<path d="M1341.97 634.519L821.771 901.049C816.856 903.567 816.856 907.651 821.771 910.169L949.483 975.604" stroke="#797C81"/>
<path d="M1343.3 636.115C1342.07 636.745 1340.08 636.745 1338.85 636.115C1337.62 635.485 1337.62 634.465 1338.85 633.835C1340.08 633.205 1342.07 633.205 1343.3 633.835C1344.53 634.465 1344.53 635.485 1343.3 636.115Z" fill="#797C81"/>
<path d="M950.819 976.288C949.59 976.918 947.598 976.918 946.369 976.288C945.14 975.659 945.14 974.638 946.369 974.008C947.598 973.379 949.59 973.379 950.819 974.008C952.048 974.638 952.048 975.659 950.819 976.288Z" fill="#797C81"/>
<g filter="url(#filter3_dd_150_24654)">
<path d="M882.735 937.757C885.395 939.12 885.321 941.634 887.794 943.086L893.86 946.649L892.97 947.105L886.016 943.997C883.181 942.729 878.275 942.768 875.615 941.405C872.959 940.044 873.008 937.533 870.512 936.095L862.71 931.601L863.6 931.145L872.373 935.142C875.179 936.421 880.079 936.396 882.735 937.757Z" fill="url(#paint3_radial_150_24654)" shape-rendering="crispEdges"/>
</g>
<g filter="url(#filter4_dd_150_24654)">
<path d="M1117.69 794.118C1120.35 792.755 1125.26 792.793 1128.09 791.526L1135.04 788.418L1135.93 788.874L1129.87 792.437C1127.4 793.889 1127.47 796.403 1124.81 797.766C1122.15 799.127 1117.25 799.102 1114.45 800.381L1105.68 804.378L1104.79 803.922L1112.59 799.427C1115.08 797.989 1115.03 795.479 1117.69 794.118Z" fill="url(#paint4_radial_150_24654)" shape-rendering="crispEdges"/>
</g>
<g filter="url(#filter5_dd_150_24654)">
<path d="M1133.71 737.574C1136.37 736.211 1141.28 736.25 1144.11 734.982L1151.06 731.874L1151.95 732.33L1145.89 735.893C1143.41 737.346 1143.49 739.859 1140.83 741.222C1138.17 742.583 1133.27 742.558 1130.47 743.837L1121.69 747.834L1120.8 747.378L1128.61 742.884C1131.1 741.446 1131.05 738.935 1133.71 737.574Z" fill="url(#paint5_radial_150_24654)" shape-rendering="crispEdges"/>
</g>
<rect width="248" height="254" rx="19" transform="matrix(0.889982 -0.455997 0.889982 0.455996 793.292 1054.72)" stroke="#797C81"/>
<rect width="258" height="258" rx="19" transform="matrix(0.889982 -0.455997 0.889982 0.455996 172.085 675.331)" stroke="#797C81"/>
<path d="M823.106 1040.36L581.346 916.486C576.431 913.968 576.431 909.885 581.346 907.366L652.99 870.659C657.905 868.14 657.905 864.057 652.99 861.539L460.439 762.882" stroke="#797C81"/>
<path d="M462.664 764.022C461.435 764.652 459.443 764.652 458.214 764.022C456.985 763.392 456.985 762.372 458.214 761.742C459.443 761.112 461.435 761.112 462.664 761.742C463.893 762.372 463.893 763.392 462.664 764.022Z" fill="#797C81"/>
<path d="M824.441 1041.04C823.212 1041.67 821.22 1041.67 819.991 1041.04C818.763 1040.41 818.763 1039.39 819.991 1038.76C821.22 1038.13 823.212 1038.13 824.441 1038.76C825.67 1039.39 825.67 1040.41 824.441 1041.04Z" fill="#797C81"/>
<g filter="url(#filter6_dd_150_24654)">
<path d="M630.871 938.213C633.531 939.576 633.456 942.09 635.929 943.542L641.996 947.105L641.106 947.561L634.152 944.453C631.317 943.186 626.411 943.224 623.751 941.861C621.095 940.5 621.144 937.989 618.648 936.552L610.846 932.057L611.736 931.601L620.509 935.598C623.315 936.877 628.215 936.852 630.871 938.213Z" fill="url(#paint6_radial_150_24654)" shape-rendering="crispEdges"/>
</g>
<path d="M508.053 613.087L660.996 534.724C665.912 532.206 673.881 532.206 678.796 534.724L720.18 555.928C725.095 558.446 733.064 558.446 737.98 555.928L859.15 493.844" stroke="#797C81"/>
<path d="M856.925 494.984C855.696 494.355 855.696 493.334 856.925 492.704C858.154 492.075 860.146 492.075 861.375 492.704C862.604 493.334 862.604 494.355 861.375 494.984C860.146 495.614 858.154 495.614 856.925 494.984Z" fill="#797C81"/>
<path d="M506.718 613.771C505.489 613.142 505.489 612.121 506.718 611.491C507.947 610.862 509.939 610.862 511.168 611.491C512.396 612.121 512.396 613.142 511.168 613.771C509.939 614.401 507.947 614.401 506.718 613.771Z" fill="#797C81"/>
<g filter="url(#filter7_dd_150_24654)">
<path d="M627.31 555.632C624.65 556.995 619.744 556.956 616.909 558.224L609.956 561.332L609.066 560.876L615.132 557.313C617.605 555.861 617.53 553.347 620.191 551.984C622.846 550.623 627.746 550.648 630.553 549.369L639.325 545.372L640.215 545.828L632.414 550.323C629.918 551.76 629.966 554.271 627.31 555.632Z" fill="url(#paint7_radial_150_24654)"/>
</g>
<g filter="url(#filter8_dd_150_24654)">
<path d="M621.08 551.528C623.74 550.165 628.647 550.203 631.482 548.936L638.435 545.828L639.325 546.284L633.259 549.846C630.786 551.299 630.86 553.813 628.2 555.176C625.544 556.536 620.644 556.511 617.838 557.79L609.065 561.788L608.175 561.332L615.977 556.837C618.473 555.399 618.425 552.888 621.08 551.528Z" fill="url(#paint8_radial_150_24654)" shape-rendering="crispEdges"/>
</g>
<rect width="320" height="320" rx="19" transform="matrix(0.889982 -0.455997 0.889982 0.455996 -526.977 590.172)" stroke="#797C81"/>
<rect width="123" height="320" rx="19" transform="matrix(0.889982 -0.455997 0.889982 0.455996 125.38 325.238)" stroke="#797C81"/>
<path d="M-83.321 526.561L77.6933 444.063C82.6086 441.544 90.5777 441.544 95.493 444.063L136.877 465.266C141.792 467.785 149.762 467.785 154.677 465.266L277.122 402.53" stroke="#797C81"/>
<path d="M274.452 403.898C273.223 403.268 273.223 402.247 274.452 401.618C275.68 400.988 277.673 400.988 278.902 401.618C280.13 402.247 280.13 403.268 278.902 403.898C277.673 404.527 275.68 404.527 274.452 403.898Z" fill="#797C81"/>
<g filter="url(#filter9_dd_150_24654)">
<path d="M36.8263 461.353C39.4866 459.99 44.3926 460.029 47.2276 458.761L54.1809 455.653L55.0709 456.109L49.0049 459.672C46.5317 461.125 46.6064 463.638 43.9462 465.001C41.2905 466.362 36.3904 466.337 33.5839 467.616L24.8116 471.613L23.9216 471.157L31.7232 466.663C34.2191 465.225 34.1706 462.714 36.8263 461.353Z" fill="url(#paint9_radial_150_24654)" shape-rendering="crispEdges"/>
</g>
<path d="M-130.49 502.393L94.2395 387.249C99.1548 384.731 107.124 384.731 112.039 387.249L153.423 408.453C158.339 410.971 166.308 410.971 171.223 408.453L229.953 378.362" stroke="#797C81"/>
<path d="M227.283 379.73C226.054 379.1 226.054 378.079 227.283 377.45C228.511 376.82 230.504 376.82 231.733 377.45C232.961 378.079 232.961 379.1 231.733 379.73C230.504 380.359 228.511 380.359 227.283 379.73Z" fill="#797C81"/>
<g filter="url(#filter10_dd_150_24654)">
<path d="M-11.2323 437.641C-8.57204 436.278 -3.66595 436.317 -0.830979 435.05L6.12236 431.941L7.01234 432.397L0.946293 435.96C-1.52691 437.413 -1.45219 439.926 -4.11243 441.289C-6.76811 442.65 -11.6682 442.625 -14.4746 443.904L-23.247 447.901L-24.137 447.445L-16.3354 442.951C-13.8395 441.513 -13.888 439.002 -11.2323 437.641Z" fill="url(#paint10_radial_150_24654)"/>
</g>
<defs>
<filter id="filter0_dd_150_24654" x="1236.07" y="447.188" width="55.1494" height="39.96" filterUnits="userSpaceOnUse" color-interpolation-filters="sRGB">
<feFlood flood-opacity="0" result="BackgroundImageFix"/>
<feColorMatrix in="SourceAlpha" type="matrix" values="0 0 0 0 0 0 0 0 0 0 0 0 0 0 0 0 0 0 127 0" result="hardAlpha"/>
<feOffset/>
<feGaussianBlur stdDeviation="6"/>
<feComposite in2="hardAlpha" operator="out"/>
<feColorMatrix type="matrix" values="0 0 0 0 1 0 0 0 0 0.63 0 0 0 0 0.075 0 0 0 1 0"/>
<feBlend mode="normal" in2="BackgroundImageFix" result="effect1_dropShadow_150_24654"/>
<feColorMatrix in="SourceAlpha" type="matrix" values="0 0 0 0 0 0 0 0 0 0 0 0 0 0 0 0 0 0 127 0" result="hardAlpha"/>
<feOffset/>
<feGaussianBlur stdDeviation="6"/>
<feComposite in2="hardAlpha" operator="out"/>
<feColorMatrix type="matrix" values="0 0 0 0 1 0 0 0 0 0.63 0 0 0 0 0.075 0 0 0 1 0"/>
<feBlend mode="normal" in2="effect1_dropShadow_150_24654" result="effect2_dropShadow_150_24654"/>
<feBlend mode="normal" in="SourceGraphic" in2="effect2_dropShadow_150_24654" result="shape"/>
</filter>
<filter id="filter1_dd_150_24654" x="1188.9" y="471.356" width="55.1494" height="39.96" filterUnits="userSpaceOnUse" color-interpolation-filters="sRGB">
<feFlood flood-opacity="0" result="BackgroundImageFix"/>
<feColorMatrix in="SourceAlpha" type="matrix" values="0 0 0 0 0 0 0 0 0 0 0 0 0 0 0 0 0 0 127 0" result="hardAlpha"/>
<feOffset/>
<feGaussianBlur stdDeviation="6"/>
<feComposite in2="hardAlpha" operator="out"/>
<feColorMatrix type="matrix" values="0 0 0 0 1 0 0 0 0 0.63 0 0 0 0 0.075 0 0 0 1 0"/>
<feBlend mode="normal" in2="BackgroundImageFix" result="effect1_dropShadow_150_24654"/>
<feColorMatrix in="SourceAlpha" type="matrix" values="0 0 0 0 0 0 0 0 0 0 0 0 0 0 0 0 0 0 127 0" result="hardAlpha"/>
<feOffset/>
<feGaussianBlur stdDeviation="6"/>
<feComposite in2="hardAlpha" operator="out"/>
<feColorMatrix type="matrix" values="0 0 0 0 1 0 0 0 0 0.63 0 0 0 0 0.075 0 0 0 1 0"/>
<feBlend mode="normal" in2="effect1_dropShadow_150_24654" result="effect2_dropShadow_150_24654"/>
<feBlend mode="normal" in="SourceGraphic" in2="effect2_dropShadow_150_24654" result="shape"/>
</filter>
<filter id="filter2_dd_150_24654" x="919.239" y="910.481" width="55.1494" height="39.96" filterUnits="userSpaceOnUse" color-interpolation-filters="sRGB">
<feFlood flood-opacity="0" result="BackgroundImageFix"/>
<feColorMatrix in="SourceAlpha" type="matrix" values="0 0 0 0 0 0 0 0 0 0 0 0 0 0 0 0 0 0 127 0" result="hardAlpha"/>
<feOffset/>
<feGaussianBlur stdDeviation="6"/>
<feComposite in2="hardAlpha" operator="out"/>
<feColorMatrix type="matrix" values="0 0 0 0 1 0 0 0 0 0.63 0 0 0 0 0.075 0 0 0 1 0"/>
<feBlend mode="normal" in2="BackgroundImageFix" result="effect1_dropShadow_150_24654"/>
<feColorMatrix in="SourceAlpha" type="matrix" values="0 0 0 0 0 0 0 0 0 0 0 0 0 0 0 0 0 0 127 0" result="hardAlpha"/>
<feOffset/>
<feGaussianBlur stdDeviation="6"/>
<feComposite in2="hardAlpha" operator="out"/>
<feColorMatrix type="matrix" values="0 0 0 0 1 0 0 0 0 0.63 0 0 0 0 0.075 0 0 0 1 0"/>
<feBlend mode="normal" in2="effect1_dropShadow_150_24654" result="effect2_dropShadow_150_24654"/>
<feBlend mode="normal" in="SourceGraphic" in2="effect2_dropShadow_150_24654" result="shape"/>
</filter>
<filter id="filter3_dd_150_24654" x="850.71" y="919.145" width="55.1494" height="39.96" filterUnits="userSpaceOnUse" color-interpolation-filters="sRGB">
<feFlood flood-opacity="0" result="BackgroundImageFix"/>
<feColorMatrix in="SourceAlpha" type="matrix" values="0 0 0 0 0 0 0 0 0 0 0 0 0 0 0 0 0 0 127 0" result="hardAlpha"/>
<feOffset/>
<feGaussianBlur stdDeviation="6"/>
<feComposite in2="hardAlpha" operator="out"/>
<feColorMatrix type="matrix" values="0 0 0 0 1 0 0 0 0 0.63 0 0 0 0 0.075 0 0 0 1 0"/>
<feBlend mode="normal" in2="BackgroundImageFix" result="effect1_dropShadow_150_24654"/>
<feColorMatrix in="SourceAlpha" type="matrix" values="0 0 0 0 0 0 0 0 0 0 0 0 0 0 0 0 0 0 127 0" result="hardAlpha"/>
<feOffset/>
<feGaussianBlur stdDeviation="6"/>
<feComposite in2="hardAlpha" operator="out"/>
<feColorMatrix type="matrix" values="0 0 0 0 1 0 0 0 0 0.63 0 0 0 0 0.075 0 0 0 1 0"/>
<feBlend mode="normal" in2="effect1_dropShadow_150_24654" result="effect2_dropShadow_150_24654"/>
<feBlend mode="normal" in="SourceGraphic" in2="effect2_dropShadow_150_24654" result="shape"/>
</filter>
<filter id="filter4_dd_150_24654" x="1092.79" y="776.418" width="55.1494" height="39.96" filterUnits="userSpaceOnUse" color-interpolation-filters="sRGB">
<feFlood flood-opacity="0" result="BackgroundImageFix"/>
<feColorMatrix in="SourceAlpha" type="matrix" values="0 0 0 0 0 0 0 0 0 0 0 0 0 0 0 0 0 0 127 0" result="hardAlpha"/>
<feOffset/>
<feGaussianBlur stdDeviation="6"/>
<feComposite in2="hardAlpha" operator="out"/>
<feColorMatrix type="matrix" values="0 0 0 0 1 0 0 0 0 0.63 0 0 0 0 0.075 0 0 0 1 0"/>
<feBlend mode="normal" in2="BackgroundImageFix" result="effect1_dropShadow_150_24654"/>
<feColorMatrix in="SourceAlpha" type="matrix" values="0 0 0 0 0 0 0 0 0 0 0 0 0 0 0 0 0 0 127 0" result="hardAlpha"/>
<feOffset/>
<feGaussianBlur stdDeviation="6"/>
<feComposite in2="hardAlpha" operator="out"/>
<feColorMatrix type="matrix" values="0 0 0 0 1 0 0 0 0 0.63 0 0 0 0 0.075 0 0 0 1 0"/>
<feBlend mode="normal" in2="effect1_dropShadow_150_24654" result="effect2_dropShadow_150_24654"/>
<feBlend mode="normal" in="SourceGraphic" in2="effect2_dropShadow_150_24654" result="shape"/>
</filter>
<filter id="filter5_dd_150_24654" x="1108.8" y="719.874" width="55.1494" height="39.96" filterUnits="userSpaceOnUse" color-interpolation-filters="sRGB">
<feFlood flood-opacity="0" result="BackgroundImageFix"/>
<feColorMatrix in="SourceAlpha" type="matrix" values="0 0 0 0 0 0 0 0 0 0 0 0 0 0 0 0 0 0 127 0" result="hardAlpha"/>
<feOffset/>
<feGaussianBlur stdDeviation="6"/>
<feComposite in2="hardAlpha" operator="out"/>
<feColorMatrix type="matrix" values="0 0 0 0 1 0 0 0 0 0.63 0 0 0 0 0.075 0 0 0 1 0"/>
<feBlend mode="normal" in2="BackgroundImageFix" result="effect1_dropShadow_150_24654"/>
<feColorMatrix in="SourceAlpha" type="matrix" values="0 0 0 0 0 0 0 0 0 0 0 0 0 0 0 0 0 0 127 0" result="hardAlpha"/>
<feOffset/>
<feGaussianBlur stdDeviation="6"/>
<feComposite in2="hardAlpha" operator="out"/>
<feColorMatrix type="matrix" values="0 0 0 0 1 0 0 0 0 0.63 0 0 0 0 0.075 0 0 0 1 0"/>
<feBlend mode="normal" in2="effect1_dropShadow_150_24654" result="effect2_dropShadow_150_24654"/>
<feBlend mode="normal" in="SourceGraphic" in2="effect2_dropShadow_150_24654" result="shape"/>
</filter>
<filter id="filter6_dd_150_24654" x="598.846" y="919.601" width="55.1494" height="39.96" filterUnits="userSpaceOnUse" color-interpolation-filters="sRGB">
<feFlood flood-opacity="0" result="BackgroundImageFix"/>
<feColorMatrix in="SourceAlpha" type="matrix" values="0 0 0 0 0 0 0 0 0 0 0 0 0 0 0 0 0 0 127 0" result="hardAlpha"/>
<feOffset/>
<feGaussianBlur stdDeviation="6"/>
<feComposite in2="hardAlpha" operator="out"/>
<feColorMatrix type="matrix" values="0 0 0 0 1 0 0 0 0 0.63 0 0 0 0 0.075 0 0 0 1 0"/>
<feBlend mode="normal" in2="BackgroundImageFix" result="effect1_dropShadow_150_24654"/>
<feColorMatrix in="SourceAlpha" type="matrix" values="0 0 0 0 0 0 0 0 0 0 0 0 0 0 0 0 0 0 127 0" result="hardAlpha"/>
<feOffset/>
<feGaussianBlur stdDeviation="6"/>
<feComposite in2="hardAlpha" operator="out"/>
<feColorMatrix type="matrix" values="0 0 0 0 1 0 0 0 0 0.63 0 0 0 0 0.075 0 0 0 1 0"/>
<feBlend mode="normal" in2="effect1_dropShadow_150_24654" result="effect2_dropShadow_150_24654"/>
<feBlend mode="normal" in="SourceGraphic" in2="effect2_dropShadow_150_24654" result="shape"/>
</filter>
<filter id="filter7_dd_150_24654" x="597.066" y="533.372" width="55.1494" height="39.96" filterUnits="userSpaceOnUse" color-interpolation-filters="sRGB">
<feFlood flood-opacity="0" result="BackgroundImageFix"/>
<feColorMatrix in="SourceAlpha" type="matrix" values="0 0 0 0 0 0 0 0 0 0 0 0 0 0 0 0 0 0 127 0" result="hardAlpha"/>
<feOffset/>
<feGaussianBlur stdDeviation="6"/>
<feComposite in2="hardAlpha" operator="out"/>
<feColorMatrix type="matrix" values="0 0 0 0 1 0 0 0 0 0.63 0 0 0 0 0.075 0 0 0 1 0"/>
<feBlend mode="normal" in2="BackgroundImageFix" result="effect1_dropShadow_150_24654"/>
<feColorMatrix in="SourceAlpha" type="matrix" values="0 0 0 0 0 0 0 0 0 0 0 0 0 0 0 0 0 0 127 0" result="hardAlpha"/>
<feOffset/>
<feGaussianBlur stdDeviation="6"/>
<feComposite in2="hardAlpha" operator="out"/>
<feColorMatrix type="matrix" values="0 0 0 0 1 0 0 0 0 0.63 0 0 0 0 0.075 0 0 0 1 0"/>
<feBlend mode="normal" in2="effect1_dropShadow_150_24654" result="effect2_dropShadow_150_24654"/>
<feBlend mode="normal" in="SourceGraphic" in2="effect2_dropShadow_150_24654" result="shape"/>
</filter>
<filter id="filter8_dd_150_24654" x="596.175" y="533.828" width="55.1494" height="39.96" filterUnits="userSpaceOnUse" color-interpolation-filters="sRGB">
<feFlood flood-opacity="0" result="BackgroundImageFix"/>
<feColorMatrix in="SourceAlpha" type="matrix" values="0 0 0 0 0 0 0 0 0 0 0 0 0 0 0 0 0 0 127 0" result="hardAlpha"/>
<feOffset/>
<feGaussianBlur stdDeviation="6"/>
<feComposite in2="hardAlpha" operator="out"/>
<feColorMatrix type="matrix" values="0 0 0 0 1 0 0 0 0 0.63 0 0 0 0 0.075 0 0 0 1 0"/>
<feBlend mode="normal" in2="BackgroundImageFix" result="effect1_dropShadow_150_24654"/>
<feColorMatrix in="SourceAlpha" type="matrix" values="0 0 0 0 0 0 0 0 0 0 0 0 0 0 0 0 0 0 127 0" result="hardAlpha"/>
<feOffset/>
<feGaussianBlur stdDeviation="6"/>
<feComposite in2="hardAlpha" operator="out"/>
<feColorMatrix type="matrix" values="0 0 0 0 1 0 0 0 0 0.63 0 0 0 0 0.075 0 0 0 1 0"/>
<feBlend mode="normal" in2="effect1_dropShadow_150_24654" result="effect2_dropShadow_150_24654"/>
<feBlend mode="normal" in="SourceGraphic" in2="effect2_dropShadow_150_24654" result="shape"/>
</filter>
<filter id="filter9_dd_150_24654" x="11.9214" y="443.653" width="55.1494" height="39.96" filterUnits="userSpaceOnUse" color-interpolation-filters="sRGB">
<feFlood flood-opacity="0" result="BackgroundImageFix"/>
<feColorMatrix in="SourceAlpha" type="matrix" values="0 0 0 0 0 0 0 0 0 0 0 0 0 0 0 0 0 0 127 0" result="hardAlpha"/>
<feOffset/>
<feGaussianBlur stdDeviation="6"/>
<feComposite in2="hardAlpha" operator="out"/>
<feColorMatrix type="matrix" values="0 0 0 0 1 0 0 0 0 0.63 0 0 0 0 0.075 0 0 0 1 0"/>
<feBlend mode="normal" in2="BackgroundImageFix" result="effect1_dropShadow_150_24654"/>
<feColorMatrix in="SourceAlpha" type="matrix" values="0 0 0 0 0 0 0 0 0 0 0 0 0 0 0 0 0 0 127 0" result="hardAlpha"/>
<feOffset/>
<feGaussianBlur stdDeviation="6"/>
<feComposite in2="hardAlpha" operator="out"/>
<feColorMatrix type="matrix" values="0 0 0 0 1 0 0 0 0 0.63 0 0 0 0 0.075 0 0 0 1 0"/>
<feBlend mode="normal" in2="effect1_dropShadow_150_24654" result="effect2_dropShadow_150_24654"/>
<feBlend mode="normal" in="SourceGraphic" in2="effect2_dropShadow_150_24654" result="shape"/>
</filter>
<filter id="filter10_dd_150_24654" x="-36.1372" y="419.941" width="55.1494" height="39.96" filterUnits="userSpaceOnUse" color-interpolation-filters="sRGB">
<feFlood flood-opacity="0" result="BackgroundImageFix"/>
<feColorMatrix in="SourceAlpha" type="matrix" values="0 0 0 0 0 0 0 0 0 0 0 0 0 0 0 0 0 0 127 0" result="hardAlpha"/>
<feOffset/>
<feGaussianBlur stdDeviation="6"/>
<feComposite in2="hardAlpha" operator="out"/>
<feColorMatrix type="matrix" values="0 0 0 0 1 0 0 0 0 0.63 0 0 0 0 0.075 0 0 0 1 0"/>
<feBlend mode="normal" in2="BackgroundImageFix" result="effect1_dropShadow_150_24654"/>
<feColorMatrix in="SourceAlpha" type="matrix" values="0 0 0 0 0 0 0 0 0 0 0 0 0 0 0 0 0 0 127 0" result="hardAlpha"/>
<feOffset/>
<feGaussianBlur stdDeviation="6"/>
<feComposite in2="hardAlpha" operator="out"/>
<feColorMatrix type="matrix" values="0 0 0 0 1 0 0 0 0 0.63 0 0 0 0 0.075 0 0 0 1 0"/>
<feBlend mode="normal" in2="effect1_dropShadow_150_24654" result="effect2_dropShadow_150_24654"/>
<feBlend mode="normal" in="SourceGraphic" in2="effect2_dropShadow_150_24654" result="shape"/>
</filter>
<radialGradient id="paint0_radial_150_24654" cx="0" cy="0" r="1" gradientUnits="userSpaceOnUse" gradientTransform="translate(1264.54 467.624) rotate(27.1291) scale(15.5 8.5024)">
<stop stop-color="#FFB546"/>
<stop offset="0.291667" stop-color="#FFA113"/>
<stop offset="1" stop-color="#E99B25" stop-opacity="0"/>
</radialGradient>
<radialGradient id="paint1_radial_150_24654" cx="0" cy="0" r="1" gradientUnits="userSpaceOnUse" gradientTransform="translate(1217.37 491.792) rotate(27.1291) scale(15.5 8.5024)">
<stop stop-color="#FFB546"/>
<stop offset="0.291667" stop-color="#FFA113"/>
<stop offset="1" stop-color="#E99B25" stop-opacity="0"/>
</radialGradient>
<radialGradient id="paint2_radial_150_24654" cx="0" cy="0" r="1" gradientUnits="userSpaceOnUse" gradientTransform="translate(947.704 930.917) rotate(27.1291) scale(15.5 8.5024)">
<stop stop-color="#FFB546"/>
<stop offset="0.291667" stop-color="#FFA113"/>
<stop offset="1" stop-color="#E99B25" stop-opacity="0"/>
</radialGradient>
<radialGradient id="paint3_radial_150_24654" cx="0" cy="0" r="1" gradientUnits="userSpaceOnUse" gradientTransform="translate(879.175 939.581) rotate(27.1291) scale(15.5 8.5024)">
<stop stop-color="#FFB546"/>
<stop offset="0.291667" stop-color="#FFA113"/>
<stop offset="1" stop-color="#E99B25" stop-opacity="0"/>
</radialGradient>
<radialGradient id="paint4_radial_150_24654" cx="0" cy="0" r="1" gradientUnits="userSpaceOnUse" gradientTransform="translate(1121.25 795.942) rotate(-27.1291) scale(15.5 8.5024)">
<stop stop-color="#FFB546"/>
<stop offset="0.291667" stop-color="#FFA113"/>
<stop offset="1" stop-color="#E99B25" stop-opacity="0"/>
</radialGradient>
<radialGradient id="paint5_radial_150_24654" cx="0" cy="0" r="1" gradientUnits="userSpaceOnUse" gradientTransform="translate(1137.27 739.398) rotate(-27.1291) scale(15.5 8.5024)">
<stop stop-color="#FFB546"/>
<stop offset="0.291667" stop-color="#FFA113"/>
<stop offset="1" stop-color="#E99B25" stop-opacity="0"/>
</radialGradient>
<radialGradient id="paint6_radial_150_24654" cx="0" cy="0" r="1" gradientUnits="userSpaceOnUse" gradientTransform="translate(627.311 940.037) rotate(27.1291) scale(15.5 8.5024)">
<stop stop-color="#FFB546"/>
<stop offset="0.291667" stop-color="#FFA113"/>
<stop offset="1" stop-color="#E99B25" stop-opacity="0"/>
</radialGradient>
<radialGradient id="paint7_radial_150_24654" cx="0" cy="0" r="1" gradientUnits="userSpaceOnUse" gradientTransform="translate(623.75 553.808) rotate(152.871) scale(15.5 8.5024)">
<stop stop-color="#FFB546"/>
<stop offset="0.291667" stop-color="#FFA113"/>
<stop offset="1" stop-color="#797C81"/>
</radialGradient>
<radialGradient id="paint8_radial_150_24654" cx="0" cy="0" r="1" gradientUnits="userSpaceOnUse" gradientTransform="translate(624.64 553.352) rotate(-27.1291) scale(15.5 8.5024)">
<stop stop-color="#FFB546"/>
<stop offset="0.291667" stop-color="#FFA113"/>
<stop offset="1" stop-color="#E99B25" stop-opacity="0"/>
</radialGradient>
<radialGradient id="paint9_radial_150_24654" cx="0" cy="0" r="1" gradientUnits="userSpaceOnUse" gradientTransform="translate(40.3862 463.177) rotate(-27.1291) scale(15.5 8.5024)">
<stop stop-color="#FFB546"/>
<stop offset="0.291667" stop-color="#FFA113"/>
<stop offset="1" stop-color="#E99B25" stop-opacity="0"/>
</radialGradient>
<radialGradient id="paint10_radial_150_24654" cx="0" cy="0" r="1" gradientUnits="userSpaceOnUse" gradientTransform="translate(-7.67236 439.465) rotate(-27.1291) scale(15.5 8.5024)">
<stop stop-color="#FFB546"/>
<stop offset="0.291667" stop-color="#FFA113"/>
<stop offset="1" stop-color="#797C81"/>
</radialGradient>
</defs>
</svg>
