<?xml version="1.0" standalone="no"?>
<!DOCTYPE svg PUBLIC "-//W3C//DTD SVG 20010904//EN"
 "http://www.w3.org/TR/2001/REC-SVG-20010904/DTD/svg10.dtd">
<svg version="1.0" xmlns="http://www.w3.org/2000/svg"
 width="96.000000pt" height="96.000000pt" viewBox="0 0 96.000000 96.000000"
 preserveAspectRatio="xMidYMid meet">
<metadata>
Created by potrace 1.14, written by Peter Selinger 2001-2017
</metadata>
<g transform="translate(0.000000,96.000000) scale(0.100000,-0.100000)"
fill="#000000" stroke="none">
<path d="M635 823 c-95 -26 -124 -146 -54 -219 18 -19 38 -34 44 -34 19 0 12
-190 -8 -221 -20 -30 -56 -49 -95 -49 -38 0 -54 -13 -50 -41 3 -22 7 -24 64
-24 51 0 66 4 98 29 58 43 76 93 76 207 0 93 1 96 26 109 81 44 89 167 14 222
-27 20 -82 30 -115 21z m83 -91 c6 -9 12 -25 12 -36 -1 -61 -81 -81 -110 -27
-33 62 54 118 98 63z"/>
<path d="M355 714 c-81 -42 -104 -94 -105 -225 0 -93 -1 -96 -26 -109 -72 -39
-89 -154 -31 -208 99 -93 251 -6 222 128 -7 34 -43 75 -73 84 -17 6 -19 16
-18 104 2 73 6 103 19 123 20 30 56 49 95 49 38 0 54 13 50 41 -3 21 -9 24
-53 27 -31 1 -61 -4 -80 -14z m-19 -419 c32 -48 -16 -106 -70 -85 -44 17 -47
88 -4 107 30 13 56 5 74 -22z"/>
</g>
</svg>
