<svg width="25" height="24" viewBox="0 0 25 24" fill="none" xmlns="http://www.w3.org/2000/svg">
<path d="M8.6665 13L12.8942 16.3821C13.3221 16.7245 13.9458 16.6586 14.2928 16.2345L22.6665 6" stroke="#FFB546" stroke-width="2" stroke-linecap="round"/>
<path fill-rule="evenodd" clip-rule="evenodd" d="M11.8558 12.2368L16.4405 6.63327C16.7902 6.20582 16.7272 5.5758 16.2998 5.22607C15.8724 4.87635 15.2423 4.93935 14.8926 5.36679L10.3193 10.9564L11.8558 12.2368ZM8.68948 16.1068L7.15298 14.8263L6.49965 15.6248L3.26656 13.2C2.82473 12.8687 2.19793 12.9582 1.86656 13.4C1.53519 13.8419 1.62474 14.4687 2.06656 14.8L5.29965 17.2248C6.15704 17.8679 7.36891 17.7208 8.04757 16.8913L8.68948 16.1068Z" fill="#FFB546"/>
</svg>
