<svg width="25" height="24" viewBox="0 0 25 24" fill="none" xmlns="http://www.w3.org/2000/svg">
<path d="M6.125 7C6.125 6.44772 6.57272 6 7.125 6H15.125C16.7819 6 18.125 7.34315 18.125 9V17C18.125 17.5523 17.6773 18 17.125 18H7.125C6.57272 18 6.125 17.5523 6.125 17V7Z" stroke="#FFA113" stroke-width="2"/>
<path d="M9.125 6V2" stroke="#FFA113" stroke-width="2"/>
<path d="M9.125 22V18" stroke="#FFA113" stroke-width="2"/>
<path d="M15.125 22V18" stroke="#FFA113" stroke-width="2"/>
<path d="M22.125 15L18.125 15" stroke="#FFA113" stroke-width="2"/>
<path d="M6.125 15L2.125 15" stroke="#FFA113" stroke-width="2"/>
<path d="M6.125 9L2.125 9" stroke="#FFA113" stroke-width="2"/>
<path d="M15.125 3V3C16.9888 3 17.9206 3 18.6557 3.30448C19.6358 3.71046 20.4145 4.48915 20.8205 5.46927C21.125 6.20435 21.125 7.13623 21.125 9V9" stroke="#FFA113" stroke-width="2"/>
</svg>
