<svg width="25" height="24" viewBox="0 0 25 24" fill="none" xmlns="http://www.w3.org/2000/svg">
<path d="M18.875 5H19.875V4H18.875V5ZM21.9049 11.7575L21.6623 12.7276L21.6623 12.7276L21.9049 11.7575ZM20.3899 11.3787L20.6325 10.4086H20.6325L20.3899 11.3787ZM20.3899 12.6213L20.6325 13.5914H20.6325L20.3899 12.6213ZM21.9049 12.2425L22.1474 13.2127H22.1474L21.9049 12.2425ZM18.875 4H14.875V6H18.875V4ZM14.875 20H16.875V18H14.875V20ZM22.1474 10.7873L20.6325 10.4086L20.1474 12.3489L21.6623 12.7276L22.1474 10.7873ZM19.875 9.43845V5H17.875V9.43845H19.875ZM19.875 17V14.5616H17.875V17H19.875ZM20.6325 13.5914L22.1474 13.2127L21.6623 11.2724L20.1474 11.6511L20.6325 13.5914ZM19.875 14.5616C19.875 14.1027 20.1873 13.7027 20.6325 13.5914L20.1474 11.6511C18.8119 11.985 17.875 13.185 17.875 14.5616H19.875ZM20.6325 10.4086C20.1873 10.2973 19.875 9.89732 19.875 9.43845H17.875C17.875 10.815 18.8119 12.015 20.1474 12.3489L20.6325 10.4086ZM21.6623 12.7276C20.9049 12.5382 20.9049 11.4618 21.6623 11.2724L22.1474 13.2127C23.4098 12.8971 23.4098 11.1029 22.1474 10.7873L21.6623 12.7276ZM16.875 20C18.5319 20 19.875 18.6569 19.875 17H17.875C17.875 17.5523 17.4273 18 16.875 18V20Z" fill="#FFA113"/>
<path d="M6.875 19H5.875V20H6.875V19ZM3.84514 12.2425L4.08768 11.2724L4.08768 11.2724L3.84514 12.2425ZM5.36007 12.6213L5.11754 13.5914H5.11754L5.36007 12.6213ZM5.36007 11.3787L5.11754 10.4086H5.11754L5.36007 11.3787ZM3.84514 11.7575L3.60261 10.7873H3.60261L3.84514 11.7575ZM6.875 20H10.875V18H6.875V20ZM10.875 4H8.875V6H10.875V4ZM3.60261 13.2127L5.11754 13.5914L5.60261 11.6511L4.08768 11.2724L3.60261 13.2127ZM5.875 14.5616V19H7.875V14.5616H5.875ZM5.875 7V9.43845H7.875V7H5.875ZM5.11754 10.4086L3.60261 10.7873L4.08768 12.7276L5.60261 12.3489L5.11754 10.4086ZM5.875 9.43845C5.875 9.89731 5.5627 10.2973 5.11754 10.4086L5.60261 12.3489C6.93811 12.015 7.875 10.815 7.875 9.43845H5.875ZM5.11754 13.5914C5.5627 13.7027 5.875 14.1027 5.875 14.5616H7.875C7.875 13.185 6.93811 11.985 5.60261 11.6511L5.11754 13.5914ZM4.08768 11.2724C4.84514 11.4618 4.84515 12.5382 4.08768 12.7276L3.60261 10.7873C2.34016 11.1029 2.34017 12.8971 3.60261 13.2127L4.08768 11.2724ZM8.875 4C7.21815 4 5.875 5.34315 5.875 7H7.875C7.875 6.44772 8.32272 6 8.875 6V4Z" fill="#FFA113"/>
</svg>
