<svg width="25" height="24" viewBox="0 0 25 24" fill="none" xmlns="http://www.w3.org/2000/svg">
<rect x="6.625" y="13" width="4" height="4" rx="2" transform="rotate(90 6.625 13)" stroke="#FFA113" stroke-width="2"/>
<rect x="17.625" y="12" width="4" height="4" rx="2" transform="rotate(-90 17.625 12)" stroke="#FFA113" stroke-width="2"/>
<path d="M18.625 11L17.125 12.5C16.1079 13.5171 15.5994 14.0256 14.9878 14.1384C14.7479 14.1826 14.5021 14.1826 14.2622 14.1384C13.6506 14.0256 13.1421 13.5171 12.125 12.5V12.5C11.1079 11.4829 10.5994 10.9744 9.98777 10.8616C9.74795 10.8174 9.50205 10.8174 9.26223 10.8616C8.65058 10.9744 8.14205 11.4829 7.125 12.5L5.625 14" stroke="#FFA113" stroke-width="2"/>
</svg>
