<svg width="24" height="25" viewBox="0 0 24 25" fill="none" xmlns="http://www.w3.org/2000/svg">
<path d="M4 13.5001C4 11.6144 4 10.6716 4.58579 10.0858C5.17157 9.50006 6.11438 9.50006 8 9.50006H16C17.8856 9.50006 18.8284 9.50006 19.4142 10.0858C20 10.6716 20 11.6144 20 13.5001V15.5001C20 18.3285 20 19.7427 19.1213 20.6214C18.2426 21.5001 16.8284 21.5001 14 21.5001H10C7.17157 21.5001 5.75736 21.5001 4.87868 20.6214C4 19.7427 4 18.3285 4 15.5001V13.5001Z" stroke="white" stroke-width="2"/>
<path d="M16 8.50006V7.50006C16 5.29092 14.2091 3.50006 12 3.50006V3.50006C9.79086 3.50006 8 5.29092 8 7.50006V8.50006" stroke="white" stroke-width="2" stroke-linecap="round"/>
<circle cx="12" cy="15.5001" r="2" fill="white"/>
</svg>
