<svg width="25" height="24" viewBox="0 0 25 24" fill="none" xmlns="http://www.w3.org/2000/svg">
<path d="M21.625 13H22.625H21.625ZM20.4567 6.99084L19.5128 6.66056L20.4567 6.99084ZM18.6158 8.83165L18.2856 7.88777L18.6158 8.83165ZM15.9179 16.7071L15.2108 17.4142L15.9179 16.7071ZM15.9179 13.2929L15.2108 12.5858L15.9179 13.2929ZM21.3321 9.29289L22.0392 8.58579L21.3321 9.29289ZM19.625 21V22V21ZM21.3321 20.7071L20.625 20L21.3321 20.7071ZM7.62501 21V22V21ZM4.21079 20.4142L3.50369 21.1213L4.21079 20.4142ZM20.2901 4.02806L20.6204 3.08418L20.2901 4.02806ZM20.5969 4.33486L21.5408 4.00458L20.5969 4.33486ZM6.12501 5L19.9107 5V3L6.12501 3L6.12501 5ZM7.62501 22L19.625 22V20L7.62501 20V22ZM2.62501 6.5L2.62501 17H4.62501L4.62501 6.5H2.62501ZM19.625 8L6.12501 8V10L19.625 10L19.625 8ZM20.625 17V19H22.625L22.625 17H20.625ZM20.625 11L20.625 13H22.625L22.625 11H20.625ZM17.625 18H21.625V16H17.625V18ZM20.625 13L20.625 17H22.625L22.625 13H20.625ZM21.625 12H17.625V14H21.625V12ZM16.3393 8L15.625 8V10L16.3393 10V8ZM19.625 4.71428C19.625 5.99493 19.6109 6.38024 19.5128 6.66056L21.4005 7.32112C21.6391 6.6392 21.625 5.82755 21.625 4.71428H19.625ZM16.3393 10C17.4526 10 18.2642 10.0141 18.9461 9.77553L18.2856 7.88777C18.0052 7.98585 17.6199 8 16.3393 8V10ZM19.5128 6.66056C19.3117 7.23505 18.8601 7.68674 18.2856 7.88777L18.9461 9.77553C20.0951 9.37348 20.9985 8.4701 21.4005 7.32112L19.5128 6.66056ZM14.625 15C14.625 15.4431 14.6229 15.8761 14.6705 16.2305C14.722 16.6137 14.8476 17.051 15.2108 17.4142L16.625 16C16.6953 16.0703 16.6744 16.1254 16.6527 15.964C16.6271 15.7738 16.625 15.4997 16.625 15H14.625ZM17.625 16C17.1253 16 16.8512 15.9979 16.661 15.9723C16.4996 15.9506 16.5547 15.9297 16.625 16L15.2108 17.4142C15.574 17.7774 16.0113 17.903 16.3945 17.9545C16.7489 18.0021 17.1819 18 17.625 18V16ZM16.625 15C16.625 14.5003 16.6271 14.2262 16.6527 14.036C16.6744 13.8746 16.6953 13.9297 16.625 14L15.2108 12.5858C14.8476 12.949 14.722 13.3863 14.6705 13.7695C14.6229 14.1239 14.625 14.5569 14.625 15H16.625ZM17.625 12C17.1819 12 16.7489 11.9979 16.3945 12.0455C16.0113 12.097 15.574 12.2226 15.2108 12.5858L16.625 14C16.5547 14.0703 16.4996 14.0494 16.661 14.0277C16.8512 14.0021 17.1253 14 17.625 14V12ZM19.625 10C20.1247 10 20.3988 10.0021 20.589 10.0277C20.7504 10.0494 20.6953 10.0703 20.625 10L22.0392 8.58579C21.676 8.22257 21.2387 8.09705 20.8555 8.04553C20.5011 7.99788 20.0681 8 19.625 8L19.625 10ZM22.625 11C22.625 10.5569 22.6271 10.1239 22.5795 9.76948C22.528 9.38628 22.4024 8.949 22.0392 8.58579L20.625 10C20.5547 9.92968 20.5756 9.87455 20.5973 10.036C20.6229 10.2262 20.625 10.5003 20.625 11H22.625ZM19.625 22C20.0681 22 20.5011 22.0021 20.8555 21.9545C21.2387 21.903 21.676 21.7774 22.0392 21.4142L20.625 20C20.6953 19.9297 20.7504 19.9506 20.589 19.9723C20.3988 19.9979 20.1247 20 19.625 20V22ZM20.625 19C20.625 19.4997 20.6229 19.7738 20.5973 19.964C20.5756 20.1254 20.5547 20.0703 20.625 20L22.0392 21.4142C22.4024 21.051 22.528 20.6137 22.5795 20.2305C22.6271 19.8761 22.625 19.4431 22.625 19H20.625ZM7.62501 20C6.65393 20 6.02622 19.9979 5.56371 19.9357C5.12997 19.8774 4.99402 19.7832 4.9179 19.7071L3.50369 21.1213C4.01335 21.631 4.6417 21.8297 5.29722 21.9179C5.92397 22.0021 6.71047 22 7.62501 22V20ZM2.62501 17C2.62501 17.9145 2.62288 18.701 2.70715 19.3278C2.79528 19.9833 2.99402 20.6117 3.50369 21.1213L4.9179 19.7071C4.84178 19.631 4.74763 19.495 4.68931 19.0613C4.62713 18.5988 4.62501 17.9711 4.62501 17H2.62501ZM2.62501 6.5C2.62501 8.433 4.19201 10 6.12501 10V8C5.29658 8 4.62501 7.32843 4.62501 6.5H2.62501ZM19.9107 5C19.9622 5 19.9997 5.00001 20.0315 5.00037C20.0633 5.00073 20.0793 5.00136 20.0867 5.0018C20.0938 5.00221 20.0828 5.00191 20.0612 4.99831C20.0376 4.99439 20.0021 4.98673 19.9599 4.97194L20.6204 3.08418C20.3394 2.98586 20.0265 3 19.9107 3V5ZM21.625 4.71428C21.625 4.59849 21.6391 4.28557 21.5408 4.00458L19.6531 4.66514C19.6383 4.62287 19.6306 4.58742 19.6267 4.56385C19.6231 4.54218 19.6228 4.53118 19.6232 4.53829C19.6236 4.54567 19.6243 4.56166 19.6246 4.59346C19.625 4.62528 19.625 4.66277 19.625 4.71428H21.625ZM19.9599 4.97194C19.8162 4.92169 19.7033 4.80876 19.6531 4.66514L21.5408 4.00458C21.3901 3.57371 21.0513 3.23494 20.6204 3.08418L19.9599 4.97194ZM4.62501 6.5C4.62501 5.67157 5.29658 5 6.12501 5L6.12501 3C4.19201 3 2.62501 4.567 2.62501 6.5H4.62501Z" fill="#FFA113"/>
</svg>
