<svg width="970" height="827" viewBox="0 0 360 827" fill="none" xmlns="http://www.w3.org/2000/svg">
<rect width="205.857" height="205.857" rx="12.2228" transform="matrix(0.889982 -0.455997 0.889982 0.455996 293.303 364.755)" stroke="#797C81" stroke-width="0.643303"/>
<path d="M4.17637 284.671C-1.8314 281.593 -1.8314 276.602 4.17637 273.524L232.043 156.773C238.05 153.695 247.791 153.695 253.799 156.773L339.964 200.921C345.972 204 345.972 208.99 339.964 212.069L112.098 328.819C106.09 331.898 96.3496 331.898 90.3418 328.819L4.17637 284.671Z" stroke="#797C81" stroke-width="0.643303"/>
<path d="M374.316 323.833L308.839 290.285C305.677 288.665 305.677 286.038 308.839 284.418L335.461 270.778C338.623 269.158 338.623 266.531 335.461 264.911L286.146 239.644" stroke="#797C81" stroke-width="0.643303"/>
<path d="M287.578 240.377C286.787 240.782 285.506 240.782 284.715 240.377C283.925 239.972 283.925 239.315 284.715 238.91C285.506 238.505 286.787 238.505 287.578 238.91C288.368 239.315 288.368 239.972 287.578 240.377Z" fill="#797C81"/>
<g filter="url(#filter0_dd_142_18758)">
<path d="M331.949 299.778C333.66 300.655 333.612 302.272 335.203 303.207L339.105 305.498L338.533 305.792L334.06 303.792C332.236 302.977 329.08 303.002 327.368 302.125C325.66 301.25 325.691 299.635 324.086 298.71L319.067 295.818L319.639 295.525L325.283 298.096C327.088 298.919 330.24 298.903 331.949 299.778Z" fill="url(#paint0_radial_142_18758)" shape-rendering="crispEdges"/>
</g>
<path d="M343.972 339.38L251.795 292.152C248.633 290.532 248.633 287.905 251.795 286.285L278.417 272.644C281.579 271.024 281.579 268.398 278.417 266.778L255.802 255.19" stroke="#797C81" stroke-width="0.643303"/>
<path d="M257.234 255.924C256.443 256.329 255.161 256.329 254.371 255.924C253.58 255.519 253.58 254.862 254.371 254.457C255.161 254.052 256.443 254.052 257.234 254.457C258.024 254.862 258.024 255.519 257.234 255.924Z" fill="#797C81"/>
<path d="M344.831 339.82C344.04 340.225 342.759 340.225 341.968 339.82C341.178 339.415 341.178 338.759 341.968 338.353C342.759 337.948 344.04 337.948 344.831 338.353C345.621 338.759 345.621 339.415 344.831 339.82Z" fill="#797C81"/>
<g filter="url(#filter1_dd_142_18758)">
<path d="M301.605 315.326C303.316 316.203 303.268 317.82 304.859 318.754L308.761 321.046L308.189 321.34L303.716 319.34C301.892 318.525 298.736 318.55 297.025 317.673C295.316 316.798 295.347 315.182 293.742 314.257L288.723 311.366L289.295 311.073L294.939 313.644C296.744 314.467 299.896 314.451 301.605 315.326Z" fill="url(#paint1_radial_142_18758)" shape-rendering="crispEdges"/>
</g>
<path d="M409.812 423.863L102.651 581.242C99.4887 582.862 99.4887 585.489 102.651 587.109L154.464 613.657" stroke="#797C81" stroke-width="0.643303"/>
<path d="M155.323 614.097C154.533 614.502 153.251 614.502 152.461 614.097C151.67 613.692 151.67 613.035 152.461 612.63C153.251 612.225 154.533 612.225 155.323 612.63C156.114 613.035 156.114 613.692 155.323 614.097Z" fill="#797C81"/>
<g filter="url(#filter2_dd_142_18758)">
<path d="M128.129 597.815C129.84 598.692 129.792 600.309 131.383 601.244L135.285 603.536L134.713 603.829L130.24 601.829C128.416 601.014 125.26 601.039 123.549 600.162C121.84 599.287 121.871 597.672 120.266 596.747L115.247 593.855L115.819 593.562L121.463 596.133C123.268 596.956 126.42 596.94 128.129 597.815Z" fill="url(#paint2_radial_142_18758)" shape-rendering="crispEdges"/>
</g>
<path d="M379.468 408.316L44.8257 579.776C41.6637 581.396 41.6637 584.023 44.8256 585.643L126.983 627.738" stroke="#797C81" stroke-width="0.643303"/>
<path d="M127.842 628.178C127.052 628.583 125.77 628.583 124.98 628.178C124.189 627.773 124.189 627.116 124.98 626.711C125.77 626.306 127.052 626.306 127.842 626.711C128.633 627.116 128.633 627.773 127.842 628.178Z" fill="#797C81"/>
<g filter="url(#filter3_dd_142_18758)">
<path d="M84.0438 603.39C85.7551 604.266 85.7071 605.883 87.2981 606.818L91.2004 609.11L90.6279 609.403L86.1548 607.404C84.331 606.589 81.1749 606.613 79.4636 605.736C77.7552 604.861 77.7863 603.246 76.1807 602.321L71.1619 599.429L71.7344 599.136L77.3777 601.708C79.1831 602.53 82.3354 602.514 84.0438 603.39Z" fill="url(#paint3_radial_142_18758)" shape-rendering="crispEdges"/>
</g>
<g filter="url(#filter4_dd_142_18758)">
<path d="M235.191 510.986C236.903 510.11 240.059 510.134 241.882 509.319L246.356 507.32L246.928 507.613L243.026 509.905C241.435 510.839 241.483 512.456 239.771 513.333C238.063 514.208 234.911 514.193 233.105 515.015L227.462 517.587L226.89 517.293L231.908 514.402C233.514 513.477 233.483 511.862 235.191 510.986Z" fill="url(#paint4_radial_142_18758)" shape-rendering="crispEdges"/>
</g>
<g filter="url(#filter5_dd_142_18758)">
<path d="M245.497 474.611C247.208 473.735 250.364 473.759 252.188 472.944L256.661 470.945L257.234 471.238L253.331 473.53C251.74 474.464 251.788 476.081 250.077 476.958C248.369 477.833 245.216 477.818 243.411 478.64L237.768 481.212L237.195 480.918L242.214 478.027C243.82 477.102 243.789 475.487 245.497 474.611Z" fill="url(#paint5_radial_142_18758)" shape-rendering="crispEdges"/>
</g>
<rect width="159.539" height="163.399" rx="12.2228" transform="matrix(0.889982 -0.455997 0.889982 0.455996 26.5049 678.633)" stroke="#797C81" stroke-width="0.643303"/>
<path d="M45.6845 669.392L-109.841 589.707C-113.003 588.087 -113.003 585.46 -109.841 583.84L-63.752 560.226C-60.5901 558.605 -60.5901 555.979 -63.752 554.359L-187.621 490.893" stroke="#797C81" stroke-width="0.643303"/>
<path d="M46.5431 669.832C45.7526 670.237 44.471 670.237 43.6805 669.832C42.89 669.427 42.89 668.77 43.6805 668.365C44.471 667.96 45.7526 667.96 46.5431 668.365C47.3336 668.77 47.3336 669.427 46.5431 669.832Z" fill="#797C81"/>
<path d="M-156.99 394.529L-58.6011 344.118C-55.4391 342.497 -50.3125 342.497 -47.1505 344.118L-20.528 357.758C-17.366 359.378 -12.2394 359.378 -9.07743 357.758L68.8721 317.819" stroke="#797C81" stroke-width="0.643303"/>
<path d="M67.4404 318.553C66.6499 318.148 66.6499 317.491 67.4404 317.086C68.2309 316.681 69.5126 316.681 70.3031 317.086C71.0936 317.491 71.0936 318.148 70.3031 318.553C69.5126 318.958 68.2309 318.958 67.4404 318.553Z" fill="#797C81"/>
<defs>
<filter id="filter0_dd_142_18758" x="311.347" y="287.805" width="35.4774" height="25.7069" filterUnits="userSpaceOnUse" color-interpolation-filters="sRGB">
<feFlood flood-opacity="0" result="BackgroundImageFix"/>
<feColorMatrix in="SourceAlpha" type="matrix" values="0 0 0 0 0 0 0 0 0 0 0 0 0 0 0 0 0 0 127 0" result="hardAlpha"/>
<feOffset/>
<feGaussianBlur stdDeviation="3.85982"/>
<feComposite in2="hardAlpha" operator="out"/>
<feColorMatrix type="matrix" values="0 0 0 0 1 0 0 0 0 0.63 0 0 0 0 0.075 0 0 0 1 0"/>
<feBlend mode="normal" in2="BackgroundImageFix" result="effect1_dropShadow_142_18758"/>
<feColorMatrix in="SourceAlpha" type="matrix" values="0 0 0 0 0 0 0 0 0 0 0 0 0 0 0 0 0 0 127 0" result="hardAlpha"/>
<feOffset/>
<feGaussianBlur stdDeviation="3.85982"/>
<feComposite in2="hardAlpha" operator="out"/>
<feColorMatrix type="matrix" values="0 0 0 0 1 0 0 0 0 0.63 0 0 0 0 0.075 0 0 0 1 0"/>
<feBlend mode="normal" in2="effect1_dropShadow_142_18758" result="effect2_dropShadow_142_18758"/>
<feBlend mode="normal" in="SourceGraphic" in2="effect2_dropShadow_142_18758" result="shape"/>
</filter>
<filter id="filter1_dd_142_18758" x="281.004" y="303.353" width="35.4774" height="25.7069" filterUnits="userSpaceOnUse" color-interpolation-filters="sRGB">
<feFlood flood-opacity="0" result="BackgroundImageFix"/>
<feColorMatrix in="SourceAlpha" type="matrix" values="0 0 0 0 0 0 0 0 0 0 0 0 0 0 0 0 0 0 127 0" result="hardAlpha"/>
<feOffset/>
<feGaussianBlur stdDeviation="3.85982"/>
<feComposite in2="hardAlpha" operator="out"/>
<feColorMatrix type="matrix" values="0 0 0 0 1 0 0 0 0 0.63 0 0 0 0 0.075 0 0 0 1 0"/>
<feBlend mode="normal" in2="BackgroundImageFix" result="effect1_dropShadow_142_18758"/>
<feColorMatrix in="SourceAlpha" type="matrix" values="0 0 0 0 0 0 0 0 0 0 0 0 0 0 0 0 0 0 127 0" result="hardAlpha"/>
<feOffset/>
<feGaussianBlur stdDeviation="3.85982"/>
<feComposite in2="hardAlpha" operator="out"/>
<feColorMatrix type="matrix" values="0 0 0 0 1 0 0 0 0 0.63 0 0 0 0 0.075 0 0 0 1 0"/>
<feBlend mode="normal" in2="effect1_dropShadow_142_18758" result="effect2_dropShadow_142_18758"/>
<feBlend mode="normal" in="SourceGraphic" in2="effect2_dropShadow_142_18758" result="shape"/>
</filter>
<filter id="filter2_dd_142_18758" x="107.527" y="585.842" width="35.4774" height="25.7069" filterUnits="userSpaceOnUse" color-interpolation-filters="sRGB">
<feFlood flood-opacity="0" result="BackgroundImageFix"/>
<feColorMatrix in="SourceAlpha" type="matrix" values="0 0 0 0 0 0 0 0 0 0 0 0 0 0 0 0 0 0 127 0" result="hardAlpha"/>
<feOffset/>
<feGaussianBlur stdDeviation="3.85982"/>
<feComposite in2="hardAlpha" operator="out"/>
<feColorMatrix type="matrix" values="0 0 0 0 1 0 0 0 0 0.63 0 0 0 0 0.075 0 0 0 1 0"/>
<feBlend mode="normal" in2="BackgroundImageFix" result="effect1_dropShadow_142_18758"/>
<feColorMatrix in="SourceAlpha" type="matrix" values="0 0 0 0 0 0 0 0 0 0 0 0 0 0 0 0 0 0 127 0" result="hardAlpha"/>
<feOffset/>
<feGaussianBlur stdDeviation="3.85982"/>
<feComposite in2="hardAlpha" operator="out"/>
<feColorMatrix type="matrix" values="0 0 0 0 1 0 0 0 0 0.63 0 0 0 0 0.075 0 0 0 1 0"/>
<feBlend mode="normal" in2="effect1_dropShadow_142_18758" result="effect2_dropShadow_142_18758"/>
<feBlend mode="normal" in="SourceGraphic" in2="effect2_dropShadow_142_18758" result="shape"/>
</filter>
<filter id="filter3_dd_142_18758" x="63.4425" y="591.416" width="35.4774" height="25.7069" filterUnits="userSpaceOnUse" color-interpolation-filters="sRGB">
<feFlood flood-opacity="0" result="BackgroundImageFix"/>
<feColorMatrix in="SourceAlpha" type="matrix" values="0 0 0 0 0 0 0 0 0 0 0 0 0 0 0 0 0 0 127 0" result="hardAlpha"/>
<feOffset/>
<feGaussianBlur stdDeviation="3.85982"/>
<feComposite in2="hardAlpha" operator="out"/>
<feColorMatrix type="matrix" values="0 0 0 0 1 0 0 0 0 0.63 0 0 0 0 0.075 0 0 0 1 0"/>
<feBlend mode="normal" in2="BackgroundImageFix" result="effect1_dropShadow_142_18758"/>
<feColorMatrix in="SourceAlpha" type="matrix" values="0 0 0 0 0 0 0 0 0 0 0 0 0 0 0 0 0 0 127 0" result="hardAlpha"/>
<feOffset/>
<feGaussianBlur stdDeviation="3.85982"/>
<feComposite in2="hardAlpha" operator="out"/>
<feColorMatrix type="matrix" values="0 0 0 0 1 0 0 0 0 0.63 0 0 0 0 0.075 0 0 0 1 0"/>
<feBlend mode="normal" in2="effect1_dropShadow_142_18758" result="effect2_dropShadow_142_18758"/>
<feBlend mode="normal" in="SourceGraphic" in2="effect2_dropShadow_142_18758" result="shape"/>
</filter>
<filter id="filter4_dd_142_18758" x="219.17" y="499.6" width="35.4779" height="25.7069" filterUnits="userSpaceOnUse" color-interpolation-filters="sRGB">
<feFlood flood-opacity="0" result="BackgroundImageFix"/>
<feColorMatrix in="SourceAlpha" type="matrix" values="0 0 0 0 0 0 0 0 0 0 0 0 0 0 0 0 0 0 127 0" result="hardAlpha"/>
<feOffset/>
<feGaussianBlur stdDeviation="3.85982"/>
<feComposite in2="hardAlpha" operator="out"/>
<feColorMatrix type="matrix" values="0 0 0 0 1 0 0 0 0 0.63 0 0 0 0 0.075 0 0 0 1 0"/>
<feBlend mode="normal" in2="BackgroundImageFix" result="effect1_dropShadow_142_18758"/>
<feColorMatrix in="SourceAlpha" type="matrix" values="0 0 0 0 0 0 0 0 0 0 0 0 0 0 0 0 0 0 127 0" result="hardAlpha"/>
<feOffset/>
<feGaussianBlur stdDeviation="3.85982"/>
<feComposite in2="hardAlpha" operator="out"/>
<feColorMatrix type="matrix" values="0 0 0 0 1 0 0 0 0 0.63 0 0 0 0 0.075 0 0 0 1 0"/>
<feBlend mode="normal" in2="effect1_dropShadow_142_18758" result="effect2_dropShadow_142_18758"/>
<feBlend mode="normal" in="SourceGraphic" in2="effect2_dropShadow_142_18758" result="shape"/>
</filter>
<filter id="filter5_dd_142_18758" x="229.476" y="463.225" width="35.4779" height="25.7069" filterUnits="userSpaceOnUse" color-interpolation-filters="sRGB">
<feFlood flood-opacity="0" result="BackgroundImageFix"/>
<feColorMatrix in="SourceAlpha" type="matrix" values="0 0 0 0 0 0 0 0 0 0 0 0 0 0 0 0 0 0 127 0" result="hardAlpha"/>
<feOffset/>
<feGaussianBlur stdDeviation="3.85982"/>
<feComposite in2="hardAlpha" operator="out"/>
<feColorMatrix type="matrix" values="0 0 0 0 1 0 0 0 0 0.63 0 0 0 0 0.075 0 0 0 1 0"/>
<feBlend mode="normal" in2="BackgroundImageFix" result="effect1_dropShadow_142_18758"/>
<feColorMatrix in="SourceAlpha" type="matrix" values="0 0 0 0 0 0 0 0 0 0 0 0 0 0 0 0 0 0 127 0" result="hardAlpha"/>
<feOffset/>
<feGaussianBlur stdDeviation="3.85982"/>
<feComposite in2="hardAlpha" operator="out"/>
<feColorMatrix type="matrix" values="0 0 0 0 1 0 0 0 0 0.63 0 0 0 0 0.075 0 0 0 1 0"/>
<feBlend mode="normal" in2="effect1_dropShadow_142_18758" result="effect2_dropShadow_142_18758"/>
<feBlend mode="normal" in="SourceGraphic" in2="effect2_dropShadow_142_18758" result="shape"/>
</filter>
<radialGradient id="paint0_radial_142_18758" cx="0" cy="0" r="1" gradientUnits="userSpaceOnUse" gradientTransform="translate(329.658 300.952) rotate(27.1291) scale(9.9712 5.46962)">
<stop stop-color="#FFB546"/>
<stop offset="0.291667" stop-color="#FFA113"/>
<stop offset="1" stop-color="#E99B25" stop-opacity="0"/>
</radialGradient>
<radialGradient id="paint1_radial_142_18758" cx="0" cy="0" r="1" gradientUnits="userSpaceOnUse" gradientTransform="translate(299.315 316.499) rotate(27.1291) scale(9.9712 5.46962)">
<stop stop-color="#FFB546"/>
<stop offset="0.291667" stop-color="#FFA113"/>
<stop offset="1" stop-color="#E99B25" stop-opacity="0"/>
</radialGradient>
<radialGradient id="paint2_radial_142_18758" cx="0" cy="0" r="1" gradientUnits="userSpaceOnUse" gradientTransform="translate(125.839 598.989) rotate(27.1291) scale(9.9712 5.46962)">
<stop stop-color="#FFB546"/>
<stop offset="0.291667" stop-color="#FFA113"/>
<stop offset="1" stop-color="#E99B25" stop-opacity="0"/>
</radialGradient>
<radialGradient id="paint3_radial_142_18758" cx="0" cy="0" r="1" gradientUnits="userSpaceOnUse" gradientTransform="translate(81.7537 604.563) rotate(27.1291) scale(9.9712 5.46962)">
<stop stop-color="#FFB546"/>
<stop offset="0.291667" stop-color="#FFA113"/>
<stop offset="1" stop-color="#E99B25" stop-opacity="0"/>
</radialGradient>
<radialGradient id="paint4_radial_142_18758" cx="0" cy="0" r="1" gradientUnits="userSpaceOnUse" gradientTransform="translate(237.481 512.16) rotate(-27.1291) scale(9.9712 5.46962)">
<stop stop-color="#FFB546"/>
<stop offset="0.291667" stop-color="#FFA113"/>
<stop offset="1" stop-color="#E99B25" stop-opacity="0"/>
</radialGradient>
<radialGradient id="paint5_radial_142_18758" cx="0" cy="0" r="1" gradientUnits="userSpaceOnUse" gradientTransform="translate(247.787 475.785) rotate(-27.1291) scale(9.9712 5.46962)">
<stop stop-color="#FFB546"/>
<stop offset="0.291667" stop-color="#FFA113"/>
<stop offset="1" stop-color="#E99B25" stop-opacity="0"/>
</radialGradient>
</defs>
</svg>
