<svg width="465" height="389" viewBox="0 0 465 389" fill="none" xmlns="http://www.w3.org/2000/svg">
<path d="M206.426 180.477V88.0923L176.833 73.3499V165.735L206.426 180.477Z" fill="#FF9900"/>
<path d="M58.9923 253.924L206.426 180.477L176.832 165.735L29.3989 239.182L58.9923 253.924Z" fill="#FF9900"/>
<path d="M29.3989 146.797V239.182L58.9923 224.439L176.832 165.735V102.835V73.3499L108.414 107.433L87.7691 97.1077L29.3989 126.186V146.797Z" fill="#AF7112"/>
<path d="M58.9922 253.924L206.425 180.477V88.0923L176.832 102.835L58.9922 161.539V224.439V253.924Z" fill="#FFB950"/>
<path d="M108.886 107.635L176.832 73.7859L205.432 88.0337L211.216 85.1525L176.832 68.0234L103.102 104.753L108.886 107.635Z" fill="#FFDEAB"/>
<path d="M59.1056 253.987L29.435 239.206V126.175L87.769 97.1146L81.9853 94.2333L23.6514 123.293V242.087L59.1056 259.749V253.987Z" fill="#FFDEAB"/>
<path d="M57.9761 131.634V232.894L155.974 183.521V82.2612L57.9761 131.634Z" fill="#FF00E5"/>
<path d="M34.7256 147.395V248.654L168.8 189.88V88.6208L34.7256 147.395Z" fill="#AF121B"/>
<path d="M64.7695 140.648V241.907L191.629 178.71V77.4504L64.7695 140.648Z" fill="#FFC4AA"/>
<path d="M59.106 160.929V253.987V259.749L64.8896 262.631V163.81L217 88.0336L211.216 85.1523L205.433 88.0336L59.106 160.929Z" fill="#FFDEAB"/>
<path d="M64.8896 163.81V262.631L217 186.854V88.0337L64.8896 163.81Z" fill="#FF9900"/>
<path d="M44.8265 75.4777C65.4454 68.7236 69.828 61.596 74.2357 47.2962L29.4094 58.9921C30.7573 72.3295 19.9154 77.6999 0.000200264 87.1736L44.8265 75.4777Z" fill="#6A12AF"/>
<path d="M124.395 175.187L114.858 179.961L115.613 197.432L109.857 200.313L109.102 182.842L99.5647 187.616L99.4097 184.026L124.24 171.598L124.395 175.187Z" fill="white"/>
<path d="M137.354 165.034L145.084 169.105L152.101 157.653L158.403 154.499L148.529 170.35L158.977 175.727L152.675 178.882L145.336 174.919L138.6 185.927L132.256 189.102L141.807 173.715L131.01 168.21L137.354 165.034Z" fill="white"/>
<path d="M190.173 142.264L180.636 147.037L181.391 164.509L175.635 167.39L174.88 149.918L165.343 154.692L165.188 151.103L190.018 138.675L190.173 142.264Z" fill="white"/>
<path d="M266.726 215.246V122.861L237.132 108.119V200.504L266.726 215.246Z" fill="#FF9900"/>
<path d="M119.292 288.693L266.725 215.246L237.132 200.504L89.6987 273.95L119.292 288.693Z" fill="#FF9900"/>
<path d="M89.6987 181.565V273.951L119.292 259.208L237.132 200.504V137.604V108.119L168.714 142.202L148.069 131.877L89.6987 160.955V181.565Z" fill="#AF7112"/>
<path d="M119.292 288.693L266.725 215.246V122.861L237.132 137.604L119.292 196.308V259.208V288.693Z" fill="#FFB950"/>
<path d="M169.186 142.403L237.132 108.555L265.732 122.803L271.516 119.921L237.132 102.792L163.402 139.522L169.186 142.403Z" fill="#FFDEAB"/>
<path d="M119.405 288.756L89.7348 273.975V160.944L148.069 131.883L142.285 129.002L83.9512 158.062V276.856L119.405 294.518V288.756Z" fill="#FFDEAB"/>
<path d="M118.276 166.403V267.662L216.274 218.29V117.03L118.276 166.403Z" fill="#3300FF"/>
<path d="M95.0254 182.163V283.423L229.1 224.649V123.39L95.0254 182.163Z" fill="#7D12AF"/>
<path d="M125.069 175.417V276.676L251.929 213.479V112.219L125.069 175.417Z" fill="#F3AAFF"/>
<path d="M119.406 195.698V288.756V294.518L125.189 297.399V198.579L277.3 122.802L271.516 119.921L265.733 122.802L119.406 195.698Z" fill="#FFDEAB"/>
<path d="M125.189 198.579V297.399L277.3 221.623V122.802L125.189 198.579Z" fill="#FF9900"/>
<path d="M184.695 209.956L175.158 214.73L175.912 232.201L170.156 235.082L169.402 217.611L159.865 222.384L159.709 218.795L184.54 206.367L184.695 209.956Z" fill="white"/>
<path d="M197.654 199.803L205.384 203.874L212.401 192.422L218.703 189.267L208.829 205.119L219.277 210.496L212.975 213.651L205.635 209.687L198.9 220.695L192.556 223.871L202.107 208.484L191.31 202.978L197.654 199.803Z" fill="white"/>
<path d="M250.473 177.033L240.936 181.806L241.691 199.278L235.935 202.159L235.18 184.687L225.643 189.461L225.488 185.872L250.318 173.443L250.473 177.033Z" fill="white"/>
<path d="M331.495 247.87V155.485L301.902 140.743V233.128L331.495 247.87Z" fill="#FF9900"/>
<path d="M184.062 321.317L331.495 247.87L301.902 233.128L154.468 306.574L184.062 321.317Z" fill="#FF9900"/>
<path d="M154.468 214.189V306.575L184.062 291.832L301.902 233.128V170.228V140.743L233.484 174.826L212.838 164.501L154.468 193.579V214.189Z" fill="#AF7112"/>
<path d="M184.062 321.317L331.495 247.87V155.485L301.901 170.228L184.062 228.932V291.832V321.317Z" fill="#FFB950"/>
<path d="M233.955 175.027L301.901 141.179L330.502 155.427L336.285 152.545L301.901 135.416L228.172 172.146L233.955 175.027Z" fill="#FFDEAB"/>
<path d="M184.175 321.38L154.504 306.599V193.568L212.838 164.507L207.055 161.626L148.721 190.686V309.48L184.175 327.142V321.38Z" fill="#FFDEAB"/>
<path d="M183.045 199.027V300.286L281.043 250.914V149.654L183.045 199.027Z" fill="#00FFF0"/>
<path d="M159.795 214.787V316.047L293.869 257.273V156.014L159.795 214.787Z" fill="#12AFA6"/>
<path d="M189.839 208.041V309.3L316.698 246.103V144.843L189.839 208.041Z" fill="#AAFFFA"/>
<path d="M184.175 228.322V321.38V327.142L189.959 330.023V231.203L342.069 155.426L336.286 152.545L330.502 155.426L184.175 228.322Z" fill="#FFDEAB"/>
<path d="M189.959 231.203V330.023L342.069 254.247V155.427L189.959 231.203Z" fill="#FF9900"/>
<path d="M254.605 93.2713C232.459 106.742 232.58 117.301 238.75 137.561L289.431 112.313C276.296 94.5658 286.398 85.0232 305.287 68.0234L254.605 93.2713Z" fill="#AAFFFA"/>
<path d="M249.464 242.58L239.927 247.354L240.682 264.825L234.926 267.706L234.171 250.235L224.634 255.008L224.479 251.419L249.309 238.991L249.464 242.58Z" fill="black"/>
<path d="M262.424 232.427L270.154 236.498L277.17 225.046L283.473 221.892L273.598 237.743L284.046 243.12L277.744 246.275L270.405 242.311L263.669 253.319L257.325 256.495L266.876 241.108L256.079 235.602L262.424 232.427Z" fill="black"/>
<path d="M315.242 209.657L305.705 214.43L306.46 231.902L300.704 234.783L299.949 217.311L290.412 222.085L290.257 218.496L315.087 206.068L315.242 209.657Z" fill="black"/>
</svg>
