<svg width="322" height="110" viewBox="0 0 322 110" fill="none" xmlns="http://www.w3.org/2000/svg">
<g clip-path="url(#clip0_307_3037)">
<path d="M0.333496 15C0.333496 6.71573 7.04922 0 15.3335 0H306.667C314.951 0 321.667 6.71573 321.667 15V95C321.667 103.284 314.951 110 306.667 110H15.3335C7.04925 110 0.333496 103.284 0.333496 95V15Z" fill="#2B313A"/>
<rect width="60.5854" height="60.5854" rx="2.67818" transform="matrix(0.889982 -0.455997 0.889982 0.455996 208.28 34.0028)" stroke="#595D64"/>
<path d="M122.369 10.0147C121.053 9.34023 121.053 8.24669 122.369 7.57221L191.068 -27.6267C192.385 -28.3012 194.519 -28.3012 195.835 -27.6267L222.83 -13.7953C224.147 -13.1209 224.147 -12.0273 222.83 -11.3529L154.132 23.8461C152.815 24.5206 150.681 24.5206 149.364 23.8461L122.369 10.0147Z" stroke="#595D64"/>
<path d="M232.122 21.9594L212.421 11.8652C211.728 11.5103 211.728 10.9347 212.421 10.5797L221.118 6.12407C221.81 5.76908 221.81 5.19353 221.118 4.83855L206.173 -2.81836" stroke="#595D64"/>
<path d="M231.93 21.8608C231.943 21.8541 231.965 21.8541 231.978 21.8608C231.991 21.8675 231.991 21.8784 231.978 21.8851C231.965 21.8918 231.943 21.8918 231.93 21.8851C231.917 21.8784 231.917 21.8675 231.93 21.8608Z" fill="#EEEEEE" stroke="#595D64"/>
<g filter="url(#filter0_dd_307_3037)">
<path d="M219.527 14.9219C219.902 15.114 219.892 15.4683 220.24 15.6731L221.095 16.1752L220.97 16.2395L219.99 15.8014C219.59 15.6228 218.899 15.6282 218.524 15.4361C218.149 15.2443 218.156 14.8904 217.804 14.6877L216.705 14.0541L216.83 13.9899L218.067 14.5533C218.462 14.7336 219.153 14.7301 219.527 14.9219Z" fill="url(#paint0_radial_307_3037)" shape-rendering="crispEdges"/>
</g>
<path d="M223.192 26.535L195.633 12.4148C194.94 12.0598 194.94 11.4842 195.633 11.1293L204.329 6.67359C205.022 6.31861 205.022 5.74306 204.329 5.38807L197.243 1.75732" stroke="#595D64"/>
<path d="M197.219 1.74507C197.233 1.73835 197.254 1.73835 197.267 1.74507C197.28 1.75179 197.28 1.76268 197.267 1.7694C197.254 1.77611 197.233 1.77611 197.219 1.76939C197.206 1.76267 197.206 1.75178 197.219 1.74507Z" fill="#EEEEEE" stroke="#595D64"/>
<path d="M223 26.4365C223.013 26.4297 223.034 26.4297 223.047 26.4365C223.06 26.4432 223.06 26.4541 223.047 26.4608C223.034 26.4675 223.013 26.4675 223 26.4608C222.987 26.4541 222.987 26.4432 223 26.4365Z" fill="#EEEEEE" stroke="#595D64"/>
<g filter="url(#filter1_dd_307_3037)">
<path d="M210.597 19.4975C210.972 19.6897 210.961 20.044 211.31 20.2487L212.165 20.7509L212.04 20.8152L211.059 20.3771C210.66 20.1985 209.968 20.2039 209.593 20.0117C209.219 19.82 209.226 19.4661 208.874 19.2634L207.774 18.6298L207.9 18.5655L209.136 19.129C209.532 19.3092 210.223 19.3057 210.597 19.4975Z" fill="url(#paint1_radial_307_3037)" shape-rendering="crispEdges"/>
</g>
<path d="M242.419 51.366L151.28 98.0624C150.587 98.4174 150.587 98.9929 151.28 99.3479L167.526 107.672" stroke="#595D64"/>
<path d="M242.162 51.363C242.235 51.3258 242.352 51.3258 242.425 51.363C242.497 51.4001 242.497 51.4604 242.425 51.4976C242.352 51.5347 242.235 51.5347 242.162 51.4976C242.09 51.4604 242.09 51.4001 242.162 51.363Z" fill="#EEEEEE" stroke="#595D64"/>
<path d="M167.269 107.54C167.342 107.503 167.459 107.503 167.532 107.54C167.604 107.577 167.604 107.638 167.532 107.675C167.459 107.712 167.342 107.712 167.269 107.675C167.196 107.638 167.196 107.577 167.269 107.54Z" fill="#EEEEEE" stroke="#595D64"/>
<g filter="url(#filter2_dd_307_3037)">
<path d="M159.371 102.979C159.746 103.172 159.736 103.526 160.084 103.731L160.939 104.233L160.814 104.297L159.834 103.859C159.434 103.68 158.743 103.686 158.368 103.494C157.993 103.302 158 102.948 157.648 102.745L156.549 102.112L156.674 102.047L157.911 102.611C158.306 102.791 158.997 102.788 159.371 102.979Z" fill="url(#paint2_radial_307_3037)" shape-rendering="crispEdges"/>
</g>
<path d="M233.488 46.7903L134.195 97.6647C133.502 98.0197 133.502 98.5952 134.195 98.9502L159.348 111.838" stroke="#595D64"/>
<path d="M233.231 46.7873C233.304 46.7501 233.422 46.7501 233.494 46.7873C233.567 46.8244 233.567 46.8847 233.494 46.9219C233.422 46.9591 233.304 46.9591 233.231 46.9219C233.159 46.8847 233.159 46.8244 233.231 46.7873Z" fill="#EEEEEE" stroke="#595D64"/>
<g filter="url(#filter3_dd_307_3037)">
<path d="M146.301 104.639C146.676 104.831 146.666 105.185 147.014 105.39L147.869 105.892L147.744 105.956L146.764 105.518C146.364 105.34 145.672 105.345 145.297 105.153C144.923 104.961 144.93 104.607 144.578 104.404L143.478 103.771L143.604 103.707L144.84 104.27C145.236 104.45 145.927 104.447 146.301 104.639Z" fill="url(#paint3_radial_307_3037)" shape-rendering="crispEdges"/>
</g>
<g filter="url(#filter4_dd_307_3037)">
<path d="M191.259 77.1048C191.634 76.9126 192.325 76.918 192.725 76.7394L193.705 76.3013L193.83 76.3656L192.975 76.8678C192.627 77.0725 192.637 77.4268 192.262 77.619C191.888 77.8108 191.197 77.8073 190.802 77.9875L189.565 78.551L189.44 78.4867L190.539 77.8531C190.891 77.6504 190.884 77.2965 191.259 77.1048Z" fill="url(#paint4_radial_307_3037)" shape-rendering="crispEdges"/>
</g>
<g filter="url(#filter5_dd_307_3037)">
<path d="M194.292 66.3993C194.667 66.2072 195.358 66.2126 195.758 66.034L196.738 65.5959L196.863 65.6601L196.008 66.1623C195.66 66.3671 195.67 66.7214 195.295 66.9135C194.921 67.1053 194.23 67.1018 193.835 67.2821L192.598 67.8455L192.473 67.7812L193.572 67.1477C193.924 66.945 193.917 66.5911 194.292 66.3993Z" fill="url(#paint5_radial_307_3037)" shape-rendering="crispEdges"/>
</g>
<rect width="93.718" height="35.0259" rx="2.67818" transform="matrix(0.889982 -0.455997 0.889982 0.455996 121.839 130.955)" stroke="#595D64"/>
<rect width="48.847" height="48.847" rx="2.67818" transform="matrix(0.889982 -0.455997 0.889982 0.455996 12.1465 54.5502)" stroke="#595D64"/>
<path d="M135.549 124.057L89.0911 100.254C88.3982 99.8989 88.3982 99.3234 89.0911 98.9684L103.831 91.416C104.524 91.061 104.524 90.4854 103.831 90.1305L66.7402 71.1262" stroke="#595D64"/>
<path d="M66.6089 71.0589C66.6814 71.0217 66.799 71.0217 66.8716 71.0589C66.9442 71.0961 66.9442 71.1563 66.8716 71.1935C66.799 71.2307 66.6814 71.2307 66.6089 71.1935C66.5363 71.1563 66.5363 71.0961 66.6089 71.0589Z" fill="#EEEEEE" stroke="#595D64"/>
<path d="M75.4264 42.5253L104.775 27.4883C105.467 27.1333 106.591 27.1333 107.284 27.4883L116.379 32.1483C117.072 32.5033 118.195 32.5033 118.888 32.1483L142.228 20.1895" stroke="#595D64"/>
<path d="M142.359 20.1221C142.432 20.1593 142.432 20.2196 142.359 20.2568C142.287 20.2939 142.169 20.2939 142.096 20.2568C142.024 20.2196 142.024 20.1593 142.096 20.1221C142.169 20.085 142.287 20.085 142.359 20.1221Z" fill="#EEEEEE" stroke="#595D64"/>
<path d="M75.6828 42.3938C75.7554 42.4309 75.7554 42.4912 75.6828 42.5284C75.6103 42.5655 75.4926 42.5655 75.4201 42.5284C75.3475 42.4912 75.3475 42.4309 75.4201 42.3938C75.4926 42.3566 75.6103 42.3566 75.6828 42.3938Z" fill="#EEEEEE" stroke="#595D64"/>
<g filter="url(#filter6_dd_307_3037)">
<path d="M99.2614 30.8271C98.8865 31.0193 98.1949 31.0139 97.7953 31.1925L96.8152 31.6306L96.6897 31.5663L97.5448 31.0641C97.8934 30.8594 97.8829 30.5051 98.2579 30.3129C98.6322 30.1211 99.3229 30.1246 99.7185 29.9444L100.955 29.3809L101.08 29.4452L99.9808 30.0788C99.629 30.2814 99.6358 30.6353 99.2614 30.8271Z" fill="url(#paint6_radial_307_3037)"/>
</g>
<g filter="url(#filter7_dd_307_3037)">
<path d="M97.2361 31.1753C97.6111 30.9832 98.3026 30.9886 98.7022 30.81L99.6824 30.3719L99.8078 30.4361L98.9528 30.9383C98.6042 31.1431 98.6147 31.4974 98.2397 31.6895C97.8654 31.8813 97.1747 31.8778 96.7791 32.0581L95.5425 32.6215L95.4171 32.5572L96.5168 31.9237C96.8686 31.721 96.8618 31.3671 97.2361 31.1753Z" fill="url(#paint7_radial_307_3037)" shape-rendering="crispEdges"/>
</g>
<path d="M237.911 105.017V107.811C238.704 107.811 239.465 107.655 240.027 107.376L271.602 91.6888C272.504 91.2406 273.011 90.6318 273.011 89.997V87.5359L240.027 104.581C239.465 104.86 238.704 105.017 237.911 105.017Z" fill="#FFBC57"/>
<path d="M237.911 105.026V107.82C237.051 107.816 236.228 107.644 235.62 107.341L157.964 68.6359C156.722 68.0166 156.047 67.1885 156.047 66.3127V64.2159L235.62 104.547C236.228 104.85 237.051 105.022 237.911 105.026Z" fill="#FF9900"/>
<path d="M272.021 88.6878L240.303 104.497C238.982 105.155 236.84 105.155 235.519 104.497L157.04 65.3812C155.719 64.7227 155.719 63.6551 157.04 62.9966L188.758 47.1877C190.079 46.5292 192.221 46.5292 193.542 47.1877L272.021 86.3032C273.342 86.9617 273.342 88.0293 272.021 88.6878Z" fill="#FFD494"/>
<path d="M267.4 87.9394L238.802 102.193C238.141 102.523 237.07 102.523 236.41 102.193L161.767 64.9896C161.106 64.6603 161.106 64.1265 161.767 63.7973L190.365 49.5434C191.025 49.2142 192.096 49.2142 192.757 49.5434L267.4 86.7471C268.06 87.0763 268.06 87.6101 267.4 87.9394Z" fill="#FFD494"/>
<path d="M267.4 87.9393L238.802 102.193C238.141 102.522 237.07 102.522 236.41 102.193L161.767 64.9895C161.106 64.6602 161.106 64.1264 161.767 63.7972L190.365 49.5433C191.025 49.2141 192.096 49.2141 192.757 49.5433L267.4 86.747C268.061 87.0762 268.061 87.61 267.4 87.9393Z" fill="black"/>
<path d="M206.936 82.0227L214.816 85.9499C214.998 86.0406 215.293 86.0406 215.475 85.9499L236.04 75.6996C236.222 75.6089 236.222 75.4618 236.04 75.3711L228.161 71.4439C227.979 71.3532 227.684 71.3532 227.502 71.4439L206.936 81.6942C206.754 81.7849 206.754 81.932 206.936 82.0227Z" fill="#AAFFFA"/>
<path d="M181.56 69.9054L189.439 73.8326C189.621 73.9233 189.916 73.9233 190.098 73.8326L210.664 63.5823C210.846 63.4916 210.846 63.3445 210.664 63.2538L202.785 59.3266C202.603 59.2359 202.307 59.2359 202.125 59.3266L181.56 69.5769C181.378 69.6676 181.378 69.8147 181.56 69.9054Z" fill="#12AFA6"/>
<path d="M229.735 93.8352L237.614 97.7624C237.796 97.8531 238.091 97.8531 238.273 97.7624L258.839 87.5121C259.021 87.4214 259.021 87.2743 258.839 87.1836L250.959 83.2564C250.777 83.1657 250.482 83.1657 250.3 83.2564L229.735 93.5067C229.553 93.5974 229.553 93.7445 229.735 93.8352Z" fill="#FF00E5"/>
<path d="M192.67 75.7059L200.549 79.6332C200.731 79.7239 201.026 79.7239 201.208 79.6332L221.774 69.3828C221.956 69.2921 221.956 69.145 221.774 69.0543L213.894 65.1271C213.712 65.0364 213.417 65.0364 213.235 65.1271L192.67 75.3774C192.488 75.4682 192.488 75.6152 192.67 75.7059Z" fill="#7D12AF"/>
<path d="M169.575 122.315V125.109C170.368 125.109 171.129 124.953 171.69 124.674L203.265 108.987C204.168 108.539 204.675 107.93 204.675 107.295V104.834L171.69 121.879C171.129 122.158 170.368 122.315 169.575 122.315Z" fill="#FFBC57"/>
<path d="M169.575 122.324V125.118C168.714 125.114 167.892 124.942 167.283 124.639L89.6276 85.9338C88.3852 85.3146 87.7104 84.4864 87.7104 83.6107V81.5139L167.283 121.845C167.892 122.148 168.714 122.32 169.575 122.324Z" fill="#FF9900"/>
<path d="M203.685 105.986L171.967 121.795C170.646 122.453 168.504 122.453 167.183 121.795L88.7042 82.679C87.3831 82.0205 87.3831 80.9529 88.7042 80.2944L120.422 64.4856C121.743 63.8271 123.885 63.8271 125.206 64.4856L203.685 103.601C205.006 104.26 205.006 105.327 203.685 105.986Z" fill="#FFD494"/>
<path d="M199.064 105.237L170.466 119.491C169.805 119.82 168.734 119.82 168.074 119.491L93.4307 82.2874C92.7701 81.9582 92.7701 81.4244 93.4307 81.0951L122.029 66.8413C122.689 66.512 123.76 66.512 124.421 66.8413L199.064 104.045C199.724 104.374 199.724 104.908 199.064 105.237Z" fill="#FFD494"/>
<path d="M199.064 105.237L170.466 119.491C169.805 119.82 168.734 119.82 168.073 119.491L93.4305 82.2875C92.7699 81.9583 92.7699 81.4245 93.4305 81.0953L122.028 66.8414C122.689 66.5122 123.76 66.5122 124.421 66.8414L199.064 104.045C199.724 104.374 199.724 104.908 199.064 105.237Z" fill="black"/>
<path d="M101.463 81.5284L109.342 85.4557C109.524 85.5464 109.82 85.5464 110.002 85.4557L130.567 75.2053C130.749 75.1146 130.749 74.9675 130.567 74.8768L122.688 70.9496C122.506 70.8589 122.211 70.8589 122.029 70.9496L101.463 81.1999C101.281 81.2907 101.281 81.4377 101.463 81.5284Z" fill="#AAFFFA"/>
<path d="M113.083 87.2295L120.963 91.1567C121.145 91.2474 121.44 91.2474 121.622 91.1567L142.187 80.9064C142.369 80.8157 142.369 80.6686 142.187 80.5779L134.308 76.6507C134.126 76.56 133.831 76.56 133.649 76.6507L113.083 86.901C112.901 86.9917 112.901 87.1388 113.083 87.2295Z" fill="#FF00E5"/>
<path d="M135.16 97.8763L143.039 101.804C143.221 101.894 143.516 101.894 143.698 101.804L164.264 91.5532C164.446 91.4625 164.446 91.3154 164.264 91.2247L156.385 87.2975C156.203 87.2068 155.908 87.2068 155.726 87.2975L135.16 97.5478C134.978 97.6386 134.978 97.7856 135.16 97.8763Z" fill="#12AFA6"/>
<path d="M160.536 110.976L168.416 114.904C168.598 114.994 168.893 114.994 169.075 114.904L189.64 104.653C189.822 104.562 189.822 104.415 189.64 104.325L181.761 100.398C181.579 100.307 181.284 100.307 181.102 100.398L160.536 110.648C160.354 110.739 160.354 110.886 160.536 110.976Z" fill="#00FFF0"/>
<path d="M99.9224 56.4555V59.25C100.715 59.25 101.476 59.0933 102.038 58.8142L133.613 43.1274C134.515 42.6792 135.022 42.0704 135.022 41.4356V38.9745L102.038 56.0198C101.476 56.2988 100.715 56.4555 99.9224 56.4555Z" fill="#FFBC57"/>
<path d="M99.9224 56.4641V59.2585C99.0621 59.2548 98.2392 59.0829 97.6309 58.7797L19.9753 20.0743C18.7329 19.4551 18.058 18.6269 18.058 17.7512V15.6544L97.6309 55.9852C98.2392 56.2884 99.0621 56.4604 99.9224 56.4641Z" fill="#FF9900"/>
<path d="M134.032 40.1261L102.314 55.935C100.993 56.5935 98.8511 56.5935 97.53 55.935L19.0514 16.8195C17.7303 16.161 17.7303 15.0934 19.0514 14.4349L50.7692 -1.37394C52.0903 -2.03242 54.2323 -2.03242 55.5535 -1.37394L134.032 37.7416C135.353 38.4 135.353 39.4677 134.032 40.1261Z" fill="#FFD494"/>
<path d="M129.411 39.3777L100.813 53.6316C100.152 53.9609 99.0814 53.9609 98.4208 53.6316L23.7779 16.4279C23.1173 16.0987 23.1173 15.5649 23.7779 15.2356L52.3758 0.981779C53.0363 0.652539 54.1073 0.652537 54.7679 0.981778L129.411 38.1855C130.071 38.5147 130.071 39.0485 129.411 39.3777Z" fill="#FFD494"/>
<path d="M129.411 39.3779L100.813 53.6318C100.153 53.961 99.0817 53.961 98.4211 53.6318L23.7781 16.4281C23.1176 16.0988 23.1176 15.565 23.7781 15.2358L52.3761 0.981916C53.0366 0.652676 54.1076 0.652675 54.7682 0.981915L129.411 38.1856C130.072 38.5148 130.072 39.0486 129.411 39.3779Z" fill="black"/>
<path d="M67.8016 33.184L75.6809 37.1112C75.8629 37.2019 76.1579 37.2019 76.3399 37.1112L96.9055 26.8608C97.0875 26.7701 97.0875 26.6231 96.9055 26.5324L89.0262 22.6051C88.8442 22.5144 88.5491 22.5144 88.3671 22.6051L67.8016 32.8555C67.6196 32.9462 67.6196 33.0933 67.8016 33.184Z" fill="#7D12AF"/>
<path d="M92.0257 45.1169L99.905 49.0442C100.087 49.1349 100.382 49.1349 100.564 49.0442L121.13 38.7938C121.312 38.7031 121.312 38.556 121.13 38.4653L113.25 34.5381C113.068 34.4474 112.773 34.4474 112.591 34.5381L92.0257 44.7884C91.8437 44.8792 91.8437 45.0262 92.0257 45.1169Z" fill="#12AFA6"/>
<path d="M54.681 27.1445L62.5602 31.0717C62.7422 31.1625 63.0373 31.1625 63.2193 31.0717L83.7849 20.8214C83.9669 20.7307 83.9669 20.5836 83.7849 20.4929L75.9056 16.5657C75.7236 16.475 75.4285 16.475 75.2465 16.5657L54.681 26.816C54.499 26.9067 54.499 27.0538 54.681 27.1445Z" fill="#00FFF0"/>
<path d="M251.439 54.6403V57.4348C252.232 57.4348 252.993 57.2781 253.554 56.999L285.13 41.3122C286.032 40.864 286.539 40.2553 286.539 39.6204V37.1593L253.554 54.2046C252.993 54.4836 252.232 54.6403 251.439 54.6403Z" fill="#FFBC57"/>
<path d="M251.439 54.649V57.4434C250.579 57.4398 249.756 57.2678 249.148 56.9646L171.492 18.2593C170.249 17.64 169.575 16.8119 169.575 15.9361V13.8394L249.148 54.1702C249.756 54.4734 250.579 54.6453 251.439 54.649Z" fill="#FF9900"/>
<path d="M285.549 38.3111L253.831 54.12C252.51 54.7785 250.368 54.7785 249.047 54.12L170.568 15.0044C169.247 14.346 169.247 13.2784 170.568 12.6199L202.286 -3.189C203.607 -3.84748 205.749 -3.84748 207.071 -3.189L285.549 35.9265C286.87 36.585 286.87 37.6526 285.549 38.3111Z" fill="#FFD494"/>
<path d="M280.928 37.5627L252.33 51.8166C251.669 52.1458 250.598 52.1458 249.938 51.8166L175.295 14.6129C174.634 14.2836 174.634 13.7498 175.295 13.4206L203.893 -0.833284C204.553 -1.16252 205.624 -1.16253 206.285 -0.833286L280.928 36.3704C281.589 36.6996 281.589 37.2334 280.928 37.5627Z" fill="#FFD494"/>
<path d="M280.928 37.5628L252.33 51.8167C251.669 52.1459 250.598 52.1459 249.938 51.8167L175.295 14.613C174.634 14.2837 174.634 13.7499 175.295 13.4207L203.893 -0.833147C204.553 -1.16239 205.624 -1.16239 206.285 -0.833148L280.928 36.3705C281.588 36.6998 281.588 37.2336 280.928 37.5628Z" fill="black"/>
<path d="M219.318 31.3688L227.197 35.296C227.379 35.3867 227.675 35.3867 227.857 35.296L248.422 25.0457C248.604 24.955 248.604 24.8079 248.422 24.7172L240.543 20.79C240.361 20.6992 240.066 20.6992 239.884 20.79L219.318 31.0403C219.136 31.131 219.136 31.2781 219.318 31.3688Z" fill="#7D12AF"/>
<path d="M243.542 43.3018L251.422 47.229C251.604 47.3197 251.899 47.3197 252.081 47.229L272.646 36.9786C272.828 36.8879 272.828 36.7409 272.646 36.6501L264.767 32.7229C264.585 32.6322 264.29 32.6322 264.108 32.7229L243.542 42.9733C243.36 43.064 243.36 43.2111 243.542 43.3018Z" fill="#AF121B"/>
<path d="M206.198 25.3295L214.077 29.2567C214.259 29.3474 214.554 29.3474 214.736 29.2567L235.301 19.0064C235.483 18.9156 235.483 18.7686 235.301 18.6779L227.422 14.7507C227.24 14.6599 226.945 14.6599 226.763 14.7507L206.198 25.001C206.016 25.0917 206.016 25.2388 206.198 25.3295Z" fill="#00FFF0"/>
<path d="M252.329 51.8167L280.927 37.5628C281.587 37.2336 281.587 36.6997 280.927 36.3705V-19.3929C281.587 -19.7221 281.587 -20.2559 280.927 -20.5852L206.284 -57.7888C205.623 -58.1181 204.552 -58.1181 203.892 -57.7888L175.294 -43.535C174.633 -43.2057 174.633 -42.6719 175.294 -42.3427V13.4207C174.633 13.7499 174.633 14.2837 175.294 14.613L249.937 51.8167C250.597 52.1459 251.668 52.1459 252.329 51.8167Z" fill="url(#paint8_linear_307_3037)"/>
<path d="M100.816 53.6319L129.414 39.378C130.074 39.0487 130.074 38.5149 129.414 38.1857V-17.5777C130.074 -17.9069 130.074 -18.4407 129.414 -18.77L54.7706 -55.9737C54.1101 -56.3029 53.0391 -56.3029 52.3785 -55.9737L23.7806 -41.7198C23.12 -41.3906 23.12 -40.8568 23.7806 -40.5275V15.2359C23.12 15.5651 23.12 16.0989 23.7806 16.4281L98.4236 53.6319C99.0841 53.9611 100.155 53.9611 100.816 53.6319Z" fill="url(#paint9_linear_307_3037)"/>
<path d="M238.816 102.193L267.414 87.9393C268.075 87.61 268.075 87.0762 267.414 86.747V30.9836C268.075 30.6544 268.075 30.1205 267.414 29.7913L192.771 -7.41237C192.111 -7.74161 191.04 -7.74161 190.379 -7.41237L161.781 6.84148C161.121 7.17072 161.121 7.70452 161.781 8.03376V63.7971C161.121 64.1264 161.121 64.6602 161.781 64.9894L236.424 102.193C237.085 102.522 238.156 102.522 238.816 102.193Z" fill="url(#paint10_linear_307_3037)"/>
<path d="M170.466 119.491L199.064 105.237C199.724 104.908 199.724 104.374 199.064 104.045V48.2817C199.724 47.9525 199.724 47.4186 199.064 47.0894L124.421 9.88572C123.76 9.55648 122.689 9.55648 122.028 9.88572L93.4305 24.1396C92.7699 24.4688 92.7699 25.0026 93.4305 25.3319V81.0952C92.7699 81.4245 92.7699 81.9583 93.4305 82.2875L168.073 119.491C168.734 119.82 169.805 119.82 170.466 119.491Z" fill="url(#paint11_linear_307_3037)"/>
</g>
<defs>
<filter id="filter0_dd_307_3037" x="215.013" y="12.2984" width="7.77359" height="5.6326" filterUnits="userSpaceOnUse" color-interpolation-filters="sRGB">
<feFlood flood-opacity="0" result="BackgroundImageFix"/>
<feColorMatrix in="SourceAlpha" type="matrix" values="0 0 0 0 0 0 0 0 0 0 0 0 0 0 0 0 0 0 127 0" result="hardAlpha"/>
<feOffset/>
<feGaussianBlur stdDeviation="0.845742"/>
<feComposite in2="hardAlpha" operator="out"/>
<feColorMatrix type="matrix" values="0 0 0 0 1 0 0 0 0 0.63 0 0 0 0 0.075 0 0 0 1 0"/>
<feBlend mode="normal" in2="BackgroundImageFix" result="effect1_dropShadow_307_3037"/>
<feColorMatrix in="SourceAlpha" type="matrix" values="0 0 0 0 0 0 0 0 0 0 0 0 0 0 0 0 0 0 127 0" result="hardAlpha"/>
<feOffset/>
<feGaussianBlur stdDeviation="0.845742"/>
<feComposite in2="hardAlpha" operator="out"/>
<feColorMatrix type="matrix" values="0 0 0 0 1 0 0 0 0 0.63 0 0 0 0 0.075 0 0 0 1 0"/>
<feBlend mode="normal" in2="effect1_dropShadow_307_3037" result="effect2_dropShadow_307_3037"/>
<feBlend mode="normal" in="SourceGraphic" in2="effect2_dropShadow_307_3037" result="shape"/>
</filter>
<filter id="filter1_dd_307_3037" x="206.083" y="16.8741" width="7.77359" height="5.6326" filterUnits="userSpaceOnUse" color-interpolation-filters="sRGB">
<feFlood flood-opacity="0" result="BackgroundImageFix"/>
<feColorMatrix in="SourceAlpha" type="matrix" values="0 0 0 0 0 0 0 0 0 0 0 0 0 0 0 0 0 0 127 0" result="hardAlpha"/>
<feOffset/>
<feGaussianBlur stdDeviation="0.845742"/>
<feComposite in2="hardAlpha" operator="out"/>
<feColorMatrix type="matrix" values="0 0 0 0 1 0 0 0 0 0.63 0 0 0 0 0.075 0 0 0 1 0"/>
<feBlend mode="normal" in2="BackgroundImageFix" result="effect1_dropShadow_307_3037"/>
<feColorMatrix in="SourceAlpha" type="matrix" values="0 0 0 0 0 0 0 0 0 0 0 0 0 0 0 0 0 0 127 0" result="hardAlpha"/>
<feOffset/>
<feGaussianBlur stdDeviation="0.845742"/>
<feComposite in2="hardAlpha" operator="out"/>
<feColorMatrix type="matrix" values="0 0 0 0 1 0 0 0 0 0.63 0 0 0 0 0.075 0 0 0 1 0"/>
<feBlend mode="normal" in2="effect1_dropShadow_307_3037" result="effect2_dropShadow_307_3037"/>
<feBlend mode="normal" in="SourceGraphic" in2="effect2_dropShadow_307_3037" result="shape"/>
</filter>
<filter id="filter2_dd_307_3037" x="154.857" y="100.356" width="7.77359" height="5.6326" filterUnits="userSpaceOnUse" color-interpolation-filters="sRGB">
<feFlood flood-opacity="0" result="BackgroundImageFix"/>
<feColorMatrix in="SourceAlpha" type="matrix" values="0 0 0 0 0 0 0 0 0 0 0 0 0 0 0 0 0 0 127 0" result="hardAlpha"/>
<feOffset/>
<feGaussianBlur stdDeviation="0.845742"/>
<feComposite in2="hardAlpha" operator="out"/>
<feColorMatrix type="matrix" values="0 0 0 0 1 0 0 0 0 0.63 0 0 0 0 0.075 0 0 0 1 0"/>
<feBlend mode="normal" in2="BackgroundImageFix" result="effect1_dropShadow_307_3037"/>
<feColorMatrix in="SourceAlpha" type="matrix" values="0 0 0 0 0 0 0 0 0 0 0 0 0 0 0 0 0 0 127 0" result="hardAlpha"/>
<feOffset/>
<feGaussianBlur stdDeviation="0.845742"/>
<feComposite in2="hardAlpha" operator="out"/>
<feColorMatrix type="matrix" values="0 0 0 0 1 0 0 0 0 0.63 0 0 0 0 0.075 0 0 0 1 0"/>
<feBlend mode="normal" in2="effect1_dropShadow_307_3037" result="effect2_dropShadow_307_3037"/>
<feBlend mode="normal" in="SourceGraphic" in2="effect2_dropShadow_307_3037" result="shape"/>
</filter>
<filter id="filter3_dd_307_3037" x="141.787" y="102.015" width="7.77359" height="5.6326" filterUnits="userSpaceOnUse" color-interpolation-filters="sRGB">
<feFlood flood-opacity="0" result="BackgroundImageFix"/>
<feColorMatrix in="SourceAlpha" type="matrix" values="0 0 0 0 0 0 0 0 0 0 0 0 0 0 0 0 0 0 127 0" result="hardAlpha"/>
<feOffset/>
<feGaussianBlur stdDeviation="0.845742"/>
<feComposite in2="hardAlpha" operator="out"/>
<feColorMatrix type="matrix" values="0 0 0 0 1 0 0 0 0 0.63 0 0 0 0 0.075 0 0 0 1 0"/>
<feBlend mode="normal" in2="BackgroundImageFix" result="effect1_dropShadow_307_3037"/>
<feColorMatrix in="SourceAlpha" type="matrix" values="0 0 0 0 0 0 0 0 0 0 0 0 0 0 0 0 0 0 127 0" result="hardAlpha"/>
<feOffset/>
<feGaussianBlur stdDeviation="0.845742"/>
<feComposite in2="hardAlpha" operator="out"/>
<feColorMatrix type="matrix" values="0 0 0 0 1 0 0 0 0 0.63 0 0 0 0 0.075 0 0 0 1 0"/>
<feBlend mode="normal" in2="effect1_dropShadow_307_3037" result="effect2_dropShadow_307_3037"/>
<feBlend mode="normal" in="SourceGraphic" in2="effect2_dropShadow_307_3037" result="shape"/>
</filter>
<filter id="filter4_dd_307_3037" x="187.748" y="74.6098" width="7.77359" height="5.6326" filterUnits="userSpaceOnUse" color-interpolation-filters="sRGB">
<feFlood flood-opacity="0" result="BackgroundImageFix"/>
<feColorMatrix in="SourceAlpha" type="matrix" values="0 0 0 0 0 0 0 0 0 0 0 0 0 0 0 0 0 0 127 0" result="hardAlpha"/>
<feOffset/>
<feGaussianBlur stdDeviation="0.845742"/>
<feComposite in2="hardAlpha" operator="out"/>
<feColorMatrix type="matrix" values="0 0 0 0 1 0 0 0 0 0.63 0 0 0 0 0.075 0 0 0 1 0"/>
<feBlend mode="normal" in2="BackgroundImageFix" result="effect1_dropShadow_307_3037"/>
<feColorMatrix in="SourceAlpha" type="matrix" values="0 0 0 0 0 0 0 0 0 0 0 0 0 0 0 0 0 0 127 0" result="hardAlpha"/>
<feOffset/>
<feGaussianBlur stdDeviation="0.845742"/>
<feComposite in2="hardAlpha" operator="out"/>
<feColorMatrix type="matrix" values="0 0 0 0 1 0 0 0 0 0.63 0 0 0 0 0.075 0 0 0 1 0"/>
<feBlend mode="normal" in2="effect1_dropShadow_307_3037" result="effect2_dropShadow_307_3037"/>
<feBlend mode="normal" in="SourceGraphic" in2="effect2_dropShadow_307_3037" result="shape"/>
</filter>
<filter id="filter5_dd_307_3037" x="190.781" y="63.9043" width="7.77359" height="5.6326" filterUnits="userSpaceOnUse" color-interpolation-filters="sRGB">
<feFlood flood-opacity="0" result="BackgroundImageFix"/>
<feColorMatrix in="SourceAlpha" type="matrix" values="0 0 0 0 0 0 0 0 0 0 0 0 0 0 0 0 0 0 127 0" result="hardAlpha"/>
<feOffset/>
<feGaussianBlur stdDeviation="0.845742"/>
<feComposite in2="hardAlpha" operator="out"/>
<feColorMatrix type="matrix" values="0 0 0 0 1 0 0 0 0 0.63 0 0 0 0 0.075 0 0 0 1 0"/>
<feBlend mode="normal" in2="BackgroundImageFix" result="effect1_dropShadow_307_3037"/>
<feColorMatrix in="SourceAlpha" type="matrix" values="0 0 0 0 0 0 0 0 0 0 0 0 0 0 0 0 0 0 127 0" result="hardAlpha"/>
<feOffset/>
<feGaussianBlur stdDeviation="0.845742"/>
<feComposite in2="hardAlpha" operator="out"/>
<feColorMatrix type="matrix" values="0 0 0 0 1 0 0 0 0 0.63 0 0 0 0 0.075 0 0 0 1 0"/>
<feBlend mode="normal" in2="effect1_dropShadow_307_3037" result="effect2_dropShadow_307_3037"/>
<feBlend mode="normal" in="SourceGraphic" in2="effect2_dropShadow_307_3037" result="shape"/>
</filter>
<filter id="filter6_dd_307_3037" x="94.9985" y="27.6895" width="7.77359" height="5.6326" filterUnits="userSpaceOnUse" color-interpolation-filters="sRGB">
<feFlood flood-opacity="0" result="BackgroundImageFix"/>
<feColorMatrix in="SourceAlpha" type="matrix" values="0 0 0 0 0 0 0 0 0 0 0 0 0 0 0 0 0 0 127 0" result="hardAlpha"/>
<feOffset/>
<feGaussianBlur stdDeviation="0.845742"/>
<feComposite in2="hardAlpha" operator="out"/>
<feColorMatrix type="matrix" values="0 0 0 0 1 0 0 0 0 0.63 0 0 0 0 0.075 0 0 0 1 0"/>
<feBlend mode="normal" in2="BackgroundImageFix" result="effect1_dropShadow_307_3037"/>
<feColorMatrix in="SourceAlpha" type="matrix" values="0 0 0 0 0 0 0 0 0 0 0 0 0 0 0 0 0 0 127 0" result="hardAlpha"/>
<feOffset/>
<feGaussianBlur stdDeviation="0.845742"/>
<feComposite in2="hardAlpha" operator="out"/>
<feColorMatrix type="matrix" values="0 0 0 0 1 0 0 0 0 0.63 0 0 0 0 0.075 0 0 0 1 0"/>
<feBlend mode="normal" in2="effect1_dropShadow_307_3037" result="effect2_dropShadow_307_3037"/>
<feBlend mode="normal" in="SourceGraphic" in2="effect2_dropShadow_307_3037" result="shape"/>
</filter>
<filter id="filter7_dd_307_3037" x="93.7255" y="28.6803" width="7.77359" height="5.6326" filterUnits="userSpaceOnUse" color-interpolation-filters="sRGB">
<feFlood flood-opacity="0" result="BackgroundImageFix"/>
<feColorMatrix in="SourceAlpha" type="matrix" values="0 0 0 0 0 0 0 0 0 0 0 0 0 0 0 0 0 0 127 0" result="hardAlpha"/>
<feOffset/>
<feGaussianBlur stdDeviation="0.845742"/>
<feComposite in2="hardAlpha" operator="out"/>
<feColorMatrix type="matrix" values="0 0 0 0 1 0 0 0 0 0.63 0 0 0 0 0.075 0 0 0 1 0"/>
<feBlend mode="normal" in2="BackgroundImageFix" result="effect1_dropShadow_307_3037"/>
<feColorMatrix in="SourceAlpha" type="matrix" values="0 0 0 0 0 0 0 0 0 0 0 0 0 0 0 0 0 0 127 0" result="hardAlpha"/>
<feOffset/>
<feGaussianBlur stdDeviation="0.845742"/>
<feComposite in2="hardAlpha" operator="out"/>
<feColorMatrix type="matrix" values="0 0 0 0 1 0 0 0 0 0.63 0 0 0 0 0.075 0 0 0 1 0"/>
<feBlend mode="normal" in2="effect1_dropShadow_307_3037" result="effect2_dropShadow_307_3037"/>
<feBlend mode="normal" in="SourceGraphic" in2="effect2_dropShadow_307_3037" result="shape"/>
</filter>
<radialGradient id="paint0_radial_307_3037" cx="0" cy="0" r="1" gradientUnits="userSpaceOnUse" gradientTransform="translate(219.025 15.179) rotate(27.1291) scale(2.18483 1.19847)">
<stop stop-color="#FFB546"/>
<stop offset="0.291667" stop-color="#FFA113"/>
<stop offset="1" stop-color="#E99B25" stop-opacity="0"/>
</radialGradient>
<radialGradient id="paint1_radial_307_3037" cx="0" cy="0" r="1" gradientUnits="userSpaceOnUse" gradientTransform="translate(210.095 19.7546) rotate(27.1291) scale(2.18483 1.19847)">
<stop stop-color="#FFB546"/>
<stop offset="0.291667" stop-color="#FFA113"/>
<stop offset="1" stop-color="#E99B25" stop-opacity="0"/>
</radialGradient>
<radialGradient id="paint2_radial_307_3037" cx="0" cy="0" r="1" gradientUnits="userSpaceOnUse" gradientTransform="translate(158.87 103.237) rotate(27.1291) scale(2.18483 1.19847)">
<stop stop-color="#FFB546"/>
<stop offset="0.291667" stop-color="#FFA113"/>
<stop offset="1" stop-color="#E99B25" stop-opacity="0"/>
</radialGradient>
<radialGradient id="paint3_radial_307_3037" cx="0" cy="0" r="1" gradientUnits="userSpaceOnUse" gradientTransform="translate(145.799 104.896) rotate(27.1291) scale(2.18483 1.19847)">
<stop stop-color="#FFB546"/>
<stop offset="0.291667" stop-color="#FFA113"/>
<stop offset="1" stop-color="#E99B25" stop-opacity="0"/>
</radialGradient>
<radialGradient id="paint4_radial_307_3037" cx="0" cy="0" r="1" gradientUnits="userSpaceOnUse" gradientTransform="translate(191.76 77.3619) rotate(-27.1291) scale(2.18483 1.19847)">
<stop stop-color="#FFB546"/>
<stop offset="0.291667" stop-color="#FFA113"/>
<stop offset="1" stop-color="#E99B25" stop-opacity="0"/>
</radialGradient>
<radialGradient id="paint5_radial_307_3037" cx="0" cy="0" r="1" gradientUnits="userSpaceOnUse" gradientTransform="translate(194.794 66.6564) rotate(-27.1291) scale(2.18483 1.19847)">
<stop stop-color="#FFB546"/>
<stop offset="0.291667" stop-color="#FFA113"/>
<stop offset="1" stop-color="#E99B25" stop-opacity="0"/>
</radialGradient>
<radialGradient id="paint6_radial_307_3037" cx="0" cy="0" r="1" gradientUnits="userSpaceOnUse" gradientTransform="translate(98.7596 30.57) rotate(152.871) scale(2.18483 1.19847)">
<stop stop-color="#FFB546"/>
<stop offset="0.291667" stop-color="#FFA113"/>
<stop offset="1" stop-color="#797C81"/>
</radialGradient>
<radialGradient id="paint7_radial_307_3037" cx="0" cy="0" r="1" gradientUnits="userSpaceOnUse" gradientTransform="translate(97.7379 31.4324) rotate(-27.1291) scale(2.18483 1.19847)">
<stop stop-color="#FFB546"/>
<stop offset="0.291667" stop-color="#FFA113"/>
<stop offset="1" stop-color="#E99B25" stop-opacity="0"/>
</radialGradient>
<linearGradient id="paint8_linear_307_3037" x1="228.11" y1="56.4606" x2="228.11" y2="-17.3329" gradientUnits="userSpaceOnUse">
<stop stop-color="#79FFEF"/>
<stop offset="1" stop-color="#24EED6" stop-opacity="0"/>
</linearGradient>
<linearGradient id="paint9_linear_307_3037" x1="76.5971" y1="58.2758" x2="76.5971" y2="-15.5177" gradientUnits="userSpaceOnUse">
<stop stop-color="#FFA113"/>
<stop offset="1" stop-color="#FFB546" stop-opacity="0"/>
</linearGradient>
<linearGradient id="paint10_linear_307_3037" x1="214.598" y1="106.837" x2="214.598" y2="33.0436" gradientUnits="userSpaceOnUse">
<stop stop-color="#4F21B1"/>
<stop offset="1" stop-color="#4F21B1" stop-opacity="0"/>
</linearGradient>
<linearGradient id="paint11_linear_307_3037" x1="146.247" y1="124.135" x2="146.247" y2="50.3417" gradientUnits="userSpaceOnUse">
<stop stop-color="#79FFEF"/>
<stop offset="1" stop-color="#24EED6" stop-opacity="0"/>
</linearGradient>
<clipPath id="clip0_307_3037">
<path d="M0.333496 15C0.333496 6.71573 7.04922 0 15.3335 0H306.667C314.951 0 321.667 6.71573 321.667 15V95C321.667 103.284 314.951 110 306.667 110H15.3335C7.04925 110 0.333496 103.284 0.333496 95V15Z" fill="white"/>
</clipPath>
</defs>
</svg>
