<svg width="322" height="110" viewBox="0 0 322 110" fill="none" xmlns="http://www.w3.org/2000/svg">
<g clip-path="url(#clip0_307_3175)">
<path d="M0.666504 15C0.666504 6.71573 7.38223 0 15.6665 0H307C315.284 0 322 6.71573 322 15V95C322 103.284 315.284 110 307 110H15.6665C7.38226 110 0.666504 103.284 0.666504 95V15Z" fill="#2B313A"/>
<rect width="38.7283" height="38.7283" rx="1.71199" transform="matrix(0.889982 -0.455997 0.889982 0.455996 200.112 38.9937)" stroke="#595D64" stroke-width="0.639235"/>
<path d="M145.196 23.6596C144.354 23.2284 144.354 22.5294 145.196 22.0982L189.11 -0.402145C189.952 -0.833292 191.316 -0.833293 192.157 -0.402146L209.414 8.43936C210.255 8.87051 210.255 9.56953 209.414 10.0007L165.499 32.5011C164.658 32.9322 163.293 32.9322 162.452 32.5011L145.196 23.6596Z" stroke="#595D64" stroke-width="0.639235"/>
<path d="M215.354 31.2951L202.76 24.8426C202.317 24.6157 202.317 24.2477 202.76 24.0208L208.319 21.1726C208.762 20.9457 208.762 20.5778 208.319 20.3509L198.766 15.4563" stroke="#595D64" stroke-width="0.639235"/>
<path d="M198.751 15.4485C198.759 15.4442 198.773 15.4442 198.781 15.4485C198.79 15.4528 198.79 15.4597 198.781 15.464C198.773 15.4683 198.759 15.4683 198.751 15.464C198.743 15.4597 198.743 15.4528 198.751 15.4485Z" fill="#EEEEEE" stroke="#595D64" stroke-width="0.639235"/>
<path d="M215.23 31.2322C215.239 31.2279 215.252 31.2279 215.261 31.2322C215.269 31.2365 215.269 31.2434 215.261 31.2477C215.252 31.252 215.239 31.252 215.23 31.2477C215.222 31.2434 215.222 31.2364 215.23 31.2322Z" fill="#EEEEEE" stroke="#595D64" stroke-width="0.639235"/>
<path d="M209.645 34.22L192.028 25.1938C191.585 24.9669 191.585 24.599 192.028 24.3721L197.587 21.5239C198.03 21.297 198.03 20.929 197.587 20.7021L193.057 18.3812" stroke="#595D64" stroke-width="0.639235"/>
<path d="M193.042 18.3734C193.05 18.3691 193.064 18.3691 193.072 18.3734C193.081 18.3777 193.081 18.3846 193.072 18.3889C193.064 18.3932 193.05 18.3932 193.042 18.3889C193.034 18.3846 193.034 18.3777 193.042 18.3734Z" fill="#EEEEEE" stroke="#595D64" stroke-width="0.639235"/>
<path d="M209.522 34.1571C209.53 34.1528 209.544 34.1528 209.552 34.1571C209.561 34.1614 209.561 34.1683 209.552 34.1726C209.544 34.1769 209.53 34.1769 209.522 34.1726C209.514 34.1683 209.514 34.1614 209.522 34.1571Z" fill="#EEEEEE" stroke="#595D64" stroke-width="0.639235"/>
<path d="M221.936 50.0928L163.71 79.9255C163.267 80.1524 163.267 80.5203 163.71 80.7473L174.358 86.2027" stroke="#595D64" stroke-width="0.639235"/>
<path d="M221.771 50.0909C221.818 50.0671 221.893 50.0671 221.939 50.0909C221.986 50.1146 221.986 50.1532 221.939 50.1769C221.893 50.2007 221.818 50.2007 221.771 50.1769C221.725 50.1532 221.725 50.1146 221.771 50.0909Z" fill="#EEEEEE" stroke="#595D64" stroke-width="0.639235"/>
<path d="M174.193 86.1186C174.24 86.0948 174.315 86.0948 174.361 86.1186C174.408 86.1424 174.408 86.1809 174.361 86.2046C174.315 86.2284 174.24 86.2284 174.193 86.2046C174.147 86.1809 174.147 86.1424 174.193 86.1186Z" fill="#EEEEEE" stroke="#595D64" stroke-width="0.639235"/>
<path d="M216.227 47.1678L152.661 79.7366C152.218 79.9635 152.218 80.3314 152.661 80.5583L168.649 88.7497" stroke="#595D64" stroke-width="0.639235"/>
<path d="M216.063 47.166C216.109 47.1422 216.184 47.1422 216.23 47.166C216.277 47.1897 216.277 47.2282 216.23 47.252C216.184 47.2758 216.109 47.2758 216.063 47.252C216.016 47.2282 216.016 47.1897 216.063 47.166Z" fill="#EEEEEE" stroke="#595D64" stroke-width="0.639235"/>
<path d="M168.484 88.6656C168.531 88.6418 168.606 88.6418 168.652 88.6656C168.699 88.6893 168.699 88.7279 168.652 88.7516C168.606 88.7754 168.531 88.7754 168.484 88.7516C168.438 88.7279 168.438 88.6893 168.484 88.6656Z" fill="#EEEEEE" stroke="#595D64" stroke-width="0.639235"/>
<path d="M258.719 -26.4246L195.153 6.14415C194.711 6.37107 194.711 6.73898 195.153 6.9659L211.141 15.1573" stroke="#595D64" stroke-width="0.639235"/>
<path d="M210.977 15.0732C211.023 15.0494 211.098 15.0494 211.145 15.0732C211.191 15.0969 211.191 15.1355 211.145 15.1592C211.098 15.183 211.023 15.183 210.977 15.1592C210.93 15.1355 210.93 15.0969 210.977 15.0732Z" fill="#EEEEEE" stroke="#595D64" stroke-width="0.639235"/>
<path d="M283.232 -13.5382L219.667 19.0305C219.224 19.2574 219.224 19.6253 219.667 19.8523L235.654 28.0437" stroke="#595D64" stroke-width="0.639235"/>
<path d="M235.49 27.9595C235.536 27.9358 235.611 27.9358 235.658 27.9595C235.704 27.9833 235.704 28.0218 235.658 28.0456C235.611 28.0693 235.536 28.0693 235.49 28.0456C235.443 28.0218 235.443 27.9833 235.49 27.9595Z" fill="#EEEEEE" stroke="#595D64" stroke-width="0.639235"/>
<rect width="59.9078" height="22.3898" rx="1.71199" transform="matrix(0.889982 -0.455997 0.889982 0.455996 144.857 100.969)" stroke="#595D64" stroke-width="0.639235"/>
<rect width="31.2247" height="31.2247" rx="1.71199" transform="matrix(0.889982 -0.455997 0.889982 0.455996 74.7368 52.1283)" stroke="#595D64" stroke-width="0.639235"/>
<path d="M154.006 96.6158L124.171 81.3294C123.728 81.1025 123.728 80.7346 124.171 80.5077L133.456 75.7507C133.898 75.5238 133.898 75.1559 133.456 74.929L109.635 62.7242" stroke="#595D64" stroke-width="0.639235"/>
<path d="M109.551 62.6812C109.598 62.6574 109.673 62.6574 109.719 62.6812C109.766 62.705 109.766 62.7435 109.719 62.7673C109.673 62.791 109.598 62.791 109.551 62.7673C109.505 62.7435 109.505 62.705 109.551 62.6812Z" fill="#EEEEEE" stroke="#595D64" stroke-width="0.639235"/>
<path d="M153.842 96.5317C153.888 96.5079 153.963 96.5079 154.01 96.5317C154.056 96.5554 154.056 96.594 154.01 96.6177C153.963 96.6415 153.888 96.6415 153.842 96.6177C153.795 96.594 153.795 96.5554 153.842 96.5317Z" fill="#EEEEEE" stroke="#595D64" stroke-width="0.639235"/>
<path d="M289.111 112.892L259.276 97.6052C258.833 97.3783 258.833 97.0104 259.276 96.7834L268.56 92.0265C269.003 91.7996 269.003 91.4316 268.56 91.2047L244.74 79" stroke="#595D64" stroke-width="0.639235"/>
<path d="M244.656 78.957C244.702 78.9332 244.777 78.9332 244.824 78.957C244.87 78.9807 244.87 79.0193 244.824 79.043C244.777 79.0668 244.702 79.0668 244.656 79.043C244.609 79.0193 244.609 78.9807 244.656 78.957Z" fill="#EEEEEE" stroke="#595D64" stroke-width="0.639235"/>
<path d="M342.15 91.3075L294.552 66.9197C294.109 66.6928 294.109 66.3249 294.552 66.098L303.836 61.341C304.279 61.1141 304.279 60.7462 303.836 60.5193L265.74 41" stroke="#595D64" stroke-width="0.639235"/>
<path d="M265.656 40.957C265.702 40.9332 265.777 40.9332 265.824 40.957C265.87 40.9807 265.87 41.0193 265.824 41.043C265.777 41.0668 265.702 41.0668 265.656 41.043C265.609 41.0193 265.609 40.9807 265.656 40.957Z" fill="#EEEEEE" stroke="#595D64" stroke-width="0.639235"/>
<path d="M114.882 44.6899L133.862 34.9654C134.304 34.7385 135.022 34.7385 135.465 34.9654L141.19 37.8984C141.633 38.1253 142.351 38.1253 142.794 37.8984L157.89 30.1637" stroke="#595D64" stroke-width="0.639235"/>
<path d="M157.974 30.1207C158.02 30.1444 158.02 30.183 157.974 30.2067C157.927 30.2305 157.852 30.2305 157.806 30.2067C157.759 30.183 157.759 30.1444 157.806 30.1207C157.852 30.0969 157.927 30.0969 157.974 30.1207Z" fill="#EEEEEE" stroke="#595D64" stroke-width="0.639235"/>
<path d="M115.046 44.6058C115.093 44.6295 115.093 44.6681 115.046 44.6918C115 44.7156 114.925 44.7156 114.878 44.6918C114.832 44.6681 114.832 44.6295 114.878 44.6058C114.925 44.582 115 44.582 115.046 44.6058Z" fill="#EEEEEE" stroke="#595D64" stroke-width="0.639235"/>
<path d="M90.229 60.0616L7.97408 102.206C7.53119 102.433 7.53119 102.801 7.97408 103.028L41.7612 120.339" stroke="#595D64" stroke-width="0.639235"/>
<path d="M90.065 60.0597C90.1113 60.036 90.1865 60.036 90.2329 60.0597C90.2793 60.0835 90.2793 60.122 90.2329 60.1458C90.1865 60.1696 90.1113 60.1696 90.065 60.1458C90.0186 60.122 90.0186 60.0835 90.065 60.0597Z" fill="#EEEEEE" stroke="#595D64" stroke-width="0.639235"/>
<path d="M53.229 38.0616L-29.0259 80.2063C-29.4688 80.4332 -29.4688 80.8011 -29.0259 81.028L4.76116 98.3394" stroke="#595D64" stroke-width="0.639235"/>
<path d="M53.065 38.0597C53.1113 38.036 53.1865 38.036 53.2329 38.0597C53.2793 38.0835 53.2793 38.122 53.2329 38.1458C53.1865 38.1696 53.1113 38.1696 53.065 38.1458C53.0186 38.122 53.0186 38.0835 53.065 38.0597Z" fill="#EEEEEE" stroke="#595D64" stroke-width="0.639235"/>
<path d="M4.59669 98.2553C4.64307 98.2315 4.71826 98.2315 4.76464 98.2553C4.81102 98.2791 4.81102 98.3176 4.76464 98.3414C4.71826 98.3651 4.64307 98.3651 4.59669 98.3414C4.55031 98.3176 4.55031 98.2791 4.59669 98.2553Z" fill="#EEEEEE" stroke="#595D64" stroke-width="0.639235"/>
<path d="M135.97 87.4918L72.4049 120.061C71.962 120.287 71.962 120.655 72.4049 120.882L88.3924 129.074" stroke="#595D64" stroke-width="0.639235"/>
<path d="M135.806 87.4899C135.853 87.4662 135.928 87.4662 135.974 87.4899C136.02 87.5137 136.02 87.5522 135.974 87.576C135.928 87.5997 135.853 87.5997 135.806 87.576C135.76 87.5522 135.76 87.5137 135.806 87.4899Z" fill="#EEEEEE" stroke="#595D64" stroke-width="0.639235"/>
<path d="M83.1111 47.8722L53.2762 32.5858C52.8334 32.3589 52.8334 31.9909 53.2762 31.764L62.5605 27.0071C63.0034 26.7801 63.0034 26.4122 62.5605 26.1853L38.7402 13.9806" stroke="#595D64" stroke-width="0.639235"/>
<path d="M38.6563 13.9376C38.7026 13.9138 38.7778 13.9138 38.8242 13.9376C38.8706 13.9613 38.8706 13.9998 38.8242 14.0236C38.7778 14.0474 38.7026 14.0474 38.6563 14.0236C38.6099 13.9998 38.6099 13.9613 38.6563 13.9376Z" fill="#EEEEEE" stroke="#595D64" stroke-width="0.639235"/>
<path d="M82.9468 47.788C82.9932 47.7643 83.0684 47.7643 83.1147 47.788C83.1611 47.8118 83.1611 47.8503 83.1147 47.8741C83.0684 47.8978 82.9932 47.8978 82.9468 47.8741C82.9004 47.8503 82.9004 47.8118 82.9468 47.788Z" fill="#EEEEEE" stroke="#595D64" stroke-width="0.639235"/>
<path d="M76.5078 3.43753L76.5078 57.9605C77.0148 57.9605 77.5011 57.8603 77.8601 57.6819L112.911 39.8451C113.487 39.5586 113.811 39.1694 113.811 38.7636V-15.5463L77.8601 3.15898C77.5011 3.33736 77.0148 3.43753 76.5078 3.43753Z" fill="#6A12AF"/>
<g filter="url(#filter0_d_307_3175)">
<path d="M111.322 -8.40887C111.322 -9.07518 110.623 -9.51067 110.025 -9.21727L105.591 -7.04264C105.282 -6.89138 105.087 -6.57778 105.087 -6.23425V-0.351954C105.087 0.315146 105.787 0.750593 106.385 0.455646L110.819 -1.73004C111.127 -1.88164 111.322 -2.19476 111.322 -2.53764V-8.40887Z" fill="#B250FF"/>
<path d="M102.874 -4.34759C102.874 -5.0139 102.175 -5.44939 101.577 -5.15599L97.1426 -2.98136C96.8342 -2.8301 96.6387 -2.5165 96.6387 -2.17297V3.70933C96.6387 4.37643 97.3388 4.81187 97.9372 4.51693L102.371 2.33124C102.679 2.17964 102.874 1.86652 102.874 1.52364V-4.34759Z" fill="#B250FF"/>
<path d="M94.4258 0.34003C94.4258 -0.326282 93.7272 -0.761765 93.1289 -0.468368L88.6949 1.70626C88.3864 1.85753 88.1909 2.17112 88.1909 2.51466V8.39695C88.1909 9.06405 88.8911 9.49949 89.4894 9.20455L93.9235 7.01886C94.231 6.86726 94.4258 6.55414 94.4258 6.21126V0.34003Z" fill="#B250FF"/>
<path d="M85.978 4.7215C85.978 4.05519 85.2794 3.61971 84.6812 3.9131L80.2471 6.08773C79.9387 6.239 79.7432 6.55259 79.7432 6.89613V12.7784C79.7432 13.4455 80.4433 13.881 81.0417 13.586L85.4757 11.4003C85.7833 11.2487 85.978 10.9356 85.978 10.5927V4.7215Z" fill="#B250FF"/>
</g>
<g filter="url(#filter1_d_307_3175)">
<path d="M111.322 2.27655C111.322 1.61024 110.623 1.17476 110.025 1.46816L105.591 3.64278C105.282 3.79405 105.087 4.10765 105.087 4.45118V10.3335C105.087 11.0006 105.787 11.436 106.385 11.1411L110.819 8.95538C111.127 8.80378 111.322 8.49066 111.322 8.14778V2.27655Z" fill="#B250FF"/>
<path d="M102.874 6.33783C102.874 5.67152 102.175 5.23604 101.577 5.52944L97.1426 7.70406C96.8342 7.85533 96.6387 8.16892 96.6387 8.51246V14.3948C96.6387 15.0619 97.3388 15.4973 97.9372 15.2024L102.371 13.0167C102.679 12.8651 102.874 12.5519 102.874 12.2091V6.33783Z" fill="#B250FF"/>
<path d="M94.4258 11.0255C94.4258 10.3591 93.7272 9.92366 93.1289 10.2171L88.6949 12.3917C88.3864 12.543 88.1909 12.8565 88.1909 13.2001V19.0824C88.1909 19.7495 88.8911 20.1849 89.4894 19.89L93.9235 17.7043C94.231 17.5527 94.4258 17.2396 94.4258 16.8967V11.0255Z" fill="#B250FF"/>
<path d="M85.978 15.4068C85.978 14.7405 85.2794 14.305 84.6812 14.5984L80.2471 16.773C79.9387 16.9243 79.7432 17.2379 79.7432 17.5814V23.4637C79.7432 24.1308 80.4433 24.5663 81.0417 24.2713L85.4757 22.0856C85.7833 21.934 85.978 21.6209 85.978 21.278V15.4068Z" fill="#B250FF"/>
</g>
<g filter="url(#filter2_d_307_3175)">
<path d="M111.322 12.9103C111.322 12.244 110.623 11.8085 110.025 12.1019L105.591 14.2766C105.282 14.4278 105.087 14.7414 105.087 15.085V20.9673C105.087 21.6344 105.787 22.0698 106.385 21.7749L110.819 19.5892C111.127 19.4376 111.322 19.1245 111.322 18.7816V12.9103Z" fill="#B250FF"/>
<path d="M102.874 16.9717C102.874 16.3054 102.175 15.8699 101.577 16.1633L97.1426 18.338C96.8342 18.4892 96.6387 18.8028 96.6387 19.1464V25.0287C96.6387 25.6958 97.3388 26.1312 97.9372 25.8363L102.371 23.6506C102.679 23.499 102.874 23.1859 102.874 22.843V16.9717Z" fill="#B250FF"/>
<path d="M94.4258 21.6592C94.4258 20.9929 93.7272 20.5574 93.1289 20.8508L88.6949 23.0255C88.3864 23.1767 88.1909 23.4903 88.1909 23.8339V29.7162C88.1909 30.3833 88.8911 30.8187 89.4894 30.5238L93.9235 28.3381C94.231 28.1865 94.4258 27.8734 94.4258 27.5305V21.6592Z" fill="#B250FF"/>
<path d="M85.978 26.0407C85.978 25.3744 85.2794 24.9389 84.6812 25.2323L80.2471 27.4069C79.9387 27.5582 79.7432 27.8718 79.7432 28.2153V34.0976C79.7432 34.7647 80.4433 35.2002 81.0417 34.9052L85.4757 32.7195C85.7833 32.5679 85.978 32.2548 85.978 31.9119V26.0407Z" fill="#B250FF"/>
</g>
<g filter="url(#filter3_d_307_3175)">
<path d="M111.322 23.8593C111.322 23.193 110.623 22.7575 110.025 23.0509L105.591 25.2255C105.282 25.3768 105.087 25.6904 105.087 26.0339V31.9162C105.087 32.5833 105.787 33.0188 106.385 32.7238L110.819 30.5381C111.127 30.3865 111.322 30.0734 111.322 29.7305V23.8593Z" fill="#B250FF"/>
<path d="M102.874 27.9206C102.874 27.2543 102.175 26.8188 101.577 27.1122L97.1426 29.2868C96.8342 29.4381 96.6387 29.7517 96.6387 30.0952V35.9775C96.6387 36.6446 97.3388 37.0801 97.9372 36.7851L102.371 34.5994C102.679 34.4478 102.874 34.1347 102.874 33.7918V27.9206Z" fill="#B250FF"/>
<path d="M94.4258 32.6082C94.4258 31.9419 93.7272 31.5064 93.1289 31.7998L88.6949 33.9744C88.3864 34.1257 88.1909 34.4393 88.1909 34.7828V40.6651C88.1909 41.3322 88.8911 41.7677 89.4894 41.4727L93.9235 39.287C94.231 39.1354 94.4258 38.8223 94.4258 38.4794V32.6082Z" fill="#B250FF"/>
<path d="M85.978 36.9896C85.978 36.3233 85.2794 35.8878 84.6812 36.1812L80.2471 38.3558C79.9387 38.5071 79.7432 38.8207 79.7432 39.1642V45.0465C79.7432 45.7136 80.4433 46.149 81.0417 45.8541L85.4757 43.6684C85.7833 43.5168 85.978 43.2037 85.978 42.8608V36.9896Z" fill="#B250FF"/>
</g>
<path d="M76.5078 3.43904L76.5078 57.9623C75.9579 57.96 75.4319 57.8501 75.043 57.6563L38.2297 39.8112C37.4355 39.4154 37.0041 38.886 37.0041 38.3262V-15.7511L75.043 3.13297C75.4319 3.32678 75.9579 3.4367 76.5078 3.43904Z" fill="#8F00FF"/>
<path d="M113.176 -14.7165L78.0365 3.26782C77.192 3.68874 75.8228 3.68874 74.9783 3.26782L37.6392 -15.053C36.7947 -15.4739 36.7947 -16.1564 37.6392 -16.5773L72.7783 -34.5616C73.6228 -34.9826 74.9921 -34.9826 75.8366 -34.5616L113.176 -16.2408C114.02 -15.8198 114.02 -15.1374 113.176 -14.7165Z" fill="#B250FF"/>
<path d="M110.222 -15.1949L77.0768 1.79539C76.6546 2.00586 75.9699 2.00586 75.5477 1.79539L40.6606 -15.3033C40.2383 -15.5138 40.2383 -15.855 40.6606 -16.0655L73.8053 -33.0558C74.2276 -33.2662 74.9122 -33.2662 75.3344 -33.0558L110.222 -15.957C110.644 -15.7465 110.644 -15.4053 110.222 -15.1949Z" fill="#B250FF"/>
<path d="M110.222 -15.1949L77.0772 1.79539C76.6549 2.00585 75.9703 2.00585 75.5481 1.79539L40.6609 -15.3033C40.2387 -15.5138 40.2387 -15.855 40.6609 -16.0655L73.8057 -33.0558C74.2279 -33.2662 74.9125 -33.2662 75.3348 -33.0558L110.222 -15.957C110.644 -15.7466 110.644 -15.4053 110.222 -15.1949Z" fill="#6B289F"/>
<g filter="url(#filter4_d_307_3175)">
<path d="M41.2075 -8.47455C41.2075 -9.14086 41.9061 -9.57634 42.5044 -9.28294L46.9384 -7.10832C47.2469 -6.95705 47.4424 -6.64345 47.4424 -6.29992V-0.417628C47.4424 0.249472 46.7422 0.68492 46.1439 0.389972L41.7098 -1.79572C41.4023 -1.94732 41.2075 -2.26044 41.2075 -2.60332V-8.47455Z" fill="#B250FF"/>
<path d="M49.6558 -4.41314C49.6558 -5.07946 50.3544 -5.51494 50.9526 -5.22154L55.3867 -3.04692C55.6951 -2.89565 55.8906 -2.58205 55.8906 -2.23852V3.64377C55.8906 4.31087 55.1905 4.74632 54.5921 4.45137L50.1581 2.26568C49.8505 2.11408 49.6558 1.80097 49.6558 1.45808V-4.41314Z" fill="#B250FF"/>
<path d="M58.1035 0.274478C58.1035 -0.391833 58.8021 -0.827316 59.4004 -0.533919L63.8344 1.64071C64.1429 1.79197 64.3384 2.10557 64.3384 2.4491V8.3314C64.3384 8.9985 63.6382 9.43394 63.0399 9.139L58.6058 6.95331C58.2983 6.80171 58.1035 6.48859 58.1035 6.14571V0.274478Z" fill="#B250FF"/>
<path d="M66.5513 4.6557C66.5513 3.98939 67.2499 3.55391 67.8481 3.84731L72.2822 6.02193C72.5906 6.1732 72.7861 6.4868 72.7861 6.83033V12.7126C72.7861 13.3797 72.086 13.8152 71.4876 13.5202L67.0536 11.3345C66.746 11.1829 66.5513 10.8698 66.5513 10.5269V4.6557Z" fill="#B250FF"/>
<path d="M41.2075 2.211C41.2075 1.54469 41.9061 1.10921 42.5044 1.4026L46.9384 3.57723C47.2469 3.7285 47.4424 4.04209 47.4424 4.38563V10.2679C47.4424 10.935 46.7422 11.3705 46.1439 11.0755L41.7098 8.88983C41.4023 8.73823 41.2075 8.42511 41.2075 8.08223V2.211Z" fill="#B250FF"/>
<path d="M49.6558 6.2724C49.6558 5.60609 50.3544 5.17061 50.9526 5.46401L55.3867 7.63863C55.6951 7.7899 55.8906 8.1035 55.8906 8.44703V14.3293C55.8906 14.9964 55.1905 15.4319 54.5921 15.1369L50.1581 12.9512C49.8505 12.7996 49.6558 12.4865 49.6558 12.1436V6.2724Z" fill="#B250FF"/>
<path d="M58.1035 10.9599C58.1035 10.2936 58.8021 9.85811 59.4004 10.1515L63.8344 12.3261C64.1429 12.4774 64.3384 12.791 64.3384 13.1345V19.0168C64.3384 19.6839 63.6382 20.1194 63.0399 19.8244L58.6058 17.6387C58.2983 17.4871 58.1035 17.174 58.1035 16.8311V10.9599Z" fill="#B250FF"/>
<path d="M66.5513 15.3413C66.5513 14.6749 67.2499 14.2395 67.8481 14.5329L72.2822 16.7075C72.5906 16.8587 72.7861 17.1723 72.7861 17.5159V23.3982C72.7861 24.0653 72.086 24.5007 71.4876 24.2058L67.0536 22.0201C66.746 21.8685 66.5513 21.5554 66.5513 21.2125V15.3413Z" fill="#B250FF"/>
<path d="M41.2075 12.8448C41.2075 12.1785 41.9061 11.743 42.5044 12.0364L46.9384 14.211C47.2469 14.3623 47.4424 14.6759 47.4424 15.0194V20.9017C47.4424 21.5688 46.7422 22.0043 46.1439 21.7093L41.7098 19.5236C41.4023 19.372 41.2075 19.0589 41.2075 18.716V12.8448Z" fill="#B250FF"/>
<path d="M49.6558 16.9061C49.6558 16.2398 50.3544 15.8043 50.9526 16.0977L55.3867 18.2723C55.6951 18.4236 55.8906 18.7372 55.8906 19.0807V24.963C55.8906 25.6301 55.1905 26.0655 54.5921 25.7706L50.1581 23.5849C49.8505 23.4333 49.6558 23.1202 49.6558 22.7773V16.9061Z" fill="#B250FF"/>
<path d="M58.1035 21.5937C58.1035 20.9274 58.8021 20.4919 59.4004 20.7853L63.8344 22.9599C64.1429 23.1112 64.3384 23.4248 64.3384 23.7683V29.6506C64.3384 30.3177 63.6382 30.7532 63.0399 30.4582L58.6058 28.2725C58.2983 28.1209 58.1035 27.8078 58.1035 27.4649V21.5937Z" fill="#B250FF"/>
<path d="M66.5513 25.975C66.5513 25.3087 67.2499 24.8732 67.8481 25.1666L72.2822 27.3413C72.5906 27.4925 72.7861 27.8061 72.7861 28.1497V34.032C72.7861 34.6991 72.086 35.1345 71.4876 34.8396L67.0536 32.6539C66.746 32.5023 66.5513 32.1891 66.5513 31.8463V25.975Z" fill="#B250FF"/>
<path d="M41.2075 23.7938C41.2075 23.1275 41.9061 22.692 42.5044 22.9854L46.9384 25.16C47.2469 25.3113 47.4424 25.6249 47.4424 25.9684V31.8507C47.4424 32.5178 46.7422 32.9532 46.1439 32.6583L41.7098 30.4726C41.4023 30.321 41.2075 30.0079 41.2075 29.665V23.7938Z" fill="#B250FF"/>
<path d="M49.6558 27.855C49.6558 27.1887 50.3544 26.7533 50.9526 27.0466L55.3867 29.2213C55.6951 29.3725 55.8906 29.6861 55.8906 30.0297V35.912C55.8906 36.5791 55.1905 37.0145 54.5921 36.7196L50.1581 34.5339C49.8505 34.3823 49.6558 34.0692 49.6558 33.7263V27.855Z" fill="#B250FF"/>
<path d="M58.1035 32.5427C58.1035 31.8764 58.8021 31.4409 59.4004 31.7343L63.8344 33.9089C64.1429 34.0602 64.3384 34.3738 64.3384 34.7173V40.5996C64.3384 41.2667 63.6382 41.7021 63.0399 41.4072L58.6058 39.2215C58.2983 39.0699 58.1035 38.7568 58.1035 38.4139V32.5427Z" fill="#B250FF"/>
<path d="M66.5513 36.9241C66.5513 36.2578 67.2499 35.8223 67.8481 36.1157L72.2822 38.2904C72.5906 38.4416 72.7861 38.7552 72.7861 39.0988V44.9811C72.7861 45.6482 72.086 46.0836 71.4876 45.7887L67.0536 43.603C66.746 43.4514 66.5513 43.1382 66.5513 42.7954V36.9241Z" fill="#B250FF"/>
</g>
<path d="M210.287 -34.839V39.8609C210.794 39.8609 211.28 39.7607 211.639 39.5823L246.689 21.7455C247.266 21.459 247.59 21.0699 247.59 20.664V-53.8228L211.639 -35.1175C211.28 -34.9391 210.794 -34.839 210.287 -34.839Z" fill="#FFBC57"/>
<path d="M210.287 -34.8333V39.8627C209.737 39.8603 209.211 39.7504 208.822 39.5566L159.182 14.8148C158.387 14.4189 157.956 13.8895 157.956 13.3297V-60.9203L208.822 -35.1394C209.211 -34.9456 209.737 -34.8357 210.287 -34.8333Z" fill="#FF9900"/>
<g filter="url(#filter5_d_307_3175)">
<path d="M227.922 -4.94781C227.922 -5.61412 227.223 -6.04961 226.625 -5.75621L222.191 -3.58158C221.883 -3.43032 221.687 -3.11672 221.687 -2.77319V3.10911C221.687 3.77621 222.387 4.21165 222.986 3.91671L227.42 1.73102C227.727 1.57942 227.922 1.2663 227.922 0.923416V-4.94781Z" fill="#FFE6BF"/>
<path d="M219.474 -0.566464C219.474 -1.23278 218.776 -1.66826 218.177 -1.37486L213.743 0.799764C213.435 0.951032 213.239 1.26463 213.239 1.60816V7.49045C213.239 8.15755 213.939 8.593 214.538 8.29805L218.972 6.11236C219.279 5.96076 219.474 5.64764 219.474 5.30476V-0.566464Z" fill="#FFE6BF"/>
<path d="M244.817 -2.89215C244.817 -3.55846 244.119 -3.99394 243.521 -3.70055L239.086 -1.52592C238.778 -1.37465 238.583 -1.06106 238.583 -0.717522V5.16477C238.583 5.83187 239.283 6.26732 239.881 5.97237L244.315 3.78668C244.623 3.63508 244.817 3.32196 244.817 2.97908V-2.89215Z" fill="#FFE6BF"/>
<path d="M236.37 1.16913C236.37 0.50282 235.671 0.067337 235.073 0.360734L230.639 2.53536C230.33 2.68663 230.135 3.00022 230.135 3.34376V9.22605C230.135 9.89315 230.835 10.3286 231.433 10.0336L235.867 7.84796C236.175 7.69636 236.37 7.38324 236.37 7.04036V1.16913Z" fill="#FFE6BF"/>
<path d="M227.922 5.85688C227.922 5.19056 227.223 4.75508 226.625 5.04848L222.191 7.2231C221.883 7.37437 221.687 7.68797 221.687 8.0315V13.9138C221.687 14.5809 222.387 15.0163 222.986 14.7214L227.42 12.5357C227.727 12.3841 227.922 12.071 227.922 11.7281V5.85688Z" fill="#FFE6BF"/>
<path d="M219.474 10.2382C219.474 9.57191 218.776 9.13643 218.177 9.42983L213.743 11.6045C213.435 11.7557 213.239 12.0693 213.239 12.4128V18.2951C213.239 18.9622 213.939 19.3977 214.538 19.1027L218.972 16.9171C219.279 16.7655 219.474 16.4523 219.474 16.1095V10.2382Z" fill="#FFE6BF"/>
<path d="M244.817 7.91266C244.817 7.24635 244.119 6.81087 243.521 7.10426L239.086 9.27889C238.778 9.43016 238.583 9.74375 238.583 10.0873V15.9696C238.583 16.6367 239.283 17.0721 239.881 16.7772L244.315 14.5915C244.623 14.4399 244.817 14.1268 244.817 13.7839V7.91266Z" fill="#FFE6BF"/>
<path d="M236.37 11.9739C236.37 11.3076 235.671 10.8721 235.073 11.1655L230.639 13.3402C230.33 13.4914 230.135 13.805 230.135 14.1486V20.0309C230.135 20.698 230.835 21.1334 231.433 20.8385L235.867 18.6528C236.175 18.5012 236.37 18.1881 236.37 17.8452V11.9739Z" fill="#FFE6BF"/>
<path d="M227.922 16.6616C227.922 15.9953 227.223 15.5598 226.625 15.8532L222.191 18.0278C221.883 18.1791 221.687 18.4927 221.687 18.8362V24.7185C221.687 25.3856 222.387 25.821 222.986 25.5261L227.42 23.3404C227.727 23.1888 227.922 22.8757 227.922 22.5328V16.6616Z" fill="#FFE6BF"/>
<path d="M219.474 21.043C219.474 20.3767 218.776 19.9412 218.177 20.2346L213.743 22.4093C213.435 22.5605 213.239 22.8741 213.239 23.2177V29.1C213.239 29.7671 213.939 30.2025 214.538 29.9076L218.972 27.7219C219.279 27.5703 219.474 27.2571 219.474 26.9143V21.043Z" fill="#FFE6BF"/>
</g>
<g filter="url(#filter6_d_307_3175)">
<path d="M163.065 -51.4393C163.065 -52.1056 163.764 -52.5411 164.362 -52.2477L168.796 -50.0731C169.104 -49.9218 169.3 -49.6082 169.3 -49.2647V19.8495L163.065 16.7761V-51.4393Z" fill="#FFE6BF"/>
<path d="M192.405 -4.94781C192.405 -5.61412 193.103 -6.04961 193.702 -5.75621L198.136 -3.58158C198.444 -3.43032 198.64 -3.11672 198.64 -2.77319V3.10911C198.64 3.77621 197.94 4.21165 197.341 3.91671L192.907 1.73102C192.6 1.57942 192.405 1.2663 192.405 0.923416V-4.94781Z" fill="#FFE6BF"/>
<path d="M200.853 -0.566464C200.853 -1.23278 201.551 -1.66826 202.149 -1.37486L206.583 0.799764C206.892 0.951032 207.087 1.26463 207.087 1.60816V7.49045C207.087 8.15755 206.387 8.593 205.789 8.29805L201.355 6.11236C201.047 5.96076 200.853 5.64764 200.853 5.30476V-0.566464Z" fill="#FFE6BF"/>
<path d="M175.509 -2.89215C175.509 -3.55846 176.207 -3.99394 176.806 -3.70055L181.24 -1.52592C181.548 -1.37465 181.744 -1.06106 181.744 -0.717522V5.16477C181.744 5.83187 181.044 6.26732 180.445 5.97237L176.011 3.78668C175.704 3.63508 175.509 3.32196 175.509 2.97908V-2.89215Z" fill="#FFE6BF"/>
<path d="M183.957 1.16913C183.957 0.50282 184.656 0.067337 185.254 0.360734L189.688 2.53536C189.996 2.68663 190.192 3.00022 190.192 3.34376V9.22605C190.192 9.89315 189.492 10.3286 188.893 10.0336L184.459 7.84796C184.152 7.69636 183.957 7.38324 183.957 7.04036V1.16913Z" fill="#FFE6BF"/>
<path d="M192.405 5.85688C192.405 5.19056 193.103 4.75508 193.702 5.04848L198.136 7.2231C198.444 7.37437 198.64 7.68797 198.64 8.0315V13.9138C198.64 14.5809 197.94 15.0163 197.341 14.7214L192.907 12.5357C192.6 12.3841 192.405 12.071 192.405 11.7281V5.85688Z" fill="#FFE6BF"/>
<path d="M200.853 10.2382C200.853 9.57191 201.551 9.13643 202.149 9.42983L206.583 11.6045C206.892 11.7557 207.087 12.0693 207.087 12.4128V18.2951C207.087 18.9622 206.387 19.3977 205.789 19.1027L201.355 16.9171C201.047 16.7655 200.853 16.4523 200.853 16.1095V10.2382Z" fill="#FFE6BF"/>
<path d="M175.509 7.91254C175.509 7.24623 176.207 6.81075 176.806 7.10414L181.24 9.27877C181.548 9.43004 181.744 9.74363 181.744 10.0872V15.9695C181.744 16.6366 181.044 17.072 180.445 16.7771L176.011 14.5914C175.704 14.4398 175.509 14.1266 175.509 13.7838V7.91254Z" fill="#FFE6BF"/>
<path d="M183.957 11.9738C183.957 11.3075 184.656 10.872 185.254 11.1654L189.688 13.34C189.996 13.4913 190.192 13.8049 190.192 14.1484V20.0307C190.192 20.6978 189.492 21.1333 188.893 20.8383L184.459 18.6526C184.152 18.501 183.957 18.1879 183.957 17.845V11.9738Z" fill="#FFE6BF"/>
<path d="M192.405 16.6614C192.405 15.9951 193.103 15.5596 193.702 15.853L198.136 18.0277C198.444 18.1789 198.64 18.4925 198.64 18.8361V24.7184C198.64 25.3855 197.94 25.8209 197.341 25.526L192.907 23.3403C192.6 23.1887 192.405 22.8756 192.405 22.5327V16.6614Z" fill="#FFE6BF"/>
<path d="M200.853 21.0429C200.853 20.3766 201.551 19.9411 202.149 20.2345L206.583 22.4091C206.892 22.5604 207.087 22.874 207.087 23.2175V29.0998C207.087 29.7669 206.387 30.2024 205.789 29.9074L201.355 27.7217C201.047 27.5701 200.853 27.257 200.853 26.9141V21.0429Z" fill="#FFE6BF"/>
</g>
<path d="M134.504 70.0084L134.504 95.7405C135.011 95.7405 135.497 95.6403 135.856 95.462L170.907 77.6251C171.483 77.3386 171.808 76.9495 171.808 76.5436V51.0247L135.856 69.7299C135.497 69.9083 135.011 70.0084 134.504 70.0084Z" fill="#1293AF"/>
<g filter="url(#filter7_d_307_3175)">
<path d="M169.318 62.4207C169.318 61.7544 168.619 61.3189 168.021 61.6123L163.587 63.7869C163.279 63.9382 163.083 64.2518 163.083 64.5953V70.4776C163.083 71.1447 163.783 71.5802 164.381 71.2852L168.816 69.0995C169.123 68.9479 169.318 68.6348 169.318 68.2919V62.4207Z" fill="#50F4FF"/>
</g>
<g filter="url(#filter8_d_307_3175)">
<path d="M160.87 66.482C160.87 65.8157 160.172 65.3802 159.573 65.6736L155.139 67.8482C154.831 67.9995 154.635 68.3131 154.635 68.6566V74.5389C154.635 75.206 155.335 75.6415 155.934 75.3465L160.368 73.1608C160.675 73.0092 160.87 72.6961 160.87 72.3532V66.482Z" fill="#50F4FF"/>
</g>
<g filter="url(#filter9_d_307_3175)">
<path d="M152.422 71.1696C152.422 70.5033 151.723 70.0678 151.125 70.3612L146.691 72.5358C146.383 72.6871 146.187 73.0007 146.187 73.3442V79.2265C146.187 79.8936 146.887 80.3291 147.486 80.0341L151.92 77.8484C152.227 77.6968 152.422 77.3837 152.422 77.0408V71.1696Z" fill="#50F4FF"/>
</g>
<g filter="url(#filter10_d_307_3175)">
<path d="M143.974 75.551C143.974 74.8847 143.276 74.4492 142.677 74.7426L138.243 76.9172C137.935 77.0685 137.739 77.3821 137.739 77.7256V83.6079C137.739 84.275 138.439 84.7104 139.038 84.4155L143.472 82.2298C143.779 82.0782 143.974 81.7651 143.974 81.4222V75.551Z" fill="#50F4FF"/>
</g>
<path d="M134.504 70.0098L134.504 95.7409C133.954 95.7386 133.428 95.6287 133.039 95.4349L96.2258 77.5898C95.4316 77.194 95.0002 76.6646 95.0002 76.1048V50.8197L133.039 69.7038C133.428 69.8976 133.954 70.0075 134.504 70.0098Z" fill="#00D1FF"/>
<path d="M136.033 69.8387L171.172 51.8544C171.674 51.6038 171.878 51.2606 171.782 50.935L171.68 50.7305L151.883 11L114.543 30.219L133.555 68.3717L134.443 70.154C135.016 70.1619 135.595 70.0569 136.033 69.8387Z" fill="#50F4FF"/>
<path d="M95.6353 51.5179L132.974 69.8387C133.381 70.0415 133.91 70.1466 134.443 70.154L133.555 68.3717L114.543 30.219L95.0094 50.6659C94.9586 50.9709 95.1672 51.2846 95.6353 51.5179Z" fill="#50F4FF"/>
<g filter="url(#filter11_d_307_3175)">
<path d="M99.2036 62.7874C99.2036 62.1211 99.9022 61.6856 100.5 61.979L104.935 64.1536C105.243 64.3049 105.438 64.6185 105.438 64.962V70.8443C105.438 71.5114 104.738 71.9469 104.14 71.6519L99.7059 69.4662C99.3984 69.3146 99.2036 69.0015 99.2036 68.6586V62.7874Z" fill="#50F4FF"/>
</g>
<g filter="url(#filter12_d_307_3175)">
<path d="M107.651 66.8486C107.651 66.1823 108.35 65.7468 108.948 66.0402L113.382 68.2148C113.691 68.3661 113.886 68.6797 113.886 69.0232V74.9055C113.886 75.5726 113.186 76.008 112.588 75.7131L108.154 73.5274C107.846 73.3758 107.651 73.0627 107.651 72.7198V66.8486Z" fill="#50F4FF"/>
</g>
<g filter="url(#filter13_d_307_3175)">
<path d="M116.1 71.5363C116.1 70.87 116.798 70.4345 117.396 70.7279L121.831 72.9025C122.139 73.0538 122.334 73.3674 122.334 73.7109V79.5932C122.334 80.2603 121.634 80.6958 121.036 80.4008L116.602 78.2151C116.294 78.0635 116.1 77.7504 116.1 77.4075V71.5363Z" fill="#50F4FF"/>
</g>
<g filter="url(#filter14_d_307_3175)">
<path d="M124.547 75.9177C124.547 75.2514 125.245 74.8159 125.844 75.1093L130.278 77.2839C130.586 77.4352 130.782 77.7488 130.782 78.0923V83.9746C130.782 84.6417 130.082 85.0771 129.483 84.7822L125.049 82.5965C124.742 82.4449 124.547 82.1318 124.547 81.7889V75.9177Z" fill="#50F4FF"/>
</g>
<path d="M136.033 69.8387L171.172 51.8544C171.674 51.6038 171.878 51.2606 171.782 50.935L171.68 50.7305L151.883 11L114.543 30.219L133.555 68.3717L134.443 70.154C135.016 70.1619 135.595 70.0569 136.033 69.8387Z" fill="#28989F"/>
<path d="M235.026 81.1678L235.026 106.9C235.533 106.9 236.019 106.8 236.378 106.621L271.429 88.7844C272.005 88.4979 272.329 88.1088 272.329 87.7029V62.184L236.378 80.8892C236.019 81.0676 235.533 81.1678 235.026 81.1678Z" fill="#9912AF"/>
<path d="M235.026 81.1693L235.026 106.9C234.476 106.898 233.95 106.788 233.561 106.594L196.748 88.7492C195.954 88.3534 195.522 87.824 195.522 87.2642V61.9791L233.561 80.8632C233.95 81.057 234.476 81.1669 235.026 81.1693Z" fill="#DB00FF"/>
<path d="M236.555 80.998L271.694 63.0137C272.196 62.7631 272.4 62.4199 272.304 62.0943L272.202 61.8898L252.405 22.1593L215.065 41.3783L234.077 79.531L234.965 81.3133C235.538 81.3212 236.117 81.2162 236.555 80.998Z" fill="#D150FF"/>
<path d="M196.157 62.6772L233.496 80.998C233.903 81.2008 234.432 81.3059 234.965 81.3133L234.077 79.531L215.065 41.3783L195.531 61.8252C195.481 62.1302 195.689 62.4439 196.157 62.6772Z" fill="#D150FF"/>
<g filter="url(#filter15_d_307_3175)">
<path d="M269.839 73.58C269.839 72.9137 269.141 72.4782 268.543 72.7716L264.108 74.9462C263.8 75.0975 263.605 75.4111 263.605 75.7546V81.6369C263.605 82.304 264.305 82.7395 264.903 82.4445L269.337 80.2588C269.645 80.1072 269.839 79.7941 269.839 79.4512V73.58Z" fill="#D150FF"/>
<path d="M261.392 77.6413C261.392 76.975 260.693 76.5395 260.095 76.8329L255.661 79.0075C255.352 79.1588 255.157 79.4724 255.157 79.8159V85.6982C255.157 86.3653 255.857 86.8008 256.455 86.5058L260.889 84.3201C261.197 84.1685 261.392 83.8554 261.392 83.5125V77.6413Z" fill="#D150FF"/>
<path d="M252.944 82.329C252.944 81.6627 252.245 81.2272 251.647 81.5206L247.213 83.6953C246.904 83.8465 246.709 84.1601 246.709 84.5037V90.386C246.709 91.0531 247.409 91.4885 248.007 91.1936L252.442 89.0079C252.749 88.8563 252.944 88.5432 252.944 88.2003V82.329Z" fill="#D150FF"/>
<path d="M244.496 86.7104C244.496 86.0441 243.797 85.6086 243.199 85.902L238.765 88.0766C238.457 88.2279 238.261 88.5415 238.261 88.885V94.7673C238.261 95.4344 238.961 95.8699 239.56 95.5749L243.994 93.3892C244.301 93.2376 244.496 92.9245 244.496 92.5816V86.7104Z" fill="#D150FF"/>
<path d="M199.726 73.9467C199.726 73.2804 200.424 72.8449 201.022 73.1383L205.457 75.3129C205.765 75.4642 205.96 75.7778 205.96 76.1213V82.0036C205.96 82.6707 205.26 83.1062 204.662 82.8112L200.228 80.6255C199.92 80.4739 199.726 80.1608 199.726 79.8179V73.9467Z" fill="#D150FF"/>
<path d="M208.173 78.008C208.173 77.3417 208.872 76.9062 209.47 77.1996L213.904 79.3742C214.213 79.5255 214.408 79.8391 214.408 80.1826V86.0649C214.408 86.732 213.708 87.1675 213.11 86.8725L208.676 84.6868C208.368 84.5352 208.173 84.2221 208.173 83.8792V78.008Z" fill="#D150FF"/>
<path d="M216.621 82.6956C216.621 82.0293 217.32 81.5938 217.918 81.8872L222.352 84.0618C222.66 84.2131 222.856 84.5267 222.856 84.8702V90.7525C222.856 91.4196 222.156 91.8551 221.557 91.5601L217.123 89.3744C216.816 89.2228 216.621 88.9097 216.621 88.5668V82.6956Z" fill="#D150FF"/>
<path d="M225.069 87.077C225.069 86.4107 225.767 85.9752 226.366 86.2686L230.8 88.4432C231.108 88.5945 231.304 88.9081 231.304 89.2516V95.1339C231.304 95.801 230.604 96.2364 230.005 95.9415L225.571 93.7558C225.264 93.6042 225.069 93.2911 225.069 92.9482V87.077Z" fill="#D150FF"/>
</g>
<path d="M236.555 80.9981L271.694 63.0139C272.196 62.7633 272.4 62.42 272.304 62.0944L272.202 61.89L252.405 22.1594L215.065 41.3784L234.077 79.5311L234.965 81.3134C235.538 81.3214 236.117 81.2163 236.555 80.9981Z" fill="#8E289F"/>
<rect x="236" y="8" width="77" height="20" rx="4.5184" fill="#FFA113"/>
<path d="M250.068 19.3463C250.068 19.7077 249.975 20.012 249.788 20.259C249.601 20.5 249.348 20.6837 249.029 20.8102C248.716 20.9367 248.372 21 247.999 21H244.899V14.5839H248.333C248.634 14.5839 248.893 14.6652 249.11 14.8279C249.333 14.9845 249.502 15.1893 249.616 15.4424C249.737 15.6894 249.797 15.9484 249.797 16.2195C249.797 16.5268 249.719 16.819 249.562 17.0961C249.405 17.3732 249.176 17.5781 248.875 17.7106C249.243 17.819 249.532 18.0148 249.743 18.298C249.96 18.5812 250.068 18.9306 250.068 19.3463ZM248.812 19.1113C248.812 18.9486 248.779 18.8041 248.713 18.6775C248.646 18.545 248.556 18.4426 248.441 18.3703C248.333 18.292 248.206 18.2528 248.062 18.2528H246.146V19.9427H247.999C248.149 19.9427 248.285 19.9065 248.405 19.8343C248.532 19.7559 248.631 19.6535 248.703 19.527C248.776 19.4005 248.812 19.2619 248.812 19.1113ZM246.146 15.6502V17.2678H247.809C247.947 17.2678 248.074 17.2347 248.188 17.1684C248.303 17.1021 248.393 17.0087 248.459 16.8883C248.532 16.7678 248.568 16.6232 248.568 16.4545C248.568 16.2918 248.535 16.1503 248.469 16.0298C248.408 15.9093 248.324 15.8159 248.215 15.7496C248.113 15.6834 247.996 15.6502 247.863 15.6502H246.146ZM255.932 21.0904C255.565 21.0904 255.239 21.009 254.956 20.8464C254.679 20.6777 254.462 20.4518 254.306 20.1686V22.9248H253.095V16.2647H254.152V17.078C254.333 16.8009 254.562 16.584 254.839 16.4274C255.116 16.2647 255.432 16.1834 255.788 16.1834C256.107 16.1834 256.399 16.2466 256.664 16.3732C256.935 16.4997 257.17 16.6774 257.369 16.9063C257.568 17.1292 257.721 17.3883 257.83 17.6835C257.944 17.9727 258.002 18.2859 258.002 18.6233C258.002 19.0812 257.911 19.4969 257.731 19.8704C257.556 20.2439 257.312 20.5421 256.999 20.765C256.691 20.9819 256.336 21.0904 255.932 21.0904ZM255.526 20.0602C255.712 20.0602 255.881 20.021 256.032 19.9427C256.182 19.8644 256.312 19.7589 256.42 19.6264C256.535 19.4878 256.619 19.3342 256.673 19.1655C256.733 18.9908 256.764 18.8101 256.764 18.6233C256.764 18.4245 256.73 18.2408 256.664 18.0721C256.604 17.9034 256.514 17.7558 256.393 17.6293C256.273 17.4967 256.131 17.3943 255.968 17.322C255.812 17.2497 255.64 17.2136 255.453 17.2136C255.339 17.2136 255.221 17.2347 255.101 17.2768C254.986 17.313 254.875 17.3672 254.766 17.4395C254.658 17.5118 254.562 17.5961 254.477 17.6925C254.399 17.7889 254.342 17.8944 254.306 18.0088V19.1203C254.378 19.2951 254.474 19.4547 254.595 19.5993C254.721 19.7439 254.866 19.8584 255.029 19.9427C255.191 20.021 255.357 20.0602 255.526 20.0602ZM258.497 19.5993C258.497 19.292 258.581 19.024 258.75 18.795C258.924 18.5601 259.165 18.3793 259.473 18.2528C259.78 18.1263 260.132 18.063 260.53 18.063C260.729 18.063 260.931 18.0781 261.135 18.1082C261.34 18.1383 261.518 18.1865 261.669 18.2528V17.9998C261.669 17.6986 261.578 17.4666 261.398 17.304C261.223 17.1413 260.961 17.06 260.611 17.06C260.352 17.06 260.105 17.1051 259.87 17.1955C259.635 17.2859 259.388 17.4184 259.129 17.5931L258.741 16.7979C259.054 16.5931 259.373 16.4394 259.699 16.337C260.03 16.2346 260.376 16.1834 260.738 16.1834C261.413 16.1834 261.937 16.3521 262.31 16.6894C262.69 17.0268 262.88 17.5088 262.88 18.1353V19.6445C262.88 19.771 262.901 19.8614 262.943 19.9156C262.991 19.9698 263.066 20.0029 263.169 20.015V21C263.06 21.0181 262.961 21.0331 262.871 21.0452C262.786 21.0572 262.714 21.0633 262.654 21.0633C262.413 21.0633 262.229 21.009 262.102 20.9006C261.982 20.7922 261.907 20.6596 261.877 20.503L261.849 20.259C261.645 20.5241 261.389 20.7289 261.081 20.8735C260.774 21.0181 260.461 21.0904 260.141 21.0904C259.828 21.0904 259.545 21.0271 259.292 20.9006C259.045 20.7681 258.849 20.5903 258.705 20.3674C258.566 20.1385 258.497 19.8824 258.497 19.5993ZM261.443 19.8433C261.509 19.771 261.563 19.6987 261.605 19.6264C261.648 19.5541 261.669 19.4878 261.669 19.4276V18.9486C261.524 18.8884 261.367 18.8432 261.199 18.8131C261.03 18.7769 260.87 18.7589 260.72 18.7589C260.407 18.7589 260.147 18.8282 259.943 18.9667C259.744 19.0993 259.644 19.277 259.644 19.4999C259.644 19.6204 259.678 19.7348 259.744 19.8433C259.81 19.9517 259.906 20.0391 260.033 20.1054C260.16 20.1716 260.31 20.2048 260.485 20.2048C260.666 20.2048 260.843 20.1716 261.018 20.1054C261.193 20.0331 261.334 19.9457 261.443 19.8433ZM265.701 21.0723C265.195 21.0723 264.773 20.9819 264.436 20.8012C264.099 20.6205 263.833 20.3704 263.641 20.0511L264.617 19.6083C264.719 19.765 264.852 19.8885 265.014 19.9788C265.183 20.0632 265.391 20.1054 265.638 20.1054C265.921 20.1054 266.138 20.0511 266.288 19.9427C266.445 19.8282 266.523 19.6806 266.523 19.4999C266.523 19.3312 266.46 19.1957 266.334 19.0932C266.207 18.9908 266.02 18.9396 265.773 18.9396H265.285V18.1896H265.782C265.897 18.1896 265.993 18.1685 266.072 18.1263C266.156 18.0781 266.219 18.0148 266.261 17.9365C266.31 17.8582 266.334 17.7678 266.334 17.6654C266.334 17.5148 266.273 17.3913 266.153 17.2949C266.038 17.1985 265.855 17.1503 265.602 17.1503C265.391 17.1503 265.216 17.1895 265.078 17.2678C264.945 17.3461 264.834 17.4636 264.743 17.6202L263.83 17.1323C263.999 16.837 264.24 16.6051 264.553 16.4364C264.873 16.2677 265.243 16.1834 265.665 16.1834C265.996 16.1834 266.291 16.2346 266.551 16.337C266.816 16.4394 267.023 16.587 267.174 16.7798C267.325 16.9726 267.4 17.2136 267.4 17.5028C267.4 17.7076 267.349 17.9064 267.246 18.0992C267.15 18.292 266.99 18.4335 266.767 18.5239C267.057 18.6083 267.273 18.7529 267.418 18.9577C267.569 19.1625 267.644 19.4035 267.644 19.6806C267.644 19.9819 267.56 20.2379 267.391 20.4488C267.222 20.6536 266.993 20.8102 266.704 20.9187C266.415 21.0211 266.081 21.0723 265.701 21.0723ZM271.332 21.0904C270.964 21.0904 270.639 21.009 270.356 20.8464C270.079 20.6777 269.862 20.4518 269.705 20.1686V22.9248H268.494V16.2647H269.552V17.078C269.732 16.8009 269.961 16.584 270.238 16.4274C270.516 16.2647 270.832 16.1834 271.187 16.1834C271.507 16.1834 271.799 16.2466 272.064 16.3732C272.335 16.4997 272.57 16.6774 272.769 16.9063C272.967 17.1292 273.121 17.3883 273.23 17.6835C273.344 17.9727 273.401 18.2859 273.401 18.6233C273.401 19.0812 273.311 19.4969 273.13 19.8704C272.955 20.2439 272.711 20.5421 272.398 20.765C272.091 20.9819 271.735 21.0904 271.332 21.0904ZM270.925 20.0602C271.112 20.0602 271.281 20.021 271.431 19.9427C271.582 19.8644 271.711 19.7589 271.82 19.6264C271.934 19.4878 272.019 19.3342 272.073 19.1655C272.133 18.9908 272.163 18.8101 272.163 18.6233C272.163 18.4245 272.13 18.2408 272.064 18.0721C272.004 17.9034 271.913 17.7558 271.793 17.6293C271.672 17.4967 271.531 17.3943 271.368 17.322C271.211 17.2497 271.04 17.2136 270.853 17.2136C270.738 17.2136 270.621 17.2347 270.5 17.2768C270.386 17.313 270.275 17.3672 270.166 17.4395C270.058 17.5118 269.961 17.5961 269.877 17.6925C269.799 17.7889 269.741 17.8944 269.705 18.0088V19.1203C269.777 19.2951 269.874 19.4547 269.994 19.5993C270.121 19.7439 270.265 19.8584 270.428 19.9427C270.591 20.021 270.756 20.0602 270.925 20.0602ZM273.896 19.5993C273.896 19.292 273.981 19.024 274.149 18.795C274.324 18.5601 274.565 18.3793 274.872 18.2528C275.18 18.1263 275.532 18.063 275.93 18.063C276.128 18.063 276.33 18.0781 276.535 18.1082C276.74 18.1383 276.918 18.1865 277.068 18.2528V17.9998C277.068 17.6986 276.978 17.4666 276.797 17.304C276.622 17.1413 276.36 17.06 276.011 17.06C275.752 17.06 275.505 17.1051 275.27 17.1955C275.035 17.2859 274.788 17.4184 274.529 17.5931L274.14 16.7979C274.454 16.5931 274.773 16.4394 275.098 16.337C275.43 16.2346 275.776 16.1834 276.137 16.1834C276.812 16.1834 277.336 16.3521 277.71 16.6894C278.089 17.0268 278.279 17.5088 278.279 18.1353V19.6445C278.279 19.771 278.3 19.8614 278.342 19.9156C278.391 19.9698 278.466 20.0029 278.568 20.015V21C278.46 21.0181 278.361 21.0331 278.27 21.0452C278.186 21.0572 278.114 21.0633 278.053 21.0633C277.812 21.0633 277.629 21.009 277.502 20.9006C277.382 20.7922 277.306 20.6596 277.276 20.503L277.249 20.259C277.044 20.5241 276.788 20.7289 276.481 20.8735C276.174 21.0181 275.86 21.0904 275.541 21.0904C275.228 21.0904 274.945 21.0271 274.692 20.9006C274.445 20.7681 274.249 20.5903 274.104 20.3674C273.966 20.1385 273.896 19.8824 273.896 19.5993ZM276.842 19.8433C276.909 19.771 276.963 19.6987 277.005 19.6264C277.047 19.5541 277.068 19.4878 277.068 19.4276V18.9486C276.924 18.8884 276.767 18.8432 276.598 18.8131C276.43 18.7769 276.27 18.7589 276.119 18.7589C275.806 18.7589 275.547 18.8282 275.342 18.9667C275.143 19.0993 275.044 19.277 275.044 19.4999C275.044 19.6204 275.077 19.7348 275.143 19.8433C275.21 19.9517 275.306 20.0391 275.433 20.1054C275.559 20.1716 275.71 20.2048 275.884 20.2048C276.065 20.2048 276.243 20.1716 276.418 20.1054C276.592 20.0331 276.734 19.9457 276.842 19.8433ZM281.769 21.0904C280.956 21.0904 280.339 20.8524 279.917 20.3765C279.501 19.8945 279.293 19.1926 279.293 18.2709C279.293 17.6925 279.345 17.2045 279.447 16.8069C279.549 16.4093 279.7 16.081 279.899 15.8219C280.098 15.5629 280.348 15.352 280.649 15.1893C280.956 15.0267 281.309 14.8972 281.706 14.8008L283.739 14.2857L283.757 15.2707L281.751 15.7948C281.462 15.8791 281.209 15.9966 280.992 16.1472C280.775 16.2918 280.601 16.4816 280.468 16.7166C280.342 16.9455 280.26 17.2347 280.224 17.5841C280.405 17.2889 280.652 17.0569 280.965 16.8883C281.278 16.7135 281.658 16.6262 282.104 16.6262C282.525 16.6262 282.896 16.7166 283.215 16.8973C283.535 17.078 283.782 17.328 283.956 17.6473C284.137 17.9666 284.227 18.3372 284.227 18.7589C284.227 19.2107 284.131 19.6144 283.938 19.9698C283.751 20.3192 283.474 20.5933 283.107 20.7922C282.745 20.991 282.3 21.0904 281.769 21.0904ZM281.769 20.0602C282.143 20.0602 282.438 19.9487 282.655 19.7258C282.878 19.4969 282.989 19.1957 282.989 18.8221C282.989 18.4607 282.881 18.1655 282.664 17.9365C282.447 17.7076 282.149 17.5931 281.769 17.5931C281.534 17.5931 281.324 17.6413 281.137 17.7377C280.956 17.8341 280.811 17.9757 280.703 18.1624C280.595 18.3432 280.54 18.5631 280.54 18.8221C280.54 19.0631 280.589 19.277 280.685 19.4637C280.781 19.6505 280.92 19.7981 281.101 19.9065C281.287 20.009 281.51 20.0602 281.769 20.0602ZM287.219 21.0904C286.834 21.0904 286.487 21.0271 286.18 20.9006C285.873 20.7681 285.611 20.5873 285.394 20.3584C285.183 20.1295 285.02 19.8674 284.906 19.5722C284.791 19.277 284.734 18.9667 284.734 18.6414C284.734 18.31 284.791 17.9968 284.906 17.7016C285.02 17.4064 285.183 17.1443 285.394 16.9154C285.611 16.6864 285.873 16.5087 286.18 16.3822C286.487 16.2497 286.834 16.1834 287.219 16.1834C287.605 16.1834 287.948 16.2497 288.249 16.3822C288.557 16.5087 288.819 16.6864 289.036 16.9154C289.252 17.1443 289.415 17.4064 289.524 17.7016C289.638 17.9968 289.695 18.31 289.695 18.6414C289.695 18.9667 289.638 19.277 289.524 19.5722C289.415 19.8674 289.252 20.1295 289.036 20.3584C288.825 20.5873 288.566 20.7681 288.258 20.9006C287.951 21.0271 287.605 21.0904 287.219 21.0904ZM285.981 18.6414C285.981 18.9185 286.035 19.1655 286.144 19.3824C286.252 19.5933 286.4 19.7589 286.587 19.8794C286.773 19.9999 286.984 20.0602 287.219 20.0602C287.448 20.0602 287.656 19.9999 287.843 19.8794C288.03 19.7529 288.177 19.5842 288.286 19.3734C288.4 19.1565 288.457 18.9095 288.457 18.6324C288.457 18.3613 288.4 18.1173 288.286 17.9004C288.177 17.6835 288.03 17.5148 287.843 17.3943C287.656 17.2738 287.448 17.2136 287.219 17.2136C286.984 17.2136 286.773 17.2768 286.587 17.4034C286.4 17.5238 286.252 17.6925 286.144 17.9094C286.035 18.1203 285.981 18.3643 285.981 18.6414ZM291.606 21V17.322H290.106V16.2647H294.326V17.322H292.817V21H291.606ZM295.005 21V16.2647H296.215V18.054H296.622L297.905 16.2647H299.225L297.544 18.551L299.405 21H298.023L296.604 19.1203H296.215V21H295.005ZM302.107 21.0904C301.728 21.0904 301.384 21.0271 301.077 20.9006C300.77 20.7681 300.508 20.5903 300.291 20.3674C300.074 20.1385 299.905 19.8794 299.785 19.5903C299.67 19.2951 299.613 18.9848 299.613 18.6595C299.613 18.2076 299.712 17.7949 299.911 17.4214C300.116 17.0479 300.405 16.7497 300.779 16.5268C301.158 16.2979 301.604 16.1834 302.116 16.1834C302.634 16.1834 303.077 16.2979 303.445 16.5268C303.812 16.7497 304.092 17.0479 304.285 17.4214C304.484 17.7889 304.583 18.1865 304.583 18.6143C304.583 18.6866 304.58 18.7619 304.574 18.8402C304.568 18.9125 304.562 18.9727 304.556 19.0209H300.896C300.92 19.2619 300.99 19.4728 301.104 19.6535C301.225 19.8343 301.375 19.9728 301.556 20.0692C301.743 20.1596 301.942 20.2048 302.152 20.2048C302.393 20.2048 302.619 20.1475 302.83 20.0331C303.047 19.9126 303.195 19.7559 303.273 19.5631L304.312 19.8523C304.198 20.0933 304.032 20.3072 303.815 20.4939C303.604 20.6807 303.354 20.8283 303.065 20.9367C302.776 21.0392 302.457 21.0904 302.107 21.0904ZM300.869 18.2528H303.345C303.321 18.0118 303.252 17.804 303.137 17.6293C303.029 17.4485 302.884 17.31 302.704 17.2136C302.523 17.1112 302.321 17.06 302.098 17.06C301.881 17.06 301.682 17.1112 301.502 17.2136C301.327 17.31 301.182 17.4485 301.068 17.6293C300.96 17.804 300.893 18.0118 300.869 18.2528Z" fill="#2B313A"/>
</g>
<defs>
<filter id="filter0_d_307_3175" x="78.6627" y="-10.3909" width="33.7395" height="25.1513" filterUnits="userSpaceOnUse" color-interpolation-filters="sRGB">
<feFlood flood-opacity="0" result="BackgroundImageFix"/>
<feColorMatrix in="SourceAlpha" type="matrix" values="0 0 0 0 0 0 0 0 0 0 0 0 0 0 0 0 0 0 127 0" result="hardAlpha"/>
<feOffset/>
<feGaussianBlur stdDeviation="0.540231"/>
<feComposite in2="hardAlpha" operator="out"/>
<feColorMatrix type="matrix" values="0 0 0 0 0.698039 0 0 0 0 0.313726 0 0 0 0 1 0 0 0 1 0"/>
<feBlend mode="normal" in2="BackgroundImageFix" result="effect1_dropShadow_307_3175"/>
<feBlend mode="normal" in="SourceGraphic" in2="effect1_dropShadow_307_3175" result="shape"/>
</filter>
<filter id="filter1_d_307_3175" x="78.6627" y="0.294538" width="33.7395" height="25.1512" filterUnits="userSpaceOnUse" color-interpolation-filters="sRGB">
<feFlood flood-opacity="0" result="BackgroundImageFix"/>
<feColorMatrix in="SourceAlpha" type="matrix" values="0 0 0 0 0 0 0 0 0 0 0 0 0 0 0 0 0 0 127 0" result="hardAlpha"/>
<feOffset/>
<feGaussianBlur stdDeviation="0.540231"/>
<feComposite in2="hardAlpha" operator="out"/>
<feColorMatrix type="matrix" values="0 0 0 0 0.698039 0 0 0 0 0.313726 0 0 0 0 1 0 0 0 1 0"/>
<feBlend mode="normal" in2="BackgroundImageFix" result="effect1_dropShadow_307_3175"/>
<feBlend mode="normal" in="SourceGraphic" in2="effect1_dropShadow_307_3175" result="shape"/>
</filter>
<filter id="filter2_d_307_3175" x="78.6627" y="10.9283" width="33.7395" height="25.1513" filterUnits="userSpaceOnUse" color-interpolation-filters="sRGB">
<feFlood flood-opacity="0" result="BackgroundImageFix"/>
<feColorMatrix in="SourceAlpha" type="matrix" values="0 0 0 0 0 0 0 0 0 0 0 0 0 0 0 0 0 0 127 0" result="hardAlpha"/>
<feOffset/>
<feGaussianBlur stdDeviation="0.540231"/>
<feComposite in2="hardAlpha" operator="out"/>
<feColorMatrix type="matrix" values="0 0 0 0 0.698039 0 0 0 0 0.313726 0 0 0 0 1 0 0 0 1 0"/>
<feBlend mode="normal" in2="BackgroundImageFix" result="effect1_dropShadow_307_3175"/>
<feBlend mode="normal" in="SourceGraphic" in2="effect1_dropShadow_307_3175" result="shape"/>
</filter>
<filter id="filter3_d_307_3175" x="78.6627" y="21.8773" width="33.7395" height="25.1512" filterUnits="userSpaceOnUse" color-interpolation-filters="sRGB">
<feFlood flood-opacity="0" result="BackgroundImageFix"/>
<feColorMatrix in="SourceAlpha" type="matrix" values="0 0 0 0 0 0 0 0 0 0 0 0 0 0 0 0 0 0 127 0" result="hardAlpha"/>
<feOffset/>
<feGaussianBlur stdDeviation="0.540231"/>
<feComposite in2="hardAlpha" operator="out"/>
<feColorMatrix type="matrix" values="0 0 0 0 0.698039 0 0 0 0 0.313726 0 0 0 0 1 0 0 0 1 0"/>
<feBlend mode="normal" in2="BackgroundImageFix" result="effect1_dropShadow_307_3175"/>
<feBlend mode="normal" in="SourceGraphic" in2="effect1_dropShadow_307_3175" result="shape"/>
</filter>
<filter id="filter4_d_307_3175" x="40.1271" y="-10.4566" width="33.7395" height="57.4196" filterUnits="userSpaceOnUse" color-interpolation-filters="sRGB">
<feFlood flood-opacity="0" result="BackgroundImageFix"/>
<feColorMatrix in="SourceAlpha" type="matrix" values="0 0 0 0 0 0 0 0 0 0 0 0 0 0 0 0 0 0 127 0" result="hardAlpha"/>
<feOffset/>
<feGaussianBlur stdDeviation="0.540231"/>
<feComposite in2="hardAlpha" operator="out"/>
<feColorMatrix type="matrix" values="0 0 0 0 0.698039 0 0 0 0 0.313726 0 0 0 0 1 0 0 0 1 0"/>
<feBlend mode="normal" in2="BackgroundImageFix" result="effect1_dropShadow_307_3175"/>
<feBlend mode="normal" in="SourceGraphic" in2="effect1_dropShadow_307_3175" result="shape"/>
</filter>
<filter id="filter5_d_307_3175" x="208.917" y="-51.1883" width="40.2218" height="85.5116" filterUnits="userSpaceOnUse" color-interpolation-filters="sRGB">
<feFlood flood-opacity="0" result="BackgroundImageFix"/>
<feColorMatrix in="SourceAlpha" type="matrix" values="0 0 0 0 0 0 0 0 0 0 0 0 0 0 0 0 0 0 127 0" result="hardAlpha"/>
<feOffset/>
<feGaussianBlur stdDeviation="2.16092"/>
<feComposite in2="hardAlpha" operator="out"/>
<feColorMatrix type="matrix" values="0 0 0 0 1 0 0 0 0 0.901961 0 0 0 0 0.74902 0 0 0 1 0"/>
<feBlend mode="normal" in2="BackgroundImageFix" result="effect1_dropShadow_307_3175"/>
<feBlend mode="normal" in="SourceGraphic" in2="effect1_dropShadow_307_3175" result="shape"/>
</filter>
<filter id="filter6_d_307_3175" x="158.743" y="-56.6627" width="52.6662" height="90.9859" filterUnits="userSpaceOnUse" color-interpolation-filters="sRGB">
<feFlood flood-opacity="0" result="BackgroundImageFix"/>
<feColorMatrix in="SourceAlpha" type="matrix" values="0 0 0 0 0 0 0 0 0 0 0 0 0 0 0 0 0 0 127 0" result="hardAlpha"/>
<feOffset/>
<feGaussianBlur stdDeviation="2.16092"/>
<feComposite in2="hardAlpha" operator="out"/>
<feColorMatrix type="matrix" values="0 0 0 0 1 0 0 0 0 0.901961 0 0 0 0 0.74902 0 0 0 1 0"/>
<feBlend mode="normal" in2="BackgroundImageFix" result="effect1_dropShadow_307_3175"/>
<feBlend mode="normal" in="SourceGraphic" in2="effect1_dropShadow_307_3175" result="shape"/>
</filter>
<filter id="filter7_d_307_3175" x="161.462" y="59.8985" width="9.47625" height="13.1014" filterUnits="userSpaceOnUse" color-interpolation-filters="sRGB">
<feFlood flood-opacity="0" result="BackgroundImageFix"/>
<feColorMatrix in="SourceAlpha" type="matrix" values="0 0 0 0 0 0 0 0 0 0 0 0 0 0 0 0 0 0 127 0" result="hardAlpha"/>
<feOffset/>
<feGaussianBlur stdDeviation="0.810346"/>
<feComposite in2="hardAlpha" operator="out"/>
<feColorMatrix type="matrix" values="0 0 0 0 0.313726 0 0 0 0 0.956863 0 0 0 0 1 0 0 0 1 0"/>
<feBlend mode="normal" in2="BackgroundImageFix" result="effect1_dropShadow_307_3175"/>
<feBlend mode="normal" in="SourceGraphic" in2="effect1_dropShadow_307_3175" result="shape"/>
</filter>
<filter id="filter8_d_307_3175" x="153.015" y="63.9598" width="9.47625" height="13.1014" filterUnits="userSpaceOnUse" color-interpolation-filters="sRGB">
<feFlood flood-opacity="0" result="BackgroundImageFix"/>
<feColorMatrix in="SourceAlpha" type="matrix" values="0 0 0 0 0 0 0 0 0 0 0 0 0 0 0 0 0 0 127 0" result="hardAlpha"/>
<feOffset/>
<feGaussianBlur stdDeviation="0.810346"/>
<feComposite in2="hardAlpha" operator="out"/>
<feColorMatrix type="matrix" values="0 0 0 0 0.313726 0 0 0 0 0.956863 0 0 0 0 1 0 0 0 1 0"/>
<feBlend mode="normal" in2="BackgroundImageFix" result="effect1_dropShadow_307_3175"/>
<feBlend mode="normal" in="SourceGraphic" in2="effect1_dropShadow_307_3175" result="shape"/>
</filter>
<filter id="filter9_d_307_3175" x="144.566" y="68.6474" width="9.47625" height="13.1014" filterUnits="userSpaceOnUse" color-interpolation-filters="sRGB">
<feFlood flood-opacity="0" result="BackgroundImageFix"/>
<feColorMatrix in="SourceAlpha" type="matrix" values="0 0 0 0 0 0 0 0 0 0 0 0 0 0 0 0 0 0 127 0" result="hardAlpha"/>
<feOffset/>
<feGaussianBlur stdDeviation="0.810346"/>
<feComposite in2="hardAlpha" operator="out"/>
<feColorMatrix type="matrix" values="0 0 0 0 0.313726 0 0 0 0 0.956863 0 0 0 0 1 0 0 0 1 0"/>
<feBlend mode="normal" in2="BackgroundImageFix" result="effect1_dropShadow_307_3175"/>
<feBlend mode="normal" in="SourceGraphic" in2="effect1_dropShadow_307_3175" result="shape"/>
</filter>
<filter id="filter10_d_307_3175" x="136.119" y="73.0287" width="9.47625" height="13.1014" filterUnits="userSpaceOnUse" color-interpolation-filters="sRGB">
<feFlood flood-opacity="0" result="BackgroundImageFix"/>
<feColorMatrix in="SourceAlpha" type="matrix" values="0 0 0 0 0 0 0 0 0 0 0 0 0 0 0 0 0 0 127 0" result="hardAlpha"/>
<feOffset/>
<feGaussianBlur stdDeviation="0.810346"/>
<feComposite in2="hardAlpha" operator="out"/>
<feColorMatrix type="matrix" values="0 0 0 0 0.313726 0 0 0 0 0.956863 0 0 0 0 1 0 0 0 1 0"/>
<feBlend mode="normal" in2="BackgroundImageFix" result="effect1_dropShadow_307_3175"/>
<feBlend mode="normal" in="SourceGraphic" in2="effect1_dropShadow_307_3175" result="shape"/>
</filter>
<filter id="filter11_d_307_3175" x="97.5829" y="60.2652" width="9.47625" height="13.1014" filterUnits="userSpaceOnUse" color-interpolation-filters="sRGB">
<feFlood flood-opacity="0" result="BackgroundImageFix"/>
<feColorMatrix in="SourceAlpha" type="matrix" values="0 0 0 0 0 0 0 0 0 0 0 0 0 0 0 0 0 0 127 0" result="hardAlpha"/>
<feOffset/>
<feGaussianBlur stdDeviation="0.810346"/>
<feComposite in2="hardAlpha" operator="out"/>
<feColorMatrix type="matrix" values="0 0 0 0 0.313726 0 0 0 0 0.956863 0 0 0 0 1 0 0 0 1 0"/>
<feBlend mode="normal" in2="BackgroundImageFix" result="effect1_dropShadow_307_3175"/>
<feBlend mode="normal" in="SourceGraphic" in2="effect1_dropShadow_307_3175" result="shape"/>
</filter>
<filter id="filter12_d_307_3175" x="106.031" y="64.3263" width="9.47625" height="13.1014" filterUnits="userSpaceOnUse" color-interpolation-filters="sRGB">
<feFlood flood-opacity="0" result="BackgroundImageFix"/>
<feColorMatrix in="SourceAlpha" type="matrix" values="0 0 0 0 0 0 0 0 0 0 0 0 0 0 0 0 0 0 127 0" result="hardAlpha"/>
<feOffset/>
<feGaussianBlur stdDeviation="0.810346"/>
<feComposite in2="hardAlpha" operator="out"/>
<feColorMatrix type="matrix" values="0 0 0 0 0.313726 0 0 0 0 0.956863 0 0 0 0 1 0 0 0 1 0"/>
<feBlend mode="normal" in2="BackgroundImageFix" result="effect1_dropShadow_307_3175"/>
<feBlend mode="normal" in="SourceGraphic" in2="effect1_dropShadow_307_3175" result="shape"/>
</filter>
<filter id="filter13_d_307_3175" x="114.479" y="69.0141" width="9.47625" height="13.1014" filterUnits="userSpaceOnUse" color-interpolation-filters="sRGB">
<feFlood flood-opacity="0" result="BackgroundImageFix"/>
<feColorMatrix in="SourceAlpha" type="matrix" values="0 0 0 0 0 0 0 0 0 0 0 0 0 0 0 0 0 0 127 0" result="hardAlpha"/>
<feOffset/>
<feGaussianBlur stdDeviation="0.810346"/>
<feComposite in2="hardAlpha" operator="out"/>
<feColorMatrix type="matrix" values="0 0 0 0 0.313726 0 0 0 0 0.956863 0 0 0 0 1 0 0 0 1 0"/>
<feBlend mode="normal" in2="BackgroundImageFix" result="effect1_dropShadow_307_3175"/>
<feBlend mode="normal" in="SourceGraphic" in2="effect1_dropShadow_307_3175" result="shape"/>
</filter>
<filter id="filter14_d_307_3175" x="122.926" y="73.3954" width="9.47625" height="13.1014" filterUnits="userSpaceOnUse" color-interpolation-filters="sRGB">
<feFlood flood-opacity="0" result="BackgroundImageFix"/>
<feColorMatrix in="SourceAlpha" type="matrix" values="0 0 0 0 0 0 0 0 0 0 0 0 0 0 0 0 0 0 127 0" result="hardAlpha"/>
<feOffset/>
<feGaussianBlur stdDeviation="0.810346"/>
<feComposite in2="hardAlpha" operator="out"/>
<feColorMatrix type="matrix" values="0 0 0 0 0.313726 0 0 0 0 0.956863 0 0 0 0 1 0 0 0 1 0"/>
<feBlend mode="normal" in2="BackgroundImageFix" result="effect1_dropShadow_307_3175"/>
<feBlend mode="normal" in="SourceGraphic" in2="effect1_dropShadow_307_3175" result="shape"/>
</filter>
<filter id="filter15_d_307_3175" x="197.114" y="70.4275" width="75.336" height="28.5792" filterUnits="userSpaceOnUse" color-interpolation-filters="sRGB">
<feFlood flood-opacity="0" result="BackgroundImageFix"/>
<feColorMatrix in="SourceAlpha" type="matrix" values="0 0 0 0 0 0 0 0 0 0 0 0 0 0 0 0 0 0 127 0" result="hardAlpha"/>
<feOffset dy="0.360154"/>
<feGaussianBlur stdDeviation="1.30556"/>
<feComposite in2="hardAlpha" operator="out"/>
<feColorMatrix type="matrix" values="0 0 0 0 0.819608 0 0 0 0 0.313726 0 0 0 0 1 0 0 0 1 0"/>
<feBlend mode="normal" in2="BackgroundImageFix" result="effect1_dropShadow_307_3175"/>
<feBlend mode="normal" in="SourceGraphic" in2="effect1_dropShadow_307_3175" result="shape"/>
</filter>
<clipPath id="clip0_307_3175">
<path d="M0.666504 15C0.666504 6.71573 7.38223 0 15.6665 0H307C315.284 0 322 6.71573 322 15V95C322 103.284 315.284 110 307 110H15.6665C7.38226 110 0.666504 103.284 0.666504 95V15Z" fill="white"/>
</clipPath>
</defs>
</svg>
