<svg width="467" height="246" viewBox="0 0 467 246" fill="none" xmlns="http://www.w3.org/2000/svg">
<path d="M138.539 149.533L135.719 148.085V150.981L138.539 149.533Z" fill="#505050"/>
<path d="M207.577 163.063L141.842 196.825C148.662 200.632 159.983 211.754 150.703 225.788L153.281 227.112L219.016 193.35C219.445 192.832 219.856 192.206 220.23 191.491C221.021 189.977 221.645 188.061 221.919 185.903C222.795 178.983 220.055 169.585 207.577 163.063Z" fill="#12AFA6"/>
<path d="M141.841 196.825C125.783 199.115 87.9964 197.272 75.6227 181.847C74.3338 182.427 72.5615 184.082 72.0781 185.406L150.703 225.788C159.983 211.754 148.662 200.632 141.841 196.825Z" fill="#AAFFFA"/>
<path fill-rule="evenodd" clip-rule="evenodd" d="M75.623 181.848C87.9968 197.272 125.784 199.115 141.842 196.825L207.577 163.063C200.326 164.097 188.643 164.288 176.871 162.767C162.574 160.919 148.144 156.545 141.358 148.085L138.539 149.533L135.719 150.981L75.623 181.848Z" fill="#00FFF0"/>
<path d="M153.281 233.567V245.483L234 204.025V192.109L153.281 233.567Z" fill="#444444"/>
<path d="M135.719 148.085L67.5669 183.089L72.0781 185.406C72.5615 184.082 74.3338 182.427 75.6227 181.848L135.719 150.981V148.085Z" fill="#444444"/>
<path d="M55 183.089V195.005L153.281 245.483V233.567L55 183.089Z" fill="#505050"/>
<path d="M55 183.089L153.281 233.567L234 192.109L221.918 185.903C221.645 188.061 221.021 189.977 220.23 191.491L221.433 192.109L219.016 193.35L153.281 227.112L150.703 225.788L72.0783 185.406L67.5671 183.089L135.719 148.085L138.539 149.533L141.358 148.085C148.144 156.545 162.574 160.919 176.871 162.767L135.719 141.631L55 183.089Z" fill="#3A3A3A"/>
<path fill-rule="evenodd" clip-rule="evenodd" d="M125.824 166.679C123.294 166.679 121.244 167.571 121.244 168.671L121.244 168.811C121.244 168.811 121.244 168.811 121.244 168.811C121.244 169.911 123.294 170.803 125.824 170.803C128.354 170.803 130.405 169.911 130.405 168.811L130.405 168.671C130.405 167.571 128.354 166.679 125.824 166.679ZM125.824 164.575C131.025 164.575 135.241 166.409 135.241 168.671V168.811C135.241 171.073 131.025 172.907 125.824 172.907C120.623 172.907 116.407 171.073 116.407 168.811L116.407 168.671C116.407 168.671 116.407 168.671 116.407 168.671C116.407 166.409 120.623 164.575 125.824 164.575Z" fill="white"/>
<path fill-rule="evenodd" clip-rule="evenodd" d="M148.564 177.549C149.452 177.028 150.972 176.845 151.959 177.14L162.945 180.423C163.932 180.718 164.012 181.379 163.123 181.9C162.235 182.421 160.715 182.604 159.728 182.309L148.742 179.026C147.755 178.731 147.675 178.07 148.564 177.549Z" fill="#3A3A3A"/>
<path fill-rule="evenodd" clip-rule="evenodd" d="M148.564 177.549C149.452 177.028 150.972 176.845 151.959 177.14L162.945 180.423C163.932 180.718 164.012 181.379 163.123 181.9C162.235 182.421 160.715 182.604 159.728 182.309L148.742 179.026C147.755 178.731 147.675 178.07 148.564 177.549Z" fill="white"/>
<path fill-rule="evenodd" clip-rule="evenodd" d="M173 120.089L271.281 170.567L352 129.109L339.918 122.903L294.871 99.7666L253.719 78.6306L173 120.089ZM185.567 120.089L253.719 85.0852L256.539 86.5333L338.23 128.491L339.433 129.109L337.016 130.35L271.281 164.112L268.703 162.788L190.078 122.406L185.567 120.089Z" fill="#3A3A3A"/>
<path fill-rule="evenodd" clip-rule="evenodd" d="M173 120.089L271.281 170.567L352 129.109L339.918 122.903L294.871 99.7666L253.719 78.6306L173 120.089ZM185.567 120.089L253.719 85.0852L256.539 86.5333L338.23 128.491L339.433 129.109L337.016 130.35L271.281 164.112L268.703 162.788L190.078 122.406L185.567 120.089Z" fill="#3A3A3A"/>
<path d="M256.539 86.5333L253.719 85.0852V87.9815L256.539 86.5333Z" fill="#505050"/>
<path d="M271.281 170.567V182.483L352 141.025V129.109L271.281 170.567Z" fill="#444444"/>
<path d="M253.719 85.0852L185.567 120.089V126.917L253.719 91.4098V85.0852Z" fill="#444444"/>
<path d="M173 120.089V132.005L271.281 182.483V170.567L173 120.089Z" fill="#505050"/>
<path d="M271.043 159.394C271.322 160.801 270.996 163.242 270.184 164.421L269.489 165.824V167.563L331.758 134.992C331.758 134.992 334.01 131.542 334.418 130.453C334.826 129.364 335.322 126.795 335.043 125.387L271.043 159.394Z" fill="#AF7112"/>
<path d="M219.684 113.405C227.238 128.041 250.997 158.23 271.044 159.394C271.323 160.801 270.996 163.242 270.185 164.421L190.5 123.113C196.655 107.175 212.52 110 219.684 113.405Z" fill="#FFB950"/>
<path d="M219.684 113.405C227.238 128.041 250.997 158.23 271.044 159.394L335.043 125.387C314.997 124.223 291.238 94.0344 283.684 79.3977L219.684 113.405Z" fill="#FF9900"/>
<path fill-rule="evenodd" clip-rule="evenodd" d="M261.934 104.458C259.404 104.458 257.354 106.311 257.354 108.598L257.354 108.889C257.354 108.889 257.354 108.889 257.354 108.889C257.354 111.175 259.404 113.028 261.934 113.028C264.464 113.028 266.515 111.175 266.515 108.889L266.515 108.598C266.515 106.311 264.464 104.458 261.934 104.458ZM261.934 100.087C267.135 100.087 271.351 103.897 271.351 108.598V108.889C271.351 113.589 267.135 117.4 261.934 117.4C256.733 117.4 252.517 113.589 252.517 108.889L252.517 108.598C252.517 108.598 252.517 108.598 252.517 108.598C252.517 103.897 256.733 100.087 261.934 100.087Z" fill="white"/>
<path fill-rule="evenodd" clip-rule="evenodd" d="M282.075 128.876C282.963 127.794 284.484 127.414 285.47 128.026L296.457 134.848C297.443 135.461 297.523 136.835 296.635 137.917C295.746 138.999 294.226 139.38 293.239 138.767L282.253 131.945C281.266 131.332 281.187 129.958 282.075 128.876Z" fill="#3A3A3A"/>
<path fill-rule="evenodd" clip-rule="evenodd" d="M282.075 128.876C282.963 127.794 284.484 127.414 285.47 128.026L296.457 134.848C297.443 135.461 297.523 136.835 296.635 137.917C295.746 138.999 294.226 139.38 293.239 138.767L282.253 131.945C281.266 131.332 281.187 129.958 282.075 128.876Z" fill="white"/>
<path d="M199.379 112.67C206.403 109.155 214.947 111.153 219.684 113.405L260.024 91.9698L283.684 79.3978C278.929 77.1378 270.34 75.1332 263.302 78.7015L199.379 112.67Z" fill="#AF7112"/>
<path d="M173 120.089L271.281 170.567L352 129.109H339.433L337.016 130.35L271.281 164.112L268.703 162.788L190.078 122.406L185.567 120.089H173Z" fill="#3A3A3A"/>
<path d="M371.539 25.5333L368.719 24.0852V26.9815L371.539 25.5333Z" fill="#505050"/>
<path d="M440.577 39.063L374.842 72.8253C381.662 76.6318 392.983 87.7536 383.703 101.788L386.281 103.112L452.016 69.3498C452.445 68.8315 452.856 68.2061 453.23 67.4905C454.021 65.9771 454.645 64.0606 454.919 61.9033C455.795 54.9831 453.055 45.5849 440.577 39.063Z" fill="#6A12AF"/>
<path d="M374.841 72.8253C358.783 75.1147 320.996 73.2722 308.623 57.8474C307.334 58.4267 305.561 60.0817 305.078 61.4057L383.703 101.788C392.983 87.7535 381.662 76.6318 374.841 72.8253Z" fill="#B250FF"/>
<path fill-rule="evenodd" clip-rule="evenodd" d="M308.623 57.8475C320.997 73.2723 358.784 75.1149 374.842 72.8254L440.577 39.0631C433.326 40.097 421.643 40.2882 409.871 38.7666C395.574 36.9187 381.144 32.5445 374.358 24.0852L371.539 25.5333L368.719 26.9815L308.623 57.8475Z" fill="#8F00FF"/>
<path d="M386.281 109.567V121.483L467 80.0248V68.1086L386.281 109.567Z" fill="#444444"/>
<path d="M368.719 24.0852L300.567 59.0888L305.078 61.4058C305.561 60.0818 307.334 58.4268 308.623 57.8475L368.719 26.9815V24.0852Z" fill="#444444"/>
<path d="M288 59.0889V71.005L386.281 121.483V109.567L288 59.0889Z" fill="#505050"/>
<path d="M288 59.0888L386.281 109.567L467 68.1086L454.918 61.9034C454.645 64.0607 454.021 65.9771 453.23 67.4906L454.433 68.1086L452.016 69.3499L386.281 103.112L383.703 101.788L305.078 61.4058L300.567 59.0888L368.719 24.0852L371.539 25.5333L374.358 24.0852C381.144 32.5445 395.574 36.9187 409.871 38.7666L368.719 17.6306L288 59.0888Z" fill="#3A3A3A"/>
<path fill-rule="evenodd" clip-rule="evenodd" d="M358.824 42.6787C356.294 42.6787 354.244 43.5707 354.244 44.671L354.244 44.8109C354.244 44.8109 354.244 44.8109 354.244 44.8109C354.244 45.9113 356.294 46.8033 358.824 46.8033C361.354 46.8033 363.405 45.9113 363.405 44.8109L363.405 44.671C363.405 43.5707 361.354 42.6787 358.824 42.6787ZM358.824 40.575C364.025 40.575 368.241 42.4088 368.241 44.671V44.8109C368.241 47.0731 364.025 48.9069 358.824 48.907C353.623 48.907 349.407 47.0731 349.407 44.8109L349.407 44.671C349.407 44.671 349.407 44.671 349.407 44.671C349.407 42.4088 353.623 40.575 358.824 40.575Z" fill="white"/>
<path fill-rule="evenodd" clip-rule="evenodd" d="M381.564 53.549C382.452 53.0282 383.972 52.8451 384.959 53.1399L395.945 56.4229C396.932 56.7178 397.012 57.379 396.123 57.8998C395.235 58.4205 393.715 58.6037 392.728 58.3088L381.742 55.0258C380.755 54.731 380.675 54.0698 381.564 53.549Z" fill="#3A3A3A"/>
<path fill-rule="evenodd" clip-rule="evenodd" d="M381.564 53.549C382.452 53.0282 383.972 52.8451 384.959 53.1399L395.945 56.4229C396.932 56.7178 397.012 57.379 396.123 57.8998C395.235 58.4205 393.715 58.6037 392.728 58.3088L381.742 55.0258C380.755 54.731 380.675 54.0698 381.564 53.549Z" fill="white"/>
</svg>
