<svg width="8" height="13" viewBox="0 0 8 13" fill="none" xmlns="http://www.w3.org/2000/svg">
<path d="M6.97216 0.977098L5.43116 0.975098C3.69816 0.975098 2.57816 2.1241 2.57816 3.9021V5.2511H1.02816C0.996292 5.25097 0.964716 5.25713 0.93524 5.26923C0.905763 5.28133 0.878967 5.29914 0.85639 5.32162C0.833812 5.34411 0.815897 5.37083 0.803673 5.40026C0.791448 5.42968 0.785156 5.46123 0.785156 5.4931V7.4481C0.785156 7.5821 0.895156 7.6911 1.02816 7.6911H2.57816V12.6241C2.57816 12.7581 2.68716 12.8671 2.82116 12.8671H4.84416C4.87602 12.8671 4.90757 12.8608 4.937 12.8486C4.96642 12.8364 4.99315 12.8184 5.01563 12.7959C5.03812 12.7733 5.05592 12.7465 5.06802 12.717C5.08013 12.6875 5.08629 12.656 5.08616 12.6241V7.6911H6.89916C6.9311 7.69123 6.96276 7.68503 6.9923 7.67287C7.02185 7.6607 7.04869 7.64281 7.07128 7.62022C7.09387 7.59763 7.11176 7.57079 7.12393 7.54125C7.13609 7.5117 7.14229 7.48005 7.14216 7.4481V5.4931C7.14189 5.429 7.11631 5.3676 7.07099 5.32227C7.02566 5.27694 6.96426 5.25136 6.90016 5.2511H5.08616V4.1071C5.08616 3.5571 5.21716 3.2781 5.93316 3.2781H6.97316C7.00502 3.2781 7.03657 3.27181 7.066 3.25958C7.09542 3.24736 7.12215 3.22944 7.14463 3.20686C7.16712 3.18429 7.18492 3.15749 7.19702 3.12801C7.20913 3.09854 7.21529 3.06696 7.21516 3.0351V1.2201C7.21516 1.15582 7.18969 1.09417 7.14434 1.04862C7.09898 1.00308 7.03743 0.977362 6.97316 0.977098H6.97216Z" fill="white"/>
</svg>
