<svg width="12" height="12" viewBox="0 0 12 12" fill="none" xmlns="http://www.w3.org/2000/svg">
<path fill-rule="evenodd" clip-rule="evenodd" d="M1.84323 0.676293C1.03823 0.676293 0.51123 1.20229 0.51123 1.89729C0.51123 2.57729 1.02223 3.12029 1.81123 3.12029H1.82723C2.64823 3.12029 3.15823 2.57629 3.15823 1.89729C3.14323 1.20329 2.64923 0.675293 1.84423 0.675293L1.84323 0.676293ZM11.4882 7.10629V11.1653H9.13623V7.37829C9.13623 6.42729 8.79623 5.77829 7.94423 5.77829C7.29423 5.77829 6.90723 6.21529 6.73623 6.63829C6.67423 6.79029 6.65823 7.00029 6.65823 7.21229V11.1653H4.30523C4.30523 11.1653 4.33723 4.75229 4.30523 4.08729H6.65823V5.09029C6.65597 5.09401 6.65364 5.09768 6.65123 5.10129L6.64323 5.11329H6.65823V5.09029C6.97123 4.60929 7.52923 3.92029 8.77923 3.92029C10.3282 3.92029 11.4892 4.93229 11.4892 7.10629H11.4882ZM3.00423 11.1663H0.65123V4.08629H3.00423V11.1643V11.1663Z" fill="white"/>
</svg>
