<svg width="12" height="12" viewBox="0 0 12 12" fill="none" xmlns="http://www.w3.org/2000/svg">
<g clip-path="url(#clip0_142_16268)">
<path d="M12 1.70067C11.5507 1.89961 11.074 2.03006 10.586 2.08767C11.0996 1.78 11.484 1.29639 11.668 0.726672C11.1843 1.01315 10.6554 1.21536 10.104 1.32467C9.73338 0.929063 9.24255 0.666836 8.70767 0.578677C8.1728 0.490518 7.62378 0.581356 7.1458 0.837098C6.66782 1.09284 6.28761 1.49919 6.06417 1.99309C5.84072 2.48699 5.78653 3.04083 5.91 3.56867C4.93136 3.51954 3.97399 3.26517 3.10003 2.82207C2.22606 2.37897 1.45504 1.75705 0.837 0.996672C0.521378 1.53836 0.424482 2.18012 0.566105 2.79084C0.707728 3.40157 1.07718 3.93518 1.599 4.28267C1.20798 4.2694 0.825756 4.16313 0.484 3.97267V4.00467C0.484 5.19667 1.333 6.19167 2.458 6.41767C2.24676 6.47499 2.02888 6.50424 1.81 6.50467C1.65 6.50467 1.497 6.48867 1.346 6.45867C1.50304 6.94803 1.80923 7.37602 2.22167 7.68266C2.63411 7.9893 3.13214 8.15924 3.646 8.16867C3.13507 8.56978 2.55004 8.86616 1.9244 9.04084C1.29876 9.21552 0.644815 9.26508 0 9.18667C1.12508 9.91075 2.43506 10.2951 3.773 10.2937C8.302 10.2937 10.777 6.54367 10.777 3.29067L10.769 2.97167C11.2529 2.62567 11.67 2.19468 12 1.69967V1.70067Z" fill="white"/>
</g>
<defs>
<clipPath id="clip0_142_16268">
<rect width="12" height="11" fill="white" transform="translate(0 0.420898)"/>
</clipPath>
</defs>
</svg>
