<svg width="24" height="24" viewBox="0 0 24 24" fill="none" xmlns="http://www.w3.org/2000/svg">
<path d="M16.2777 10.6617L17.1204 10.1232C17.4999 10.7171 17.415 11.3456 17.2732 11.8272C17.1409 12.2764 16.8925 12.8129 16.6218 13.3972C16.6121 13.4182 16.6023 13.4393 16.5925 13.4605L13.8612 19.3602L13.8389 19.4084C13.6713 19.7706 13.5118 20.1151 13.3656 20.3587C13.2917 20.4818 13.1735 20.6626 13.0018 20.8122C12.8116 20.9781 12.4495 21.189 11.9811 21.0858C11.5127 20.9826 11.2728 20.6391 11.1698 20.4087C11.0769 20.2008 11.0456 19.9871 11.0303 19.8443C10.9999 19.5618 10.9999 19.1822 11 18.7831L11 18.73V14.8001H10.1299C10.1066 14.8001 10.0833 14.8001 10.0602 14.8001C9.4162 14.8002 8.82491 14.8003 8.36179 14.7316C7.8651 14.6579 7.25914 14.4709 6.87963 13.877M16.2777 10.6617L6.87963 13.877M16.2777 10.6617L17.1204 10.1232C16.7409 9.5293 16.1349 9.34231 15.6382 9.26864C15.1751 9.19995 14.5838 9.20003 13.9398 9.20012C13.9167 9.20012 13.8934 9.20012 13.8701 9.20012H13V5.27025C13 5.25252 13 5.23482 13 5.21716C13.0001 4.81802 13.0001 4.43843 12.9697 4.15592C12.9544 4.01319 12.9231 3.79942 12.8302 3.5915C12.7272 3.36111 12.4873 3.01761 12.0189 2.91444C11.5505 2.81128 11.1884 3.02218 10.9982 3.188C10.8265 3.33764 10.7083 3.51849 10.6344 3.64156C10.4882 3.88516 10.3287 4.22965 10.1611 4.59188C10.1537 4.60791 10.1462 4.62397 10.1388 4.64006L7.40746 10.5397C7.39768 10.5609 7.38791 10.582 7.37818 10.603C7.10755 11.1873 6.85906 11.7239 6.72683 12.173C6.58501 12.6547 6.50012 13.2831 6.87963 13.877M16.2777 10.6617L6.87963 13.877M12.3753 4.63041C12.3753 4.63045 12.3747 4.63127 12.3735 4.63281C12.3747 4.63115 12.3753 4.63038 12.3753 4.63041ZM10.9751 4.32481C10.9747 4.32291 10.9745 4.3219 10.9745 4.32188C10.9745 4.32185 10.9747 4.3228 10.9751 4.32481ZM11.6247 19.3698C11.6247 19.3698 11.6253 19.3689 11.6266 19.3673C11.6253 19.369 11.6247 19.3699 11.6247 19.3698ZM13.0255 19.6784C13.0255 19.6784 13.0253 19.6775 13.0249 19.6754C13.0253 19.6773 13.0255 19.6783 13.0255 19.6784Z" stroke="white" stroke-width="2"/>
</svg>
