<svg width="24" height="24" viewBox="0 0 24 24" fill="none" xmlns="http://www.w3.org/2000/svg">
<path d="M10 15.0001L10 12.0001" stroke="white" stroke-width="2" stroke-linecap="round"/>
<path d="M14 15.0001L14 12.0001" stroke="white" stroke-width="2" stroke-linecap="round"/>
<path d="M3 7.00012H21V7.00012C20.0681 7.00012 19.6022 7.00012 19.2346 7.15236C18.7446 7.35535 18.3552 7.7447 18.1522 8.23476C18 8.6023 18 9.06824 18 10.0001V16.0001C18 17.8857 18 18.8285 17.4142 19.4143C16.8284 20.0001 15.8856 20.0001 14 20.0001H10C8.11438 20.0001 7.17157 20.0001 6.58579 19.4143C6 18.8285 6 17.8857 6 16.0001V10.0001C6 9.06824 6 8.6023 5.84776 8.23476C5.64477 7.7447 5.25542 7.35535 4.76537 7.15236C4.39782 7.00012 3.93188 7.00012 3 7.00012V7.00012Z" stroke="white" stroke-width="2" stroke-linecap="round"/>
<path d="M10.0681 3.37071C10.1821 3.2644 10.4332 3.17045 10.7825 3.10345C11.1318 3.03644 11.5597 3.00012 12 3.00012C12.4403 3.00012 12.8682 3.03644 13.2175 3.10345C13.5668 3.17045 13.8179 3.2644 13.9319 3.37071" stroke="white" stroke-width="2" stroke-linecap="round"/>
</svg>
